<svg xmlns="http://www.w3.org/2000/svg" xmlns:xlink="http://www.w3.org/1999/xlink" viewBox="0 0 76.45 66.25"><defs><style>.cls-1{fill:#567529;}.cls-2{fill:#f6921e;fill-rule:evenodd;}.cls-3{fill:url(#linear-gradient);}.cls-4{fill:#6b7073;}</style><linearGradient id="linear-gradient" x1="24.86" y1="45.09" x2="51.25" y2="18.69" gradientUnits="userSpaceOnUse"><stop offset="0" stop-color="#f19223"/><stop offset="0.3" stop-color="#eb6720"/><stop offset="0.6" stop-color="#e6431d"/><stop offset="0.84" stop-color="#e32d1c"/><stop offset="1" stop-color="#e2251b"/></linearGradient></defs><title>Recurso 2</title><g id="Capa_2" data-name="Capa 2"><g id="Capa_1-2" data-name="Capa 1"><g id="_Grupo_" data-name="&lt;Grupo&gt;"><path id="_Trazado_compuesto_" data-name="&lt;Trazado compuesto&gt;" class="cls-1" d="M40.71,43.37c.16,0,.3.1.23.31-.26.78-.09.26-3.73,10.28,0,0-.08.21-.22.21H35.37c-.15,0-.22-.21-.22-.21L31.41,43.68c-.07-.21.07-.31.24-.31H33a.2.2,0,0,1,.21.14c.07.21,2.74,7.75,2.83,8a.1.1,0,0,0,.09.09h0s.07,0,.09-.09c.09-.25,2.76-7.79,2.83-8a.19.19,0,0,1,.2-.14h1.39M5.44,43.1a5.68,5.68,0,0,1,0,11.35,4.63,4.63,0,0,1-3.28-1.33c-.24-.24-.46-.12-.46.1v5.31c0,.45,0,.45-.45.45H.44C0,59,0,59,0,58.53V48.78A5.5,5.5,0,0,1,5.44,43.1m0,9.71a4,4,0,0,0,0-8.05,4,4,0,0,0,0,8.05m12.3-9.71a5.68,5.68,0,1,1-5.44,5.71,5.55,5.55,0,0,1,5.44-5.71m0,9.63a3.8,3.8,0,0,0,3.65-3.92,3.85,3.85,0,0,0-3.65-4,3.85,3.85,0,0,0-3.64,4,3.8,3.8,0,0,0,3.64,3.92M59.2,43.1a4.32,4.32,0,0,0-4.52,4.51V53.8c0,.28,0,.37.39.37h1c.3,0,.4,0,.4-.29V47.55a2.74,2.74,0,1,1,5.47,0v6.33c0,.25.09.29.35.29h1c.38,0,.4-.08.4-.39V47.61A4.3,4.3,0,0,0,59.2,43.1m-11.82,0a5.19,5.19,0,0,1,5.2,4.11c.06.22-.08.36-.28.44l-7.62,3.26c-.17.07-.23.23-.1.45a3.75,3.75,0,0,0,2.91,1.43A3.67,3.67,0,0,0,50.67,51a.35.35,0,0,1,.31-.18h1.18a.3.3,0,0,1,.3.39,5.11,5.11,0,0,1-5,3.21,5.56,5.56,0,0,1-5.59-5.63,5.37,5.37,0,0,1,5.48-5.67m2.73,3.69a.26.26,0,0,0,.13-.39,3.35,3.35,0,0,0-4.47-1.24,3.58,3.58,0,0,0-1.92,3.94.32.32,0,0,0,.44.19l5.82-2.5M68,43.37H66.94c-.23,0-.35,0-.35.27V53.93c0,.3.29.24.37.24H68c.23,0,.35,0,.35-.26V43.62c0-.31-.29-.25-.37-.25m8-.24a4.29,4.29,0,0,0-4.74,4.63v6.16c0,.31.29.25.37.25h1c.24,0,.36,0,.36-.27V47.71a2.67,2.67,0,0,1,3-2.91.31.31,0,0,0,.34-.32v-1c0-.28-.18-.38-.42-.37m-46,0a4.29,4.29,0,0,0-4.74,4.63v6.16c0,.31.29.25.36.25H26.7c.23,0,.35,0,.35-.27V47.71a2.68,2.68,0,0,1,3.06-2.91.31.31,0,0,0,.34-.32v-1c0-.28-.18-.38-.42-.37"/><path id="_Trazado_" data-name="&lt;Trazado&gt;" class="cls-2" d="M70.91,36.39a.64.64,0,0,0-.38-.58h0L65,32.38l5.63-4.06h0a.61.61,0,0,0,.28-.52.64.64,0,0,0-.56-.63h0l-6.95-.71L69.48,19a.6.6,0,0,0,.19-.45.63.63,0,0,0-.63-.63H69l-9.62,1.57,2.86-6.35h0a.6.6,0,0,0,.05-.24.65.65,0,0,0-.66-.65.71.71,0,0,0-.2,0h0L55,15.12l1.53-9.47h0a.61.61,0,0,0,0-.14.65.65,0,0,0-.65-.65.72.72,0,0,0-.36.1h0a.48.48,0,0,0-.11.09l-7.4,6-.7-6.88h0V4.13a.62.62,0,0,0-.62-.62.62.62,0,0,0-.56.35L42.11,9.5l-3.42-9h0A.63.63,0,0,0,38.08,0a.62.62,0,0,0-.6.49l-3.42,9L30,3.87h0a.62.62,0,0,0-1.18.26.41.41,0,0,0,0,.11h0l-.7,6.85L20.62,5a.71.71,0,0,0-.38-.12.65.65,0,0,0-.65.65.78.78,0,0,0,0,.16h0l1.53,9.44-6.36-2.86h0a.93.93,0,0,0-.23,0,.66.66,0,0,0-.66.65.76.76,0,0,0,.06.27l2.85,6.33L7.19,17.91H7.12A.63.63,0,0,0,6.69,19l6.07,7.44-6.94.71h0a.63.63,0,0,0-.56.63.6.6,0,0,0,.29.53l5.63,4.06-5.55,3.4-.09,0h0a.63.63,0,0,0-.35.57Z"/><path id="_Trazado_2" data-name="&lt;Trazado&gt;" class="cls-3" d="M16.16,36.39H60a21.9,21.9,0,0,0-43.79,0"/><path id="_Trazado_compuesto_2" data-name="&lt;Trazado compuesto&gt;" class="cls-4" d="M28.41,65a2.24,2.24,0,0,1-1.13-.35.25.25,0,0,1-.11-.21.25.25,0,0,1,.42-.17,1.47,1.47,0,0,0,.85.25c.47,0,.9-.23.9-.54s-.48-.56-.91-.73-1.27-.53-1.27-1.21A1.23,1.23,0,0,1,28.5,61a1.67,1.67,0,0,1,1.07.37.26.26,0,0,1,.1.2.25.25,0,0,1-.4.18,1.28,1.28,0,0,0-.77-.26c-.46,0-.86.26-.86.58s.55.57.91.72c.56.23,1.29.58,1.29,1.22S29,65,28.41,65Z"/><path id="_Trazado_compuesto_3" data-name="&lt;Trazado compuesto&gt;" class="cls-4" d="M30.54,63a2,2,0,1,1,2,2A2,2,0,0,1,30.54,63ZM31,63a1.54,1.54,0,0,0,3.08,0A1.54,1.54,0,0,0,31,63Zm1-2.6-.09,0a.18.18,0,0,1-.16-.18.2.2,0,0,1,.08-.13l.88-.74a.24.24,0,0,1,.15-.06.36.36,0,0,1,.34.36.27.27,0,0,1-.15.25Z"/><path id="_Trazado_compuesto_4" data-name="&lt;Trazado compuesto&gt;" class="cls-4" d="M35.51,64.42V60a.1.1,0,0,0-.06-.1.24.24,0,0,1-.14-.22.25.25,0,0,1,.26-.25c.28,0,.43.25.43.54v4.47a.1.1,0,0,0,0,.1.24.24,0,0,1,.14.22.25.25,0,0,1-.26.25C35.65,65,35.51,64.71,35.51,64.42Z"/><path id="_Trazado_compuesto_5" data-name="&lt;Trazado compuesto&gt;" class="cls-4" d="M37.07,63a2,2,0,1,1,2,2A2,2,0,0,1,37.07,63Zm.48,0a1.54,1.54,0,1,0,3.08,0,1.54,1.54,0,0,0-3.08,0Z"/><path id="_Trazado_compuesto_6" data-name="&lt;Trazado compuesto&gt;" class="cls-4" d="M47.32,64.42V62.73a1.12,1.12,0,0,0-1.2-1.25A1.11,1.11,0,0,0,45,62.57v1.85c0,.28-.1.52-.38.54a.27.27,0,0,1-.3-.25.23.23,0,0,1,.14-.22.1.1,0,0,0,.06-.1V60a.1.1,0,0,0-.06-.1.24.24,0,0,1-.14-.22.25.25,0,0,1,.26-.25c.28,0,.42.25.42.54v1.7A1.33,1.33,0,0,1,46.12,61c1.17,0,1.69.66,1.69,1.79v1.6a.1.1,0,0,0,0,.1.24.24,0,0,1-.11.47C47.47,65,47.32,64.71,47.32,64.42Z"/><path id="_Trazado_compuesto_7" data-name="&lt;Trazado compuesto&gt;" class="cls-4" d="M51.48,64.6a.82.82,0,0,1,0-.23,1.45,1.45,0,0,1-1.22.62,1.32,1.32,0,0,1-1.45-1.26c0-1,.81-1.44,1.73-1.44a1.91,1.91,0,0,1,.94.25v-.21a1.54,1.54,0,0,0-.05-.45c-.12-.33-.55-.43-1-.43a3.17,3.17,0,0,0-.88.13l-.1,0a.23.23,0,0,1-.24-.24.26.26,0,0,1,.17-.23,3.15,3.15,0,0,1,1-.17,1.44,1.44,0,0,1,1.48.75,1.65,1.65,0,0,1,.08.6v2.08a.1.1,0,0,0,0,.1.25.25,0,0,1,.15.22.28.28,0,0,1-.26.28A.46.46,0,0,1,51.48,64.6Zm0-1.59a1.79,1.79,0,0,0-1-.23c-.61,0-1.22.27-1.22.94s.49.8,1,.8a1.12,1.12,0,0,0,1.2-1Z"/><path id="_Trazado_compuesto_8" data-name="&lt;Trazado compuesto&gt;" class="cls-4" d="M52.86,61.59a.12.12,0,0,0-.1-.09.23.23,0,0,1-.19-.24.26.26,0,0,1,.29-.26.45.45,0,0,1,.43.32l.94,2.43.19.67h0l.19-.66,1-2.44A.47.47,0,0,1,56,61a.25.25,0,0,1,.28.25.22.22,0,0,1-.18.24.17.17,0,0,0-.11.09L54.68,65a2.49,2.49,0,0,1-.69,1.1.88.88,0,0,1-.51.16,1.77,1.77,0,0,1-.59-.12.29.29,0,0,1-.16-.24.26.26,0,0,1,.26-.25c.15,0,.31.11.48.11a.39.39,0,0,0,.23-.07,1.56,1.56,0,0,0,.41-.62l0-.11Z"/><path id="_Trazado_compuesto_9" data-name="&lt;Trazado compuesto&gt;" class="cls-4" d="M62.51,64.35a1.45,1.45,0,0,1-1.15.61,1.55,1.55,0,0,1-1.73-1.74V61.56a.1.1,0,0,0-.05-.1.24.24,0,0,1,.11-.46c.28,0,.43.24.43.53v1.69c0,.86.39,1.25,1.25,1.25a1.06,1.06,0,0,0,1.14-1V61.53c0-.29.14-.53.42-.53a.25.25,0,0,1,.26.24.24.24,0,0,1-.14.22.1.1,0,0,0-.06.1v2.83a.1.1,0,0,0,.06.1.24.24,0,0,1,.14.22.25.25,0,0,1-.26.25C62.6,65,62.49,64.64,62.51,64.35Z"/><path id="_Trazado_compuesto_10" data-name="&lt;Trazado compuesto&gt;" class="cls-4" d="M67.23,64.42V62.73A1.09,1.09,0,0,0,66,61.48a1.11,1.11,0,0,0-1.16,1.14v1.8c0,.29-.14.54-.42.54a.25.25,0,0,1-.26-.25.24.24,0,0,1,.14-.22.1.1,0,0,0,.06-.1V61.58a.1.1,0,0,0-.06-.1.23.23,0,0,1-.14-.22.25.25,0,0,1,.25-.26c.26,0,.43.18.43.49v.14A1.4,1.4,0,0,1,66,61a1.57,1.57,0,0,1,1.69,1.79v1.6a.1.1,0,0,0,0,.1.24.24,0,0,1-.11.47C67.38,65,67.23,64.71,67.23,64.42Z"/><path id="_Trazado_compuesto_11" data-name="&lt;Trazado compuesto&gt;" class="cls-4" d="M68.62,63a2,2,0,1,1,2,2A2,2,0,0,1,68.62,63Zm.48,0a1.54,1.54,0,1,0,3.08,0,1.54,1.54,0,0,0-3.08,0Z"/></g></g></g></svg>