<?xml version="1.0" encoding="UTF-8"?>
<svg width="64px" height="43px" viewBox="0 0 64 43" version="1.1" xmlns="http://www.w3.org/2000/svg" xmlns:xlink="http://www.w3.org/1999/xlink">
    <!-- Generator: sketchtool 53.2 (72643) - https://sketchapp.com -->
    <title>469C6568-B6DF-437A-97C6-6C91DEE18931</title>
    <desc>Created with sketchtool.</desc>
    <g id="Comprar-producto-(Desktop-|-1280)" stroke="none" stroke-width="1" fill="none" fill-rule="evenodd">
        <g id="[1]-Comprar-producto-(Desktop-|-1280)" transform="translate(-936.000000, -3146.000000)" fill="#002c76" fill-rule="nonzero">
            <g id="Páginas-/-Desktop-/-Inicio">
                <g id="Átomos-/-Íconos-/-Truck-1-Copy-2" transform="translate(936.000000, 3136.000000)">
                    <path d="M51.042935,49.3545329 C49.0109351,49.3545329 47.4229351,47.6891996 47.4229351,45.7358663 C47.4229351,43.7811996 49.0882684,42.1158663 51.042935,42.1158663 C53.0749349,42.1158663 54.6629349,43.7811996 54.6629349,45.7358663 C54.6629349,47.6891996 52.9962683,49.3545329 51.042935,49.3545329 L51.042935,49.3545329 Z M38.4002675,27.1905333 C38.2162675,27.1905333 38.0589342,27.0465333 38.0589342,26.8505333 L38.0589342,20.2011998 C38.0589342,20.0171998 38.2029342,19.8598665 38.4002675,19.8598665 L44.1442677,19.8598665 C44.261601,19.8598665 44.3669343,19.9118665 44.4189343,20.0038665 L48.8922678,26.6532 C49.0362678,26.8772 48.8789345,27.1785333 48.6162678,27.1785333 L38.4002675,27.1785333 L38.4002675,27.1905333 Z M13.4682668,49.3545329 C11.4362668,49.3545329 9.84826688,47.6891996 9.84826688,45.7358663 C9.84826688,43.7811996 11.5149335,42.1158663 13.4682668,42.1158663 C15.5016,42.1158663 17.0882666,43.7811996 17.0882666,45.7358663 C17.0882666,47.6891996 15.5016,49.3545329 13.4682668,49.3545329 L13.4682668,49.3545329 Z M61.6136,39.0078673 L61.6136,32.1345338 C61.6136,29.5252004 59.5149333,27.427867 56.9042667,27.427867 L53.6522667,26.9158669 L48.0776,18.5225334 C48.0002667,18.4572 47.9349333,18.2985334 47.8549333,18.2345334 C46.9896,17.0798667 45.6136,16.2798666 44.0136,16.2798666 L33.4429333,16.2798666 L33.4429333,13.3545332 C33.4429333,11.8731999 32.3416,10.6665332 30.9776,10.6665332 L2.4656,10.6665332 C1.1016,10.6665332 0.00026666666,11.8731999 0.00026666666,13.3545332 L0.00026666666,31.7292004 L0.00026666666,41.6958674 L0.00026666666,42.3385341 L0.00026666666,45.0932008 C0.00026666666,46.6132008 1.2336,47.7692009 2.67493333,47.7692009 L6.5176,47.7692009 C7.38293333,50.8105343 10.1376,52.9745344 13.4682667,52.9745344 C16.8002667,52.9745344 19.5536,50.7318676 20.4202667,47.7692009 L29.1802667,47.7692009 L44.0922667,47.7692009 C44.9576,50.8105343 47.7109333,52.9745344 51.0429333,52.9745344 C54.3736,52.9745344 57.1269333,50.7318676 57.9936,47.7692009 L61.3242667,47.7692009 C62.8469333,47.7692009 64.0002667,46.5358675 64.0002667,45.0932008 L64.0002667,41.6958674 C64.0002667,40.306534 62.9109333,39.1518673 61.6136,39.0078673 L61.6136,39.0078673 Z" id="Forma"></path>
                </g>
            </g>
        </g>
    </g>
</svg>