<?xml version="1.0" encoding="UTF-8"?>
<svg width="36px" height="35px" viewBox="0 0 36 35" version="1.1" xmlns="http://www.w3.org/2000/svg" xmlns:xlink="http://www.w3.org/1999/xlink">
    <!-- Generator: sketchtool 53.2 (72643) - https://sketchapp.com -->
    <title>795564E8-F388-46F8-B58D-9C55751515B4</title>
    <desc>Created with sketchtool.</desc>
    <g id="Comprar-producto-(Desktop-|-1280)" stroke="none" stroke-width="1" fill="none" fill-rule="evenodd">
        <g id="[3]-Comprar-producto-(Desktop-|-1280)" transform="translate(-1070.000000, -12.000000)" fill="#ffffff" fill-rule="nonzero">
            <g id="Páginas-/-Desktop-/-Inicio">
                <g id="Componentes-/-Header">
                    <g id="Group-17" transform="translate(1069.000000, 12.000000)">
                        <g id="Átomos-/-Íconos-/-Perfil-Copy" transform="translate(1.000000, 0.000000)">
                            <path d="M33.3807752,8.81812491 L32.8670252,10.8873748 L29.8902751,10.8873748 L30.5225251,7.88062495 L32.6517752,7.88062495 C32.9712752,7.88062495 33.1580252,8.05912494 33.2397752,8.17012494 C33.3290252,8.28187493 33.4625252,8.51287492 33.3807752,8.81812491 L33.3807752,8.81812491 Z M31.5350255,16.268625 L28.7592755,16.268625 L29.3472755,13.484625 L32.2272756,13.484625 L31.5350255,16.268625 Z M30.3815241,20.9276247 C30.2997741,21.2628747 30.0020241,21.5006247 29.6517741,21.5006247 L27.6575242,21.5006247 L28.2155242,18.8733746 L30.8952741,18.8733746 L30.3815241,20.9276247 Z M22.9610248,10.894875 L22.9610248,7.88737482 L27.873525,7.88737482 L27.240525,10.894875 L22.9610248,10.894875 Z M26.1095247,16.268625 L22.9610248,16.268625 L22.9610248,13.484625 L26.6975247,13.484625 L26.1095247,16.268625 Z M25.0077749,21.4931248 L22.9610248,21.4931248 L22.9610248,18.8651249 L25.5582749,18.8651249 L25.0077749,21.4931248 Z M20.3637757,10.894875 L16.2102757,10.894875 L15.5480257,7.88737482 L20.3637757,7.88737482 L20.3637757,10.894875 Z M20.363775,16.268625 L17.386275,16.268625 L16.775775,13.484625 L20.363775,13.484625 L20.363775,16.268625 Z M20.3637757,21.4931248 L18.5330256,21.4931248 L17.9517756,18.8651249 L20.3562757,18.8651249 L20.3562757,21.4931248 L20.3637757,21.4931248 Z M13.8807747,21.4931243 C13.5462747,21.4931243 13.2485247,21.2703743 13.1592747,20.9426243 L12.5705248,18.8583743 L15.3027747,18.8583743 L15.8825247,21.4856243 L13.8807747,21.4856243 L13.8807747,21.4931243 Z M11.0600248,13.484625 L14.1267748,13.484625 L14.7365248,16.268625 L11.8415248,16.268625 L11.0600248,13.484625 Z M10.3310247,10.8948749 L9.74977468,8.84812495 C9.66127468,8.53537496 9.78727468,8.30437497 9.87652467,8.19262498 C9.95902467,8.08162498 10.1517747,7.89487499 10.4720246,7.89487499 L12.8982746,7.89487499 L13.5605245,10.9016249 L10.3310247,10.9016249 L10.3310247,10.8948749 Z M15.0050246,29.3973743 C15.7047746,29.3973743 16.2777746,29.9703743 16.2777746,30.6701244 C16.2777746,31.3691244 15.7047746,31.9428744 15.0050246,31.9428744 C14.3052746,31.9428744 13.7322746,31.3691244 13.7322746,30.6701244 C13.7322746,29.9703743 14.2977746,29.3973743 15.0050246,29.3973743 L15.0050246,29.3973743 Z M26.8317743,29.3973743 C27.5307743,29.3973743 28.1045243,29.9703743 28.1045243,30.6701244 C28.1045243,31.3691244 27.5307743,31.9428744 26.8317743,31.9428744 C26.1320243,31.9428744 25.5582743,31.3691244 25.5582743,30.6701244 C25.5582743,29.9703743 26.1237743,29.3973743 26.8317743,29.3973743 L26.8317743,29.3973743 Z M35.2490249,6.52537493 C34.6017749,5.73712494 33.6192749,5.29762494 32.5992749,5.29762494 L10.472025,5.29762494 C9.83902498,5.29762494 9.23677498,5.47612494 8.71552498,5.79637493 L7.58377499,1.84387496 C7.39777499,1.19662497 6.81052499,0.750374973 6.14002499,0.750374973 L4.42102499,0.750374973 L1.139025,0.750374973 C0.513524999,0.750374973 -0.000225000011,1.25587497 -0.000225000011,1.88887496 L-0.000225000011,2.00737496 C-0.000225000011,2.63287496 0.506024999,3.14662495 1.139025,3.14662495 L5.44102499,3.14662495 L7.63627499,10.9098749 L10.658025,21.6191248 C8.93902498,22.0518748 7.66627499,23.6073748 7.66627499,25.4531248 C7.66627499,27.5441248 9.29602498,29.2638748 11.357775,29.3973748 C11.186775,29.8886248 11.104275,30.4316247 11.149275,30.9896247 C11.298525,32.8803747 12.839025,34.4066247 14.729025,34.5326247 C16.984275,34.6893747 18.867525,32.8961247 18.867525,30.6776247 C18.867525,30.2313747 18.793275,29.8061248 18.651525,29.4048748 L23.177025,29.4048748 C22.990275,29.9328748 22.916775,30.5208747 22.983525,31.1238747 C23.192025,32.9553747 24.703275,34.3983747 26.5490249,34.5326247 C28.8035249,34.6893747 30.6942749,32.9028747 30.6942749,30.6776247 C30.6942749,28.5266248 28.9077749,26.8068748 26.7642749,26.8068748 L11.648025,26.8068748 C10.911525,26.8068748 10.286025,26.2346248 10.256025,25.5048748 C10.226025,24.7308748 10.844025,24.0978748 11.610525,24.0978748 L13.880775,24.0978748 L26.183775,24.0978748 L29.6450249,24.0978748 C31.1772749,24.0978748 32.5182749,23.0486248 32.8902749,21.5598748 L35.8962749,9.45787491 C36.1572749,8.41612491 35.9195249,7.35187492 35.2490249,6.52537493 L35.2490249,6.52537493 Z" id="Forma"></path>
                        </g>
                    </g>
                </g>
            </g>
        </g>
    </g>
</svg>