<?xml version="1.0" encoding="UTF-8"?>
<svg width="54px" height="64px" viewBox="0 0 54 64" version="1.1" xmlns="http://www.w3.org/2000/svg" xmlns:xlink="http://www.w3.org/1999/xlink">
    <!-- Generator: sketchtool 53.2 (72643) - https://sketchapp.com -->
    <title>71B0D9F9-2E82-4358-A636-7821F7CB85A3</title>
    <desc>Created with sketchtool.</desc>
    <g id="Comprar-producto-(Desktop-|-1280)" stroke="none" stroke-width="1" fill="none" fill-rule="evenodd">
        <g id="[1]-Comprar-producto-(Desktop-|-1280)" transform="translate(-305.000000, -3136.000000)" fill="#002c76" fill-rule="nonzero">
            <g id="Páginas-/-Desktop-/-Inicio">
                <g id="Átomos-/-Íconos-/-Truck-1" transform="translate(300.000000, 3136.000000)">
                    <path d="M14.2286668,32.356933 C14.3473334,31.9075996 14.4793334,31.4582663 14.6126668,31.008933 C14.7713334,30.492933 14.9166668,30.4275997 15.3926668,30.6782663 C16.1980001,31.100933 17.0580001,31.3395997 17.9700001,31.444933 C18.5513334,31.5115997 19.1193334,31.4582663 19.6620001,31.2195997 C20.6660001,30.7835997 20.8246667,29.620933 19.9780001,28.9195997 C19.6873334,28.6822664 19.3580001,28.5102664 19.0140001,28.3515997 C18.1273334,27.9689331 17.2166668,27.6649331 16.3833334,27.1755997 C15.0353334,26.3689331 14.1753334,25.2595998 14.2820001,23.6195998 C14.4006668,21.7702665 15.4446668,20.6062665 17.1500001,19.9849332 C17.8500001,19.7342665 17.8500001,19.7342665 17.8633334,19.0075999 L17.8633334,18.2675999 C17.8766668,17.7115999 17.9700001,17.6195999 18.5246667,17.6062666 L19.0393334,17.6062666 C20.2166667,17.6062666 20.2166667,17.6062666 20.2166667,18.7822665 C20.2166667,19.6155999 20.2166667,19.6155999 21.0486667,19.7475999 C21.6833334,19.8395999 22.2913334,20.0382665 22.8726667,20.2889332 C23.1900001,20.4342665 23.3220001,20.6595998 23.2166667,21.0022665 C23.0713334,21.5049332 22.9260001,22.0209332 22.7673334,22.5235998 C22.6086667,22.9982665 22.4633334,23.0649331 22.0006667,22.8395998 C21.0886667,22.3902665 20.1233334,22.2062665 19.1060001,22.2715998 C18.8420001,22.2849332 18.5780001,22.3249331 18.3393334,22.4302665 C17.4673334,22.8142665 17.3220001,23.7782665 18.0620001,24.3729331 C18.4313334,24.6769331 18.8673334,24.8889331 19.3180001,25.0742664 C20.0966667,25.3915998 20.8766667,25.7089331 21.6046667,26.1049331 C23.9433334,27.4009331 24.578,30.3475997 22.9260001,32.3435996 C22.3313334,33.0702663 21.5513334,33.5595996 20.6526667,33.7982663 C20.2566667,33.9035996 20.0846667,34.1155996 20.0966667,34.5235996 C20.1113334,34.9209329 20.0966667,35.3315996 20.0966667,35.7409329 C20.0966667,36.0969329 19.9126667,36.2969329 19.5553334,36.2969329 C19.1193334,36.3089329 18.6833334,36.3089329 18.2473334,36.2969329 C17.8633334,36.2822662 17.6913334,36.0715996 17.6780001,35.7009329 C17.6780001,35.4102663 17.6780001,35.1062663 17.6660001,34.8155996 C17.6526668,34.1675996 17.6393334,34.1409329 17.0180001,34.0355996 C16.2113334,33.9035996 15.4313334,33.7315996 14.7046668,33.3742663 C14.1233334,33.096933 14.0700001,32.9515996 14.2286668,32.356933 M19.0006669,40.6049327 C26.5473336,40.6049327 32.6673336,34.4849329 32.6673336,26.9382664 C32.6673336,19.3902666 26.5473336,13.2702668 19.0006669,13.2702668 C15.0620003,13.2702668 11.5193336,14.9369334 9.02066694,17.5929333 C6.73400027,20.0382666 5.33400027,23.3155998 5.33400027,26.9249331 C5.34600027,34.4982662 11.4526669,40.6049327 19.0006669,40.6049327 M34.0420001,18.240933 C37.4393335,16.7862664 39.8180002,13.4155998 39.8180002,9.50359983 C39.8180002,4.25559992 35.5620001,-0.000400000019 30.3140001,-0.000400000019 C25.0673334,-0.000400000019 20.8113333,4.25559992 20.8113333,9.50359983 C20.8113333,9.55559983 20.8246667,9.60893316 20.8246667,9.66226649 C26.4686667,10.2435998 31.3193334,13.5489331 34.0420001,18.240933 M45.7406665,35.8329327 C44.6553332,35.8329327 43.7699998,34.9475994 43.7699998,33.8635994 C43.7699998,32.7795994 44.6553332,31.894266 45.7406665,31.894266 C46.8233332,31.894266 47.7086665,32.7795994 47.7086665,33.8635994 C47.7086665,34.9475994 46.8233332,35.8329327 45.7406665,35.8329327 M55.5606679,35.502268 C54.9126679,35.3449346 54.2913346,35.3969346 53.7366679,35.5809346 C52.6526679,31.5902678 50.3660012,28.1009343 47.2726678,25.5236008 C46.7980011,23.4222674 47.5500011,21.504934 48.4233345,20.1049339 C49.0566678,19.0862672 48.2113345,17.7516005 47.0086678,17.9102672 C43.2953344,18.3729339 41.166001,20.1049339 39.978001,21.6636007 C38.4046676,21.2142673 36.7526676,20.9636006 35.0460009,20.9236006 C35.7473342,22.8009341 36.1446676,24.8236008 36.1446676,26.9502676 C36.1446676,36.3889347 28.4646674,44.0676017 19.0140006,44.0676017 C15.2860005,44.0676017 11.8233338,42.8649349 9.00733376,40.8289349 C9.02066709,46.7249351 11.5860005,52.011602 15.6566672,55.6462688 C17.0046672,56.8502689 17.8113339,58.554269 17.8113339,60.3649357 L17.8113339,62.7049358 C17.8113339,63.4182692 18.3926673,63.9996025 19.1060006,63.9996025 L27.0500007,63.9996025 C27.7633341,63.9996025 28.3446674,63.4182692 28.3446674,62.7049358 L28.3446674,60.6822691 C28.5300008,60.6822691 28.7020008,60.6956024 28.8873341,60.6956024 L34.5180009,60.6956024 L34.6233342,60.6956024 L34.6233342,62.7049358 C34.6233342,63.4182692 35.2046676,63.9996025 35.9193342,63.9996025 L43.8633344,63.9996025 C44.5766677,63.9996025 45.1580011,63.4182692 45.1580011,62.7049358 L45.1580011,60.8142691 C45.1580011,58.9116023 46.0180011,57.1396022 47.4580011,55.8982689 C50.4446678,53.3329354 52.6660012,49.8969353 53.7233345,45.9702684 C54.2780012,46.1556018 54.8993346,46.2089351 55.5473346,46.0502684 C57.0286679,45.6809351 58.044668,44.304935 58.044668,42.7729349 L58.044668,38.7942681 C58.0580013,37.2609347 57.0540013,35.8596013 55.5606679,35.502268" id="Forma"></path>
                </g>
            </g>
        </g>
    </g>
</svg>