<?xml version="1.0" encoding="UTF-8"?>
<svg width="104px" height="140px" viewBox="0 0 104 140" version="1.1" xmlns="http://www.w3.org/2000/svg" xmlns:xlink="http://www.w3.org/1999/xlink">
    <!-- Generator: sketchtool 53.2 (72643) - https://sketchapp.com -->
    <title>51A35929-D69D-4C84-B15C-38B0224B4654</title>
    <desc>Created with sketchtool.</desc>
    <g id="Comprar-producto-(Desktop-|-1280)" stroke="none" stroke-width="1" fill="none" fill-rule="evenodd">
        <g id="[5.4]-Comprar-producto-(Desktop-|-1280)" transform="translate(-473.000000, -260.000000)" fill="#A4A4A4" fill-rule="nonzero">
            <g id="Páginas-/-Desktop-/-Inicio">
                <g id="Componentes-/-Desktop-/-Checkout-/-Contenido-/-D" transform="translate(170.000000, 144.000000)">
                    <g id="Atoms/Images/Default/M/Normal-Copy-2" style="mix-blend-mode: multiply;" transform="translate(286.000000, 116.000000)">
                        <path d="M91.505458,56.5267503 C88.0171246,56.5267503 85.1821246,53.694667 85.1821246,50.2063336 C85.1821246,46.7150836 88.0171246,43.8830002 91.505458,43.8830002 C94.9937913,43.8830002 97.8258747,46.7150836 97.8258747,50.2063336 C97.796708,53.7238336 94.9937913,56.5267503 91.505458,56.5267503 L91.505458,56.5267503 Z M85.0975432,34.5555004 L52.9442094,34.5555004 L52.9442094,29.8363336 C52.9442094,20.9696668 60.1512928,13.7596667 69.0208763,13.7596667 C77.8875431,13.7596667 85.0975432,20.9696668 85.0975432,29.8363336 L85.0975432,34.5555004 Z M46.5362919,56.5267503 C43.045042,56.5267503 40.2129587,53.694667 40.2129587,50.2063336 C40.2129587,46.7150836 43.045042,43.8830002 46.5362919,43.8830002 C50.0246252,43.8830002 52.8596252,46.7150836 52.8596252,50.2063336 C52.8596252,53.7238336 50.0246252,56.5267503 46.5362919,56.5267503 L46.5362919,56.5267503 Z M98.8583728,34.5555 L98.8583728,29.8363333 C98.8583728,13.3863333 85.4708731,0.00175000008 69.0208735,0.00175000008 C52.5708739,0.00175000008 39.1833743,13.3863333 39.1833743,29.8363333 L39.1833743,34.5555 L17.5008748,34.5555 L17.5008748,121.177583 C17.5008748,131.560917 25.9387913,140.00175 36.325041,140.00175 L101.716706,140.00175 C112.102956,140.00175 120.540872,131.560917 120.540872,121.177583 L120.540872,34.5555 L98.8583728,34.5555 Z" id="Forma"></path>
                    </g>
                </g>
            </g>
        </g>
    </g>
</svg>