<?xml version="1.0" encoding="UTF-8"?>
<svg width="60px" height="64px" viewBox="0 0 60 64" version="1.1" xmlns="http://www.w3.org/2000/svg" xmlns:xlink="http://www.w3.org/1999/xlink">
    <!-- Generator: sketchtool 53.2 (72643) - https://sketchapp.com -->
    <title>150F2777-9F55-42B7-8039-8BC2A95C86EE</title>
    <desc>Created with sketchtool.</desc>
    <g id="Comprar-producto-(Desktop-|-1280)" stroke="none" stroke-width="1" fill="none" fill-rule="evenodd">
        <g id="[1]-Comprar-producto-(Desktop-|-1280)" transform="translate(-620.000000, -3136.000000)" fill="#002c76" fill-rule="nonzero">
            <g id="Páginas-/-Desktop-/-Inicio">
                <g id="Átomos-/-Íconos-/-Truck-1-Copy" transform="translate(618.000000, 3136.000000)">
                    <path d="M15.7647997,35.6169334 C15.4861331,34.3436001 15.7647997,33.0156001 16.5354664,31.9662668 L16.6007997,31.8876002 L16.5474664,31.8076002 C15.8447997,30.7982669 15.5794664,29.5636002 15.8047997,28.3556003 L3.28613335,28.3556003 C2.72880003,28.3556003 2.46346671,29.0196002 2.8474667,29.4182669 L5.4901333,32.0996001 L2.91413336,34.5822667 C2.5154667,34.9676001 2.78213337,35.6569334 3.33946669,35.6569334 L15.7647997,35.6569334 L15.7647997,35.6169334 Z M58.8554668,32.0996001 L61.4981335,29.4049333 C61.8834668,29.0062667 61.6048001,28.3422666 61.0608001,28.3422666 L48.5688001,28.3422666 C48.7928001,29.5369333 48.5274667,30.7849334 47.8248001,31.7942668 L47.7714667,31.8742668 L47.8381334,31.9529334 C48.6088001,33.0022668 48.8874667,34.3289336 48.6088001,35.6036003 C48.6088001,35.6169336 48.5941334,35.6316003 48.5941334,35.6449336 L61.0194668,35.6449336 C61.5768001,35.6449336 61.8568001,34.9676002 61.4461335,34.5689336 L58.8554668,32.0996001 Z M34.5887998,61.3182674 L32.1727999,61.3182674 L29.7567999,61.3182674 C29.0408,61.3182674 28.4568,60.7209341 28.4568,59.9782675 C28.4568,59.7116008 28.5221333,59.4742675 28.6554666,59.2742675 C28.7088,59.1809342 28.7741333,59.1009342 28.8408,59.0342675 C29.0794666,58.7969342 29.3994666,58.6369342 29.7567999,58.6369342 L32.1727999,58.6369342 L34.5887998,58.6369342 C34.9487998,58.6369342 35.2661331,58.7822675 35.5061331,59.0342675 C35.5714664,59.1009342 35.6381331,59.1942675 35.6901331,59.2742675 C35.8101331,59.4742675 35.8901331,59.7249341 35.8901331,59.9782675 C35.8901331,60.7209341 35.3061331,61.3182674 34.5887998,61.3182674 L34.5887998,61.3182674 Z M54.1181331,38.4196007 L49.5114664,38.4196007 L49.5114664,55.9689336 C49.4581331,55.9809336 49.3914664,55.9809336 49.3381331,55.9809336 L32.1727999,55.9809336 L15.0208,55.9809336 C14.9554666,55.9809336 14.9021333,55.9689336 14.8488,55.9689336 L14.8488,38.4196007 L10.2288,38.4196007 L10.2288,52.5569337 L10.2288,58.8489335 C10.2288,61.6902667 12.4594666,63.9996 15.2074666,63.9996 L23.9687999,63.9996 L32.1594665,63.9996 L40.3501331,63.9996 L49.1127998,63.9996 C51.8594664,63.9996 54.0901331,61.6902667 54.0901331,58.8489335 L54.0901331,52.5569337 L54.0901331,38.4196007 L54.1181331,38.4196007 Z M10.2288,25.5942655 L14.8354664,25.5942655 L14.8354664,6.97026636 L14.8487997,6.97026636 C14.9021331,6.97026636 14.9554664,6.95559969 15.0087997,6.95559969 L32.1727988,6.95559969 L49.3247979,6.95559969 C49.3781312,6.95559969 49.4314645,6.95559969 49.4834645,6.97026636 L49.4981312,6.97026636 L49.4981312,25.5809322 L54.1034643,25.5809322 L54.1034643,6.09293306 L54.1034643,5.16359977 C54.1034643,3.02626653 52.8434644,1.19559995 51.0514644,0.411599982 C50.4541311,0.14626666 49.8021312,-0.000400000019 49.1127979,-0.000400000019 L32.1727988,0.0129333327 L15.2207997,0.0129333327 C14.5301331,0.0129333327 13.8794664,0.159599993 13.2821331,0.424933314 C11.4901332,1.20759995 10.2288,3.03959986 10.2288,5.1769331 L10.2288,6.10626639 L10.2288,25.5942655 Z M35.5714654,36.6796005 C35.0541321,37.3036005 34.3767987,37.7289338 33.5941321,37.9409338 C33.2487988,38.0329338 33.1021321,38.2196005 33.1154654,38.5649338 C33.1287988,38.9102671 33.1154654,39.2676004 33.1154654,39.6129338 C33.1154654,39.9316004 32.9567988,40.0902671 32.6514654,40.1036004 C32.2794654,40.1182671 31.8941321,40.1182671 31.5221321,40.1036004 C31.1901321,40.1036004 31.0314655,39.9062671 31.0314655,39.5876004 C31.0314655,39.3342671 31.0314655,39.0689338 31.0181321,38.8169338 C31.0181321,38.2582671 30.9914655,38.2329338 30.4474655,38.1409338 C29.7567988,38.0329338 29.0674655,37.8742671 28.4301322,37.5689338 C27.9247989,37.3302672 27.8847989,37.1982672 28.0181322,36.6796005 C28.1247989,36.2942672 28.2301322,35.8969339 28.3501322,35.5116005 C28.4954655,35.0596006 28.6154655,35.0062672 29.0274655,35.2196005 C29.7301322,35.5902672 30.4741322,35.7902672 31.2567988,35.8822672 C31.7621321,35.9489339 32.2527988,35.8969339 32.7167988,35.6982672 C33.5941321,35.3116005 33.7274654,34.3036006 32.9834654,33.7049339 C32.7314654,33.4929339 32.4527988,33.3476006 32.1474655,33.2142673 C31.3901321,32.8822673 30.5794655,32.616934 29.8634655,32.192934 C28.6954655,31.488934 27.9514655,30.532934 28.0314655,29.0996007 C28.1247989,27.4929341 29.0407988,26.4836008 30.5141322,25.9529341 C31.1247988,25.7276008 31.1247988,25.7409342 31.1247988,25.1036008 L31.1247988,24.4529342 C31.1381321,23.9756009 31.2167988,23.8956009 31.6954655,23.8822675 L32.1327988,23.8822675 C33.1554654,23.8822675 33.1554654,23.8822675 33.1554654,24.9049342 C33.1554654,25.6209342 33.1554654,25.6209342 33.8727987,25.7409342 C34.4167987,25.8196008 34.9487987,25.9929341 35.4527987,26.2182675 C35.7314654,26.3382675 35.838132,26.5369341 35.7567987,26.8289341 C35.6247987,27.2676008 35.506132,27.7049341 35.3727987,28.1436008 C35.2394654,28.5556007 35.1074654,28.6209341 34.7087987,28.4222674 C33.9114654,28.0369341 33.0754654,27.8782674 32.1994655,27.9316008 C31.9741321,27.9449341 31.7487988,27.9716008 31.5367988,28.0636008 C30.7794655,28.3956007 30.6594655,29.2316007 31.2967988,29.7502674 C31.6287988,30.0156007 32.0007988,30.200934 32.3861321,30.360934 C33.0634654,30.6396007 33.7394654,30.904934 34.3767987,31.2636007 C36.4607987,32.3916006 37.006132,34.9396006 35.5714654,36.6796005 L35.5714654,36.6796005 Z M44.4127999,36.5996008 L45.0501333,36.2556008 C46.0181332,35.7236008 46.2981332,34.4622675 45.6474666,33.5596008 L45.2234666,32.9756008 C44.7581333,32.3382674 44.7447999,31.4756007 45.2101333,30.8382674 L45.6221333,30.2542674 C46.2581332,29.3516007 45.9661332,28.0902674 44.9834666,27.572934 L44.3474666,27.2276007 C43.6568,26.8556007 43.2714666,26.0862673 43.4034666,25.3022673 L43.5234666,24.5862673 C43.7088,23.496934 42.9008,22.4876006 41.7848,22.448934 L41.0688,22.4222673 C40.2848,22.3822673 39.6074667,21.8516006 39.3821334,21.0942673 L39.1821334,20.4036006 C38.8768,19.3422672 37.7088001,18.7982672 36.6861334,19.2222672 L36.0221334,19.5009339 C35.2928001,19.8062673 34.4568001,19.6209339 33.9248001,19.0369339 L33.4474668,18.4929339 C32.7048002,17.6702672 31.4168002,17.6822672 30.6994669,18.5196006 L30.2221335,19.0636006 C29.7048002,19.6609339 28.8674669,19.8596006 28.1381336,19.5542673 L27.4741336,19.2756006 C26.4514669,18.8502672 25.2968003,19.4222673 25.0048003,20.4836006 L24.819467,21.1742673 C24.6061336,21.9302673 23.9421336,22.4756006 23.159467,22.528934 L22.4421337,22.5676006 C21.3408004,22.6342673 20.543467,23.6436006 20.743467,24.7316007 L20.875467,25.448934 C21.0221337,26.2182673 20.6501337,27.0022674 19.9594671,27.3876007 L19.3221337,27.7316007 C18.3541337,28.2622674 18.0741338,29.5249341 18.7261337,30.4262674 L19.1501337,31.0102674 C19.6154671,31.6476007 19.6274671,32.5102674 19.1634671,33.1476008 L18.7514671,33.7329341 C18.1154671,34.6356008 18.4061337,35.8969341 19.3888004,36.4142675 L20.0261337,36.7582675 C20.7168004,37.1316008 21.1008004,37.9009342 20.9688004,38.6849342 L20.8488004,39.4009342 C20.663467,40.4889342 21.4728004,41.4982675 22.5888003,41.5382675 L23.3048003,41.5649342 C24.0888003,41.6049342 24.7648003,42.1356009 24.991467,42.8929342 L25.1901336,43.5836009 C25.4954669,44.6449343 26.6634669,45.1889343 27.6861336,44.7636009 L28.3501336,44.4849343 C29.0794669,44.1796009 29.9168002,44.3662676 30.4474669,44.9502676 L30.9261335,45.4942676 C31.6688002,46.3169343 32.9568001,46.3049343 33.6741335,45.4676009 L34.1514668,44.9222676 C34.6688001,44.3262676 35.5061334,44.1276009 36.2354668,44.4316009 L36.8994667,44.7102676 C37.9208001,45.1369343 39.0754667,44.5649343 39.3688,43.5036009 L39.5541334,42.8116009 C39.7661334,42.0556009 40.4301333,41.5116009 41.2141333,41.4582675 L41.9301333,41.4196009 C43.0328,41.3529342 43.8288,40.3436009 43.6288,39.2556009 L43.4968,38.5369342 C43.3501333,37.7676008 43.7234666,36.9849342 44.4127999,36.5996008 L44.4127999,36.5996008 Z" id="Forma"></path>
                </g>
            </g>
        </g>
    </g>
</svg>