<?xml version="1.0" encoding="UTF-8"?>
<svg width="48px" height="48px" viewBox="0 0 48 48" version="1.1" xmlns="http://www.w3.org/2000/svg" xmlns:xlink="http://www.w3.org/1999/xlink">
    <!-- Generator: sketchtool 53.2 (72643) - https://sketchapp.com -->
    <title>be5921e6-0c43-488e-8269-f145d6386aac@1.00x</title>
    <desc>Created with sketchtool.</desc>
    <g id="Átomos" stroke="none" stroke-width="1" fill="none" fill-rule="evenodd">
        <g id="Átomos-/-Íconos-/-Truck-2" fill="#FFFFFF" fill-rule="nonzero">
            <path d="M16.8789,21.2689 C17.6499,21.2689 18.2749,21.8939 18.2749,22.6649 C18.2749,23.4369 17.6499,24.0619 16.8789,24.0619 C16.1079,24.0619 15.4819,23.4369 15.4819,22.6649 C15.4819,21.8939 16.1079,21.2689 16.8789,21.2689 L16.8789,21.2689 Z M8.0059,15.6029 C8.7779,15.6029 9.4029,16.2289 9.4029,16.9999 C9.4029,17.7709 8.7779,18.3969 8.0059,18.3969 C7.2349,18.3969 6.6099,17.7709 6.6099,16.9999 C6.6099,16.2289 7.2349,15.6029 8.0059,15.6029 L8.0059,15.6029 Z M38.2819,37.0159 C36.7579,37.0159 35.5669,35.7669 35.5669,34.3019 C35.5669,32.8359 36.8159,31.5869 38.2819,31.5869 C39.8069,31.5869 40.9969,32.8359 40.9969,34.3019 C40.9969,35.7669 39.7469,37.0159 38.2819,37.0159 L38.2819,37.0159 Z M28.7999,20.3939 C28.6619,20.3939 28.5439,20.2849 28.5439,20.1379 L28.5439,15.1509 C28.5439,15.0129 28.6519,14.8949 28.7999,14.8949 L33.1079,14.8949 C33.1959,14.8949 33.2749,14.9349 33.3149,15.0029 L36.6689,19.9899 C36.7769,20.1579 36.6589,20.3839 36.4619,20.3839 L28.7999,20.3839 L28.7999,20.3939 Z M16.8789,26.0299 C15.0199,26.0299 13.5149,24.5249 13.5149,22.6649 C13.5149,20.8069 15.0199,19.3019 16.8789,19.3019 C18.7379,19.3019 20.2429,20.8069 20.2429,22.6649 C20.2429,24.5249 18.7379,26.0299 16.8789,26.0299 L16.8789,26.0299 Z M10.1019,37.0159 C8.5769,37.0159 7.3869,35.7669 7.3869,34.3019 C7.3869,32.8359 8.6359,31.5869 10.1019,31.5869 C11.6269,31.5869 12.8169,32.8359 12.8169,34.3019 C12.8169,35.7669 11.6269,37.0159 10.1019,37.0159 L10.1019,37.0159 Z M7.3969,24.6329 L16.2199,13.9999 C16.5049,13.6559 17.0259,13.6069 17.3799,13.8919 C17.7249,14.1769 17.7739,14.6989 17.4879,15.0529 L8.6559,25.6849 C8.3709,26.0299 7.8489,26.0789 7.4949,25.7929 C7.1409,25.5079 7.1019,24.9869 7.3969,24.6329 L7.3969,24.6329 Z M4.6429,16.9999 C4.6429,15.1409 6.1479,13.6359 8.0059,13.6359 C9.8659,13.6359 11.3709,15.1409 11.3709,16.9999 C11.3709,18.8589 9.8659,20.3639 8.0059,20.3639 C6.1479,20.3639 4.6429,18.8589 4.6429,16.9999 L4.6429,16.9999 Z M46.2099,29.2559 L46.2099,24.1019 C46.2099,22.1439 44.6359,20.5709 42.6789,20.5709 L40.2389,20.1869 L36.0589,13.8919 C35.9999,13.8429 35.9509,13.7249 35.8919,13.6759 C35.2419,12.8099 34.2099,12.2099 33.0099,12.2099 L25.0819,12.2099 L25.0819,10.0169 C25.0819,8.9049 24.2559,7.9999 23.2329,7.9999 L1.8489,7.9999 C0.8259,7.9999 -0.0001,8.9049 -0.0001,10.0169 L-0.0001,23.7969 L-0.0001,31.2719 L-0.0001,31.7539 L-0.0001,33.8199 C-0.0001,34.9599 0.9249,35.8269 2.0059,35.8269 L4.8889,35.8269 C5.5379,38.1079 7.6039,39.7309 10.1019,39.7309 C12.5999,39.7309 14.6659,38.0489 15.3149,35.8269 L21.8849,35.8269 L33.0689,35.8269 C33.7179,38.1079 35.7829,39.7309 38.2819,39.7309 C40.7799,39.7309 42.8459,38.0489 43.4949,35.8269 L45.9929,35.8269 C47.1349,35.8269 47.9999,34.9019 47.9999,33.8199 L47.9999,31.2719 C47.9999,30.2299 47.1839,29.3639 46.2099,29.2559 L46.2099,29.2559 Z" id="Forma"></path>
        </g>
    </g>
</svg>