<?xml version="1.0" encoding="UTF-8"?>
<svg width="48px" height="48px" viewBox="0 0 48 48" version="1.1" xmlns="http://www.w3.org/2000/svg" xmlns:xlink="http://www.w3.org/1999/xlink">
    <!-- Generator: sketchtool 53.2 (72643) - https://sketchapp.com -->
    <title>f03c2aed-065d-4956-b01f-d6f2c343278a@1.00x</title>
    <desc>Created with sketchtool.</desc>
    <g id="Átomos" stroke="none" stroke-width="1" fill="none" fill-rule="evenodd">
        <g id="Átomos-/-Íconos-/-Piggy-Bank" fill="#FFFFFF" fill-rule="nonzero">
            <path d="M10.6715,24.2677 C10.7605,23.9307 10.8595,23.5937 10.9595,23.2567 C11.0785,22.8697 11.1875,22.8207 11.5445,23.0087 C12.1485,23.3257 12.7935,23.5047 13.4775,23.5837 C13.9135,23.6337 14.3395,23.5937 14.7465,23.4147 C15.4995,23.0877 15.6185,22.2157 14.9835,21.6897 C14.7655,21.5117 14.5185,21.3827 14.2605,21.2637 C13.5955,20.9767 12.9125,20.7487 12.2875,20.3817 C11.2765,19.7767 10.6315,18.9447 10.7115,17.7147 C10.8005,16.3277 11.5835,15.4547 12.8625,14.9887 C13.3875,14.8007 13.3875,14.8007 13.3975,14.2557 L13.3975,13.7007 C13.4075,13.2837 13.4775,13.2147 13.8935,13.2047 L14.2795,13.2047 C15.1625,13.2047 15.1625,13.2047 15.1625,14.0867 C15.1625,14.7117 15.1625,14.7117 15.7865,14.8107 C16.2625,14.8797 16.7185,15.0287 17.1545,15.2167 C17.3925,15.3257 17.4915,15.4947 17.4125,15.7517 C17.3035,16.1287 17.1945,16.5157 17.0755,16.8927 C16.9565,17.2487 16.8475,17.2987 16.5005,17.1297 C15.8165,16.7927 15.0925,16.6547 14.3295,16.7037 C14.1315,16.7137 13.9335,16.7437 13.7545,16.8227 C13.1005,17.1107 12.9915,17.8337 13.5465,18.2797 C13.8235,18.5077 14.1505,18.6667 14.4885,18.8057 C15.0725,19.0437 15.6575,19.2817 16.2035,19.5787 C17.9575,20.5507 18.4335,22.7607 17.1945,24.2577 C16.7485,24.8027 16.1635,25.1697 15.4895,25.3487 C15.1925,25.4277 15.0635,25.5867 15.0725,25.8927 C15.0835,26.1907 15.0725,26.4987 15.0725,26.8057 C15.0725,27.0727 14.9345,27.2227 14.6665,27.2227 C14.3395,27.2317 14.0125,27.2317 13.6855,27.2227 C13.3975,27.2117 13.2685,27.0537 13.2585,26.7757 C13.2585,26.5577 13.2585,26.3297 13.2495,26.1117 C13.2395,25.6257 13.2295,25.6057 12.7635,25.5267 C12.1585,25.4277 11.5735,25.2987 11.0285,25.0307 C10.5925,24.8227 10.5525,24.7137 10.6715,24.2677 M14.2505,30.4537 C19.9105,30.4537 24.5005,25.8637 24.5005,20.2037 C24.5005,14.5427 19.9105,9.9527 14.2505,9.9527 C11.2965,9.9527 8.6395,11.2027 6.7655,13.1947 C5.0505,15.0287 4.0005,17.4867 4.0005,20.1937 C4.0095,25.8737 8.5895,30.4537 14.2505,30.4537 M25.5315,13.6807 C28.0795,12.5897 29.8635,10.0617 29.8635,7.1277 C29.8635,3.1917 26.6715,-0.0003 22.7355,-0.0003 C18.8005,-0.0003 15.6085,3.1917 15.6085,7.1277 C15.6085,7.1667 15.6185,7.2067 15.6185,7.2467 C19.8515,7.6827 23.4895,10.1617 25.5315,13.6807 M34.3055,26.8747 C33.4915,26.8747 32.8275,26.2107 32.8275,25.3977 C32.8275,24.5847 33.4915,23.9207 34.3055,23.9207 C35.1175,23.9207 35.7815,24.5847 35.7815,25.3977 C35.7815,26.2107 35.1175,26.8747 34.3055,26.8747 M41.6705,26.6267 C41.1845,26.5087 40.7185,26.5477 40.3025,26.6857 C39.4895,23.6927 37.7745,21.0757 35.4545,19.1427 C35.0985,17.5667 35.6625,16.1287 36.3175,15.0787 C36.7925,14.3147 36.1585,13.3137 35.2565,13.4327 C32.4715,13.7797 30.8745,15.0787 29.9835,16.2477 C28.8035,15.9107 27.5645,15.7227 26.2845,15.6927 C26.8105,17.1007 27.1085,18.6177 27.1085,20.2127 C27.1085,27.2917 21.3485,33.0507 14.2605,33.0507 C11.4645,33.0507 8.8675,32.1487 6.7555,30.6217 C6.7655,35.0437 8.6895,39.0087 11.7425,41.7347 C12.7535,42.6377 13.3585,43.9157 13.3585,45.2737 L13.3585,47.0287 C13.3585,47.5637 13.7945,47.9997 14.3295,47.9997 L20.2875,47.9997 C20.8225,47.9997 21.2585,47.5637 21.2585,47.0287 L21.2585,45.5117 C21.3975,45.5117 21.5265,45.5217 21.6655,45.5217 L25.8885,45.5217 L25.9675,45.5217 L25.9675,47.0287 C25.9675,47.5637 26.4035,47.9997 26.9395,47.9997 L32.8975,47.9997 C33.4325,47.9997 33.8685,47.5637 33.8685,47.0287 L33.8685,45.6107 C33.8685,44.1837 34.5135,42.8547 35.5935,41.9237 C37.8335,39.9997 39.4995,37.4227 40.2925,34.4777 C40.7085,34.6167 41.1745,34.6567 41.6605,34.5377 C42.7715,34.2607 43.5335,33.2287 43.5335,32.0797 L43.5335,29.0957 C43.5435,27.9457 42.7905,26.8947 41.6705,26.6267" id="Forma"></path>
        </g>
    </g>
</svg>