<?xml version="1.0" encoding="UTF-8"?>
<svg width="48px" height="48px" viewBox="0 0 48 48" version="1.1" xmlns="http://www.w3.org/2000/svg" xmlns:xlink="http://www.w3.org/1999/xlink">
    <!-- Generator: sketchtool 53.2 (72643) - https://sketchapp.com -->
    <title>9b71931b-9a3c-46f2-bd67-40a2c1ba73cd@1.00x</title>
    <desc>Created with sketchtool.</desc>
    <g id="Átomos" stroke="none" stroke-width="1" fill="none" fill-rule="evenodd">
        <g id="Átomos-/-Íconos-/-Credit-Card" fill="#FFFFFF" fill-rule="nonzero">
            <path d="M31.8191,43.3245 C31.4851,43.7365 31.0431,44.0115 30.5321,44.1495 C30.3061,44.2085 30.2081,44.3265 30.2171,44.5615 C30.2271,44.7875 30.2171,45.0135 30.2171,45.2495 C30.2171,45.4555 30.1101,45.5635 29.9141,45.5635 C29.6681,45.5735 29.4231,45.5735 29.1761,45.5635 C28.9611,45.5635 28.8621,45.4355 28.8621,45.2295 L28.8621,44.7285 C28.8621,44.3655 28.8421,44.3455 28.4891,44.2865 C28.0371,44.2185 27.5951,44.1095 27.1821,43.9135 C26.8581,43.7565 26.8191,43.6785 26.9181,43.3345 C26.9861,43.0785 27.0541,42.8235 27.1331,42.5775 C27.2211,42.2825 27.3001,42.2535 27.5761,42.3905 C28.0371,42.6265 28.5181,42.7635 29.0291,42.8235 C29.3531,42.8625 29.6771,42.8335 29.9821,42.6955 C30.5511,42.4495 30.6401,41.7915 30.1591,41.3985 C29.9921,41.2615 29.8151,41.1635 29.6191,41.0845 C29.1181,40.8685 28.5971,40.7015 28.1351,40.4165 C27.3691,39.9645 26.8871,39.3365 26.9471,38.4025 C27.0061,37.3515 27.6051,36.7035 28.5671,36.3495 C28.9611,36.2025 28.9701,36.2125 28.9701,35.7995 L28.9701,35.3775 C28.9801,35.0625 29.0291,35.0135 29.3431,35.0045 L29.6291,35.0045 C30.2971,35.0045 30.2971,35.0045 30.2971,35.6725 C30.2971,36.1425 30.2971,36.1425 30.7681,36.2125 C31.1221,36.2705 31.4651,36.3695 31.7991,36.5165 C31.9861,36.5955 32.0541,36.7225 31.9961,36.9195 C31.9181,37.2045 31.8391,37.4995 31.7411,37.7735 C31.6521,38.0395 31.5631,38.0785 31.3081,37.9605 C30.7881,37.7055 30.2481,37.6065 29.6771,37.6365 C29.5301,37.6455 29.3821,37.6665 29.2461,37.7245 C28.7551,37.9405 28.6661,38.4915 29.0891,38.8255 C29.3041,38.9925 29.5401,39.1195 29.7961,39.2275 C30.2381,39.4045 30.6701,39.5815 31.0921,39.8175 C32.3881,40.5345 32.7531,42.1945 31.8191,43.3245 L31.8191,43.3245 Z M29.5991,32.5575 C25.3361,32.5575 21.8781,36.0155 21.8781,40.2785 C21.8781,44.5425 25.3361,48.0005 29.5991,48.0005 C33.8621,48.0005 37.3201,44.5425 37.3201,40.2785 C37.3201,36.0155 33.8621,32.5575 29.5991,32.5575 L29.5991,32.5575 Z M15.5221,22.0075 L43.6751,22.0075 L43.6751,18.8545 L15.5221,18.8545 L15.5221,22.0075 Z M44.4811,15.0425 L14.7071,15.0425 C13.0471,15.0425 11.7011,16.3885 11.7011,18.0485 L11.7011,39.0805 C11.7011,40.7405 13.0471,42.0865 14.7071,42.0865 L18.7051,42.0865 C18.6071,41.4975 18.5581,40.8975 18.5581,40.2885 C18.5581,39.6005 18.6261,38.9325 18.7441,38.2745 L15.5221,38.2745 L15.5221,28.2065 L43.6751,28.2065 L43.6751,38.2645 L40.4441,38.2645 C40.5621,38.9235 40.6311,39.5915 40.6311,40.2785 C40.6311,40.8875 40.5821,41.4875 40.4831,42.0765 L44.4811,42.0765 C46.1411,42.0765 47.4871,40.7305 47.4871,39.0705 L47.4871,18.0485 C47.4871,16.3885 46.1411,15.0425 44.4811,15.0425 L44.4811,15.0425 Z M38.0561,12.3705 C38.7551,12.3705 38.9511,11.4285 38.3221,11.1425 L13.7741,0.2595 C12.2801,-0.4085 10.5221,0.2595 9.8541,1.7615 L1.2591,21.0345 C0.5911,22.5285 1.2591,24.2865 2.7621,24.9545 L7.7131,27.0955 C8.3321,27.3715 9.0391,26.9195 9.0391,26.2415 L9.0391,18.0585 C9.0391,14.9255 11.5831,12.3805 14.7171,12.3805 L38.0561,12.3805 L38.0561,12.3705 Z" id="Forma"></path>
        </g>
    </g>
</svg>