<?xml version="1.0" encoding="UTF-8"?>
<svg width="30px" height="30px" viewBox="0 0 30 30" version="1.1" xmlns="http://www.w3.org/2000/svg" xmlns:xlink="http://www.w3.org/1999/xlink">
    <!-- Generator: sketchtool 53.2 (72643) - https://sketchapp.com -->
    <title>ED8C86B9-5EAF-414C-8EAC-2436DF99178B</title>
    <desc>Created with sketchtool.</desc>
    <g id="Comprar-producto-(Desktop-|-1280)" stroke="none" stroke-width="1" fill="none" fill-rule="evenodd">
        <g id="[1]-Comprar-producto-(Desktop-|-1280)" transform="translate(-1013.000000, -15.000000)" fill="#ffffff">
            <g id="Páginas-/-Desktop-/-Inicio">
                <g id="Componentes-/-Header">
                    <g id="Group-18" transform="translate(1010.000000, 12.000000)">
                        <g id="Átomos-/-Íconos-/-Perfil">
                            <path d="M17.8274998,6.00075008 C24.2939998,5.91000008 29.7794997,11.1322502 29.9932497,17.5950005 C30.0487497,19.2840005 29.7532497,20.8980006 29.1749997,22.3695006 C28.6064997,23.8185007 26.9857497,24.5580007 25.4999997,24.0937507 L21.7199998,22.9117506 C21.3307498,22.7902506 21.0082498,22.5157506 20.8259998,22.1512506 L20.6114998,21.7230006 C20.3737498,21.2475006 20.2499998,20.7225006 20.2499998,20.1900005 C21.5939998,19.1527505 22.4999998,17.2192504 22.4999998,15.0000004 C22.4999998,11.6857503 20.4847498,9.00000018 17.9999998,9.00000018 C15.5152499,9.00000018 13.4999999,11.6857503 13.4999999,15.0000004 C13.4999999,17.2192504 14.4059999,19.1527505 15.7499999,20.1900005 C15.7499999,20.7225006 15.6262499,21.2475006 15.3884999,21.7230006 L15.1274999,22.2442506 C14.9497499,22.5997506 14.6377499,22.8705006 14.2604999,22.9965006 L10.6102499,24.2130007 C9.13799996,24.7035007 7.50449998,24.0030007 6.90974999,22.5697506 C6.32475,21.1620006 6,19.6200005 6,18.0000005 C6,11.4300003 11.2799999,6.09300008 17.8274998,6.00075008 M18,3 C9.7155,3 3,9.7155 3,18 C3,26.28375 9.7155,33 18,33 C26.2845,33 33,26.28375 33,18 C33,9.7155 26.2845,3 18,3" id="forma"></path>
                        </g>
                    </g>
                </g>
            </g>
        </g>
    </g>
</svg>