<?xml version="1.0" encoding="UTF-8"?>
<svg width="24px" height="24px" viewBox="0 0 24 24" version="1.1" xmlns="http://www.w3.org/2000/svg" xmlns:xlink="http://www.w3.org/1999/xlink">
    <!-- Generator: Sketch 53.2 (72643) - https://sketchapp.com -->
    <title>Fill 1</title>
    <desc>Created with Sketch.</desc>
    <g id="Átomos" stroke="none" stroke-width="1" fill="none" fill-rule="evenodd" opacity="0.687127976">
        <g id="Átomos-/-Inputs-/-Buscador-con-filtro-/-Placeholder" transform="translate(-154.000000, -12.000000)" fill="#A4A4A4">
            <g id="Iconos-/-Gris-/-Buscar" transform="translate(154.000000, 6.000000)">
                <path d="M9.52674751,9.483705 C12.8839323,9.483705 15.56979,12.1698374 15.56979,15.5267475 C15.56979,18.8836576 12.8839323,21.56979 9.52674751,21.56979 C6.1698374,21.56979 3.483705,18.8836576 3.483705,15.5267475 C3.483705,12.1698374 6.1698374,9.483705 9.52674751,9.483705 M9.52674751,6.1875 C4.38823859,6.1875 0.1875,10.3885133 0.1875,15.5267475 C0.1875,20.6652564 4.38823859,24.865995 9.52674751,24.865995 C11.5058439,24.865995 13.3429289,24.243287 14.8572604,23.1835571 L20.9947941,29.329606 C21.6383781,29.9734647 22.6860219,29.9734647 23.329606,29.329606 C23.9734647,28.6860219 23.9734647,27.6386528 23.329606,26.9947941 L17.1835571,20.8575351 C18.243287,19.3429289 18.865995,17.5058439 18.865995,15.5267475 C18.865995,10.3882386 14.6652564,6.1875 9.52674751,6.1875" id="Fill-1"></path>
            </g>
        </g>
    </g>
</svg>