<?xml version="1.0" encoding="UTF-8"?>
<svg width="96px" height="32px" viewBox="0 0 96 32" version="1.1" xmlns="http://www.w3.org/2000/svg" xmlns:xlink="http://www.w3.org/1999/xlink">
    <!-- Generator: sketchtool 53.2 (72643) - https://sketchapp.com -->
    <title>4E40AD1A-2F67-498A-9D06-2029CD8220B4</title>
    <desc>Created with sketchtool.</desc>
    <defs>
        <linearGradient x1="0%" y1="49.9997898%" x2="100%" y2="49.9997898%" id="linearGradient-1">
            <stop stop-color="#001357" offset="0%"></stop>
            <stop stop-color="#004597" offset="100%"></stop>
        </linearGradient>
    </defs>
    <g id="Comprar-producto-(Desktop-|-1280)" stroke="none" stroke-width="1" fill="none" fill-rule="evenodd">
        <g id="[5.4]-Comprar-producto-(Desktop-|-1280)" transform="translate(-420.000000, -700.000000)" fill="url(#linearGradient-1)">
            <g id="Páginas-/-Desktop-/-Inicio">
                <g id="Componentes-/-Desktop-/-Checkout-/-Formas-de-pago" transform="translate(170.000000, 568.000000)">
                    <g id="Moléculas-/-Desktop-/-Ícono-compuesto-/-Medio-de-pago-Copy" transform="translate(228.000000, 76.000000)">
                        <g id="Atoms/Images/Default/M/Normal-Copy-2" style="mix-blend-mode: multiply;" transform="translate(22.000000, 24.000000)">
                            <g id="Fill-2" transform="translate(0.000000, 32.000000)">
                                <path d="M62.7537772,0.236285061 C55.0866664,0.236285061 49.6897777,4.30902363 49.6462222,10.1392741 L49.6462222,10.1392741 C49.595111,14.4540147 53.4977776,16.8584935 56.4382219,18.293188 L56.4382219,18.293188 C59.4591107,19.7611856 60.4728884,20.7029953 60.4613329,22.0160228 L60.4613329,22.0160228 C60.4386662,24.0270818 58.0506663,24.9133864 55.8177775,24.9480215 L55.8177775,24.9480215 C51.9182221,25.0088551 49.6542222,23.8952018 47.8511111,23.0550773 L47.8511111,23.0550773 L46.4466667,29.6202147 C48.2573333,30.4510143 51.603111,31.1761322 55.0728886,31.2116555 L55.0728886,31.2116555 C63.2226661,31.2116555 68.5524437,27.1913137 68.577777,20.9609828 L68.577777,20.9609828 C68.6124437,13.0548434 57.6342219,12.6183517 57.7097774,9.08556624 L57.7097774,9.08556624 C57.7342219,8.01143251 58.7582218,6.8693606 61.000444,6.57673797 L61.000444,6.57673797 C62.1102217,6.4319808 65.1751105,6.32008262 68.6479992,7.91685191 L68.6479992,7.91685191 L70.0111103,1.56485395 C68.1431104,0.887248291 65.742666,0.236285061 62.7537772,0.236285061 Z M83.1164467,0.784230918 C81.6271134,0.784230918 80.3715579,1.64877757 79.8142246,2.9813428 L79.8142246,2.9813428 L68.1742249,30.7431924 L76.3177802,30.7431924 L77.9368913,26.2672652 L87.8880021,26.2672652 L88.8257799,30.7431924 L96.0000019,30.7431924 L89.7377798,0.784230918 L83.1164467,0.784230918 Z M84.2533344,8.8790873 L86.6035566,20.1279629 L80.1693344,20.1279629 L84.2533344,8.8790873 Z M39.7773339,0.784230918 L33.3600006,30.7431924 L41.1182228,30.7431924 L47.5328894,0.784230918 L39.7773339,0.784230918 Z M28.3004444,0.784230918 L20.2266666,21.1750099 L16.96,3.83834076 C16.5782222,1.90188059 15.0644444,0.784230918 13.3831111,0.784230918 L13.3831111,0.784230918 L0.182666666,0.784230918 L0,1.65277393 C2.70888888,2.24201554 5.78799999,3.19048582 7.65244443,4.20200985 L7.65244443,4.20200985 C8.7942222,4.8214462 9.11955554,5.36139932 9.49555554,6.83383727 L9.49555554,6.83383727 L15.6804444,30.7431924 L23.8799999,30.7431924 L36.4484444,0.784230918 L28.3004444,0.784230918 Z" id="Fill-1"></path>
                            </g>
                        </g>
                    </g>
                </g>
            </g>
        </g>
    </g>
</svg>