<?xml version="1.0" encoding="UTF-8"?>
<svg width="96px" height="49px" viewBox="0 0 96 49" version="1.1" xmlns="http://www.w3.org/2000/svg" xmlns:xlink="http://www.w3.org/1999/xlink">
    <!-- Generator: sketchtool 53.2 (72643) - https://sketchapp.com -->
    <title>897DBD57-296C-4FFB-883C-CFA32E6C7185</title>
    <desc>Created with sketchtool.</desc>
    <defs>
        <linearGradient x1="49.9999751%" y1="21.1040264%" x2="49.9999751%" y2="122.837487%" id="linearGradient-1">
            <stop stop-color="#C0CE2E" offset="0%"></stop>
            <stop stop-color="#618E36" offset="100%"></stop>
        </linearGradient>
    </defs>
    <g id="Comprar-producto-(Desktop-|-1280)" stroke="none" stroke-width="1" fill="none" fill-rule="evenodd">
        <g id="[5.4]-Comprar-producto-(Desktop-|-1280)" transform="translate(-762.000000, -692.000000)">
            <g id="Páginas-/-Desktop-/-Inicio">
                <g id="Componentes-/-Desktop-/-Checkout-/-Formas-de-pago" transform="translate(170.000000, 568.000000)">
                    <g id="Moléculas-/-Desktop-/-Ícono-compuesto-/-Medio-de-pago-Copy-3" transform="translate(570.000000, 76.000000)">
                        <g id="Atoms/Images/Default/M/Normal-Copy-2" style="mix-blend-mode: multiply;" transform="translate(22.000000, 24.000000)">
                            <g id="Group" transform="translate(0.000000, 24.000000)">
                                <path d="M4.76404766,12.2736311 C1.46917425,12.2736311 0,13.7387772 0,17.0246167 L0,17.0246167 L0,38.1278088 C0,39.3970073 0.408545748,39.8044329 1.68123368,39.8044329 L1.68123368,39.8044329 L2.09773166,39.8044329 C3.37075093,39.8044329 3.77929668,39.3970073 3.77929668,38.1278088 L3.77929668,38.1278088 L3.77929668,29.917836 L10.9290129,29.917836 C17.2768795,29.917836 20.2334518,27.1137698 20.2334518,21.0955683 L20.2334518,21.0955683 C20.2334518,15.076706 17.2768795,12.2736311 10.9290129,12.2736311 L10.9290129,12.2736311 L4.76404766,12.2736311 Z M3.77929664,17.5229119 C3.77929664,16.2923742 4.23820649,15.8347225 5.47212726,15.8347225 L5.47212726,15.8347225 L10.9290127,15.8347225 C14.4283245,15.8347225 16.4541547,16.6958346 16.4541547,21.0955686 L16.4541547,21.0955686 C16.4541547,24.5343993 15.5737768,26.3980494 10.9290127,26.3980494 L10.9290127,26.3980494 L3.77929664,26.3980494 L3.77929664,17.5229119 Z M81.5345282,12.278918 C78.9573436,12.278918 77.9987687,12.7025349 77.9987687,15.0436626 L77.9987687,15.0436626 L77.9987687,20.5222647 C77.9984374,20.5338299 77.997112,20.5453951 77.997112,20.5569603 L77.997112,20.5569603 L77.997112,21.7577589 C77.9964493,21.7993936 77.9941299,21.8383849 77.9941299,21.8810109 L77.9941299,21.8810109 L77.9941299,29.5355235 C77.9941299,30.4703224 77.8128854,31.2151215 77.4401247,31.7930513 L77.4401247,31.7930513 C76.7376779,32.8729109 75.3467006,33.3636059 73.1204081,33.3665798 L73.1204081,33.3665798 C70.8951095,33.3636059 69.504795,32.8732413 68.8016854,31.794373 L68.8016854,31.794373 C68.4282621,31.2157824 68.2470175,30.4709833 68.2470175,29.5355235 L68.2470175,29.5355235 L68.2470175,21.8810109 C68.2470175,21.8383849 68.2443668,21.7993936 68.2437041,21.7577589 L68.2437041,21.7577589 L68.2437041,20.5569603 C68.2437041,20.5453951 68.2427101,20.5338299 68.2423787,20.5222647 L68.2423787,20.5222647 L68.2423787,15.0436626 C68.2423787,12.7025349 67.2838039,12.278918 64.7066193,12.278918 L64.7066193,12.278918 L63.8951606,12.278918 C61.3176447,12.278918 60.3590698,12.7025349 60.3590698,15.0436626 L60.3590698,15.0436626 L60.3590698,20.5569603 L60.3590698,26.3574056 L60.3590698,29.5355235 C60.3590698,31.8664077 60.8865676,33.8407532 61.9051155,35.4314643 L61.9051155,35.4314643 C63.872298,38.5144172 67.683072,40.1566761 73.1005275,40.1566761 L73.1005275,40.1566761 C73.1071543,40.1566761 73.1137812,40.1563456 73.1204081,40.1563456 L73.1204081,40.1563456 C73.1273663,40.1563456 73.1339931,40.1566761 73.14062,40.1566761 L73.14062,40.1566761 C78.5580754,40.1566761 82.3688495,38.5144172 84.3360319,35.4314643 L84.3360319,35.4314643 C85.3545798,33.8407532 85.8817463,31.8664077 85.8817463,29.5355235 L85.8817463,29.5355235 L85.8817463,26.3574056 L85.8817463,20.5569603 L85.8817463,15.0436626 C85.8817463,12.7025349 84.9231714,12.278918 82.3459868,12.278918 L82.3459868,12.278918 L81.5345282,12.278918 Z M23.618782,18.7468406 C22.5902937,18.9695533 22.1602107,19.2510834 22.1602107,20.4171864 L22.1602107,20.4171864 L22.1602107,20.7496034 C22.1602107,21.2065941 22.228136,21.5231503 22.3735955,21.745863 L22.3735955,21.745863 C22.5432431,22.005254 22.8159382,22.1367669 23.1850542,22.1367669 L23.1850542,22.1367669 C23.3649733,22.1367669 23.5737193,22.106367 23.8225578,22.0445757 L23.8225578,22.0445757 C24.4096974,21.8978629 26.287086,21.5955154 28.3404177,21.5955154 L28.3404177,21.5955154 C32.0282637,21.5955154 33.5322289,22.6142446 33.5322289,25.1116677 L33.5322289,25.1116677 L33.5322289,27.3397867 L28.8818319,27.3397867 C22.9037441,27.3397867 20.1191387,29.3508104 20.1191387,33.6692574 L20.1191387,33.6692574 C20.1191387,37.8581741 22.994532,40.1646061 28.2155014,40.1646061 L28.2155014,40.1646061 C34.4198964,40.1646061 37.1866093,38.0590782 37.1866093,33.3368404 L37.1866093,33.3368404 L37.1866093,25.1116677 C37.1866093,20.5450645 34.2386519,18.3255367 28.1737522,18.3255367 L28.1737522,18.3255367 C25.73043,18.3255367 24.1992947,18.6308581 23.618782,18.7468406 L23.618782,18.7468406 Z M23.7735176,33.6692578 C23.7735176,31.258739 25.2175098,30.319314 28.9235797,30.319314 L28.9235797,30.319314 L33.5322275,30.319314 L33.5322275,33.2122671 C33.5322275,35.5709077 32.6554943,36.9362626 28.1737508,36.9362626 L28.1737508,36.9362626 C25.212871,36.9362626 23.7735176,35.8673074 23.7735176,33.6692578 L23.7735176,33.6692578 Z M55.9992614,18.9335361 C54.7554003,18.9335361 54.2673322,19.3165095 53.9919863,20.5067342 L53.9919863,20.5067342 L50.5347549,34.8376738 C50.1033465,36.5988891 49.4973204,36.9210627 48.4595546,36.9210627 L48.4595546,36.9210627 C47.1891861,36.9210627 46.6805748,36.6187152 46.1742829,34.8310651 L46.1742829,34.8310651 L42.258473,20.5001255 C41.9344197,19.2993269 41.4562919,18.9335361 40.2117681,18.9335361 L40.2117681,18.9335361 L39.8781059,18.9335361 C39.3761215,18.9335361 38.8757937,18.9797969 38.619003,19.3135356 L38.619003,19.3135356 C38.361881,19.6482656 38.4490241,20.147552 38.5812299,20.6382471 L38.5812299,20.6382471 L42.5381264,35.09343 C43.2803344,37.8598268 44.1630317,40.1497371 47.4598932,40.1497371 L47.4598932,40.1497371 C48.0755282,40.1497371 48.6447753,40.0648155 49.1179329,39.9052157 L49.1179329,39.9052157 C48.1179401,43.0413685 47.1007175,44.4248973 44.1010706,44.7318708 L44.1010706,44.7318708 C43.4923938,44.7824273 43.0967704,44.8693315 42.8764274,45.164079 L42.8764274,45.164079 C42.6474695,45.4700613 42.6994903,45.9075564 42.781332,46.2984603 L42.781332,46.2984603 L42.8638364,46.6695381 C43.0427615,47.5266849 43.3479283,48.057693 44.3127987,48.057693 L44.3127987,48.057693 C44.4138583,48.057693 44.5232014,48.0524061 44.6401655,48.042493 L44.6401655,48.042493 C49.1192582,47.7500586 51.5191746,45.3451571 52.9234056,39.7419811 L52.9234056,39.7419811 L57.715286,20.6280036 C57.8289366,20.1373085 57.8975246,19.6383526 57.6347697,19.3089095 L57.6347697,19.3089095 C57.3713521,18.979136 56.8733438,18.9335361 56.3743415,18.9335361 L56.3743415,18.9335361 L55.9992614,18.9335361 Z" id="Fill-1" fill="url(#linearGradient-1)"></path>
                                <path d="M90.1070456,17.0720342 L90.109025,11.304797 C90.109025,10.6833588 89.6065916,10.1793291 88.9870448,10.1789984 L83.3045664,10.1770141 C82.6846897,10.1770141 82.1822563,10.680713 82.1819264,11.3021512 L82.1799471,17.0693884 C82.1796172,17.6908265 82.6817206,18.1948562 83.3015974,18.1948562 L88.9844056,18.1965099 C89.6042824,18.1968406 90.1067157,17.6934724 90.1070456,17.0720342 M90.1070456,3.65902361 L90.1080353,0.749607956 C90.1080353,0.436408385 89.8543444,0.182078427 89.5419318,0.182078427 L86.6754556,0.181086242 C86.3627131,0.181086242 86.1093521,0.434754744 86.1090222,0.748615771 L86.1080325,3.6577007 C86.1080325,3.971231 86.3613935,4.22523023 86.674136,4.22556096 L89.5406122,4.22655314 C89.8530248,4.22655314 90.1067157,3.97288464 90.1070456,3.65902361 M95.164699,10.1826364 L90.9439949,10.1809828 C90.4837883,10.1809828 90.1106747,9.80659854 90.1110046,9.34523277 L90.1123242,5.0616418 C90.1126541,4.5999453 90.4857677,4.22589177 90.9463042,4.22589177 L95.1666784,4.22754541 C95.6268849,4.22754541 95.9999986,4.60192967 95.9999986,5.06329544 L95.9983491,9.34721714 C95.9983491,9.8085829 95.6252354,10.1826364 95.164699,10.1826364" id="Fill-4" fill="#BBCE00" style="mix-blend-mode: multiply;"></path>
                            </g>
                        </g>
                    </g>
                </g>
            </g>
        </g>
    </g>
</svg>