<?xml version="1.0" encoding="UTF-8"?>
<svg width="96px" height="95px" viewBox="0 0 96 95" version="1.1" xmlns="http://www.w3.org/2000/svg" xmlns:xlink="http://www.w3.org/1999/xlink">
    <!-- Generator: sketchtool 53.2 (72643) - https://sketchapp.com -->
    <title>FB837447-DBA2-437C-83F9-DABEFAA78AF6</title>
    <desc>Created with sketchtool.</desc>
    <g id="Comprar-producto-(Desktop-|-1280)" stroke="none" stroke-width="1" fill="none" fill-rule="evenodd">
        <g id="[5.4]-Comprar-producto-(Desktop-|-1280)" transform="translate(-591.000000, -668.000000)">
            <g id="Páginas-/-Desktop-/-Inicio">
                <g id="Componentes-/-Desktop-/-Checkout-/-Formas-de-pago" transform="translate(170.000000, 568.000000)">
                    <g id="Moléculas-/-Desktop-/-Ícono-compuesto-/-Medio-de-pago-Copy-2" transform="translate(399.000000, 76.000000)">
                        <g id="Atoms/Images/Default/M/Normal-Copy-2" style="mix-blend-mode: multiply;" transform="translate(22.000000, 24.000000)">
                            <g id="Group">
                                <path d="M91.229792,69.9017238 L88.167496,89.3814055 C88.1082325,89.7588206 88.4000447,90.0998459 88.7819653,90.0998459 L91.8612433,90.0998459 C92.3717415,90.0998459 92.8059942,89.7290156 92.8850123,89.2251022 L95.9043336,70.0951101 C95.9639437,69.717695 95.6721314,69.3759766 95.2902108,69.3759766 L91.8439148,69.3759766 C91.5378931,69.3759766 91.2772722,69.5991679 91.229792,69.9017238 M82.0401314,83.2308213 C81.6952939,85.2721209 80.0747307,86.6421137 78.0084779,86.6421137 C76.9718858,86.6421137 76.1425429,86.308713 75.6095176,85.6779549 C75.0806512,85.0523953 74.8817197,84.1613628 75.0494598,83.1684386 C75.3710771,81.1455073 77.0176331,79.7311535 79.0530411,79.7311535 C80.0674527,79.7311535 80.8912505,80.0676733 81.4346729,80.7046697 C81.9819076,81.3458249 82.1971278,82.2430957 82.0401314,83.2308213 M87.0193079,76.277233 L83.4465136,76.277233 C83.1404919,76.277233 82.879871,76.4997312 82.8323908,76.8022871 L82.6750478,77.801103 L82.4255172,77.4392835 C81.6516254,76.3163954 79.9277842,75.9414062 78.2056758,75.9414062 C74.2592786,75.9414062 70.8878416,78.9319622 70.2314373,83.1268504 C69.8900654,85.2194425 70.3745708,87.2195003 71.5612279,88.6151393 C72.6515384,89.8977963 74.207293,90.4315147 76.060405,90.4315147 C79.2419214,90.4315147 81.0063113,88.3877891 81.0063113,88.3877891 L80.8468889,89.3807133 C80.7869323,89.758475 81.0787445,90.0998469 81.4610117,90.0998469 L84.6782248,90.0998469 C85.1880299,90.0998469 85.6222826,89.7290165 85.7019938,89.2251032 L87.6330841,76.99602 C87.6930408,76.6186048 87.4012285,76.277233 87.0193079,76.277233 M65.5811556,76.3631825 C65.1732423,79.041132 63.1281303,79.041132 61.1499065,79.041132 L60.0245924,79.041132 L60.8137332,74.0408142 C60.8619065,73.7386048 61.1221809,73.5161066 61.4282025,73.5161066 L61.9442458,73.5161066 C63.2906718,73.5161066 64.5629318,73.5161066 65.2182964,74.2834135 C65.6106141,74.7426193 65.7294878,75.422937 65.5811556,76.3631825 M64.7202749,69.3759766 L57.2596539,69.3759766 C56.7495023,69.3759766 56.3152496,69.7475 56.2358849,70.2514134 L53.2189896,89.3810589 C53.1593795,89.7588206 53.4511918,90.0998459 53.833459,90.0998459 L57.661329,90.0998459 C58.0182965,90.0998459 58.3222387,89.8399181 58.3780366,89.487456 L59.2333723,84.0639761 C59.3127369,83.5600627 59.7469897,83.1888858 60.2574878,83.1888858 L62.6179788,83.1888858 C67.5320005,83.1888858 70.3683326,80.8110664 71.1093001,76.0973626 C71.4430474,74.035962 71.1228164,72.416092 70.1576178,71.2817671 C69.0967658,70.0355 67.2162749,69.3759766 64.7202749,69.3759766" id="Fill-6" fill="#0099E3"></path>
                                <path d="M53.3459738,77.2538342 L41.4041977,94.4884327 C41.2104649,94.7674218 40.8923133,94.9344687 40.5523277,94.9344687 L36.9649776,94.9344687 C36.4603711,94.9344687 36.1657862,94.364707 36.4575985,93.9529814 L40.1766454,88.7055593 L36.2226238,77.1003035 C36.0853819,76.6968956 36.3851653,76.2775455 36.8114469,76.2775455 L40.3412663,76.2775455 C40.7990858,76.2775455 41.2028403,76.5783685 41.3341905,77.0167801 L43.4330208,84.0268592 L48.3862049,76.7318992 C48.5792446,76.4477115 48.9005154,76.2775455 49.2439666,76.2775455 L52.8344359,76.2775455 C53.3366164,76.2775455 53.6315478,76.8414155 53.3459738,77.2538342 M28.8292372,83.2307879 C28.4840531,85.2720875 26.8638365,86.6420803 24.7972372,86.6420803 C23.7609918,86.6420803 22.9313022,86.3086796 22.398277,85.6779215 C21.8697571,85.0523619 21.6708257,84.1613294 21.8382192,83.1684053 C22.1601831,81.1454739 23.8063925,79.7311201 25.8418004,79.7311201 C26.8562119,79.7311201 27.6800098,80.06764 28.2234322,80.7046363 C28.7706668,81.3461381 28.985887,82.2430623 28.8292372,83.2307879 M33.8080691,76.2775457 L30.2356213,76.2775457 C29.9292531,76.2775457 29.6686321,76.4996973 29.621152,76.8022533 L29.4641556,77.8010692 L29.2142783,77.4392497 C28.4407331,76.3163616 26.7165454,75.9413724 24.9947836,75.9413724 C21.0480397,75.9413724 17.6766028,78.9319284 17.0201984,83.1268165 C16.6788266,85.2194086 17.1636786,87.2194664 18.3499891,88.6151054 C19.4402996,89.8977625 20.9960542,90.4314809 22.8495127,90.4314809 C26.0306825,90.4314809 27.7950725,88.3877552 27.7950725,88.3877552 L27.6356501,89.3806794 C27.57604,89.7584412 27.8675057,90.099813 28.2497729,90.099813 L31.466986,90.099813 C31.9771376,90.099813 32.4113903,89.7289827 32.490755,89.2250693 L34.4218453,76.9959861 C34.481802,76.618571 34.1899897,76.2775457 33.8080691,76.2775457 M12.3702632,76.3631486 C11.9623499,79.0410981 9.91689142,79.0410981 7.93866761,79.0410981 L6.81335354,79.0410981 L7.6028409,74.0407803 C7.65032104,73.7385709 7.91094198,73.5160728 8.21696364,73.5160728 L8.73300695,73.5160728 C10.0794329,73.5160728 11.3516929,73.5160728 12.007404,74.2833796 C12.3997217,74.7425854 12.5182488,75.4229031 12.3702632,76.3631486 M11.509036,69.3762894 L4.04841504,69.3762894 C3.53860999,69.3762894 3.10401071,69.7474663 3.02464609,70.2513796 L0.00775077567,89.3810264 C-0.0518593328,89.7587882 0.239952942,90.0998135 0.622220091,90.0998135 L4.18427064,90.0998135 C4.69442227,90.0998135 5.12867497,89.7289831 5.20838617,89.2250698 L6.02213346,84.0639432 C6.10184465,83.5600299 6.53609736,83.188853 7.04590242,83.188853 L9.40673997,83.188853 C14.3207616,83.188853 17.1570938,80.8110334 17.8984079,76.0973293 C18.2318086,74.0359285 17.9115775,72.4160584 16.9467255,71.28208 C15.885527,70.0354663 14.005036,69.3762894 11.509036,69.3762894" id="Fill-9" fill="#00288D"></path>
                                <path d="M46.5900581,14.5559568 L64.1263641,14.5559568 C73.5401627,14.5559568 77.0849904,19.2810722 76.537787,26.2347869 C75.6352862,37.6977579 68.6452046,44.0366557 59.3739776,44.0366557 L54.6931033,44.0366557 C53.422632,44.0366557 52.567655,44.8691269 52.2214097,47.1322816 L50.213187,60.2741069 C50.0832884,61.1272216 49.6302276,61.6284994 48.9499574,61.6895323 L37.954293,61.6895323 C36.9196306,61.6895323 36.5516601,60.9046309 36.8223198,59.2046844 L43.5372156,17.0497802 C43.8060649,15.3601554 44.7384378,14.5559568 46.5900581,14.5559568" id="Fill-1" fill="#0099E3"></path>
                                <path d="M35.6973367,0 L53.268704,0 C58.2175745,0 64.0870808,0.159168822 68.0138281,3.59613627 C70.6366434,5.8919442 72.0130664,9.5496797 71.6950121,13.4762936 C70.6176145,26.7916199 62.5919538,34.2491738 51.8297575,34.2491738 L43.1634575,34.2491738 C41.6887185,34.2491738 40.710996,35.2194741 40.2946258,37.8462093 L37.8765976,53.113377 C37.7198358,54.1043603 37.2871551,54.6875297 36.4974562,54.7581215 L25.6731895,54.7581215 C24.4721041,54.7581215 24.0453133,53.846273 24.359743,51.8715005 L32.1534325,2.89696249 C32.46605,0.934329979 33.5475252,0 35.6973367,0" id="Fill-8" fill="#00288D"></path>
                                <path d="M40.5488281,36.3898916 L43.6247213,17.0611577 C43.8944808,15.3639698 44.8300101,14.5559568 46.6878986,14.5559568 L64.2835701,14.5559568 C67.1959727,14.5559568 69.5493285,15.0073078 71.3935928,15.8392185 C69.6256241,27.7231411 61.8843461,34.3261219 51.7461149,34.3261219 L43.0597706,34.3261219 C41.916245,34.3261219 41.0620068,34.9064303 40.5488281,36.3898916" id="Fill-10" fill="#001B6C"></path>
                            </g>
                        </g>
                    </g>
                </g>
            </g>
        </g>
    </g>
</svg>