<?xml version="1.0" encoding="UTF-8"?>
<svg width="96px" height="75px" viewBox="0 0 96 75" version="1.1" xmlns="http://www.w3.org/2000/svg" xmlns:xlink="http://www.w3.org/1999/xlink">
    <!-- Generator: sketchtool 53.2 (72643) - https://sketchapp.com -->
    <title>4B131DEA-B637-4F7B-8AC7-22E8B6C17910</title>
    <desc>Created with sketchtool.</desc>
    <g id="Comprar-producto-(Desktop-|-1280)" stroke="none" stroke-width="1" fill="none" fill-rule="evenodd">
        <g id="[5.4]-Comprar-producto-(Desktop-|-1280)" transform="translate(-249.000000, -678.000000)">
            <g id="Páginas-/-Desktop-/-Inicio">
                <g id="Componentes-/-Desktop-/-Checkout-/-Formas-de-pago" transform="translate(170.000000, 568.000000)">
                    <g id="Moléculas-/-Desktop-/-Ícono-compuesto-/-Medio-de-pago" transform="translate(57.000000, 76.000000)">
                        <g id="Atoms/Images/Default/M/Normal-Copy-2" style="mix-blend-mode: multiply;" transform="translate(22.000000, 24.000000)">
                            <g id="Group" transform="translate(0.000000, 10.000000)">
                                <path d="M94.9619504,73.6025474 C94.9931062,73.6025474 95.0170431,73.608171 95.0333809,73.6182936 C95.0500987,73.628791 95.0584576,73.6452869 95.0584576,73.6677814 C95.0584576,73.6910257 95.0500987,73.7075217 95.0333809,73.7172693 C95.0170431,73.7262671 94.9931062,73.7311409 94.9619504,73.7311409 L94.8118703,73.7311409 L94.8118703,73.6025474 L94.9619504,73.6025474 Z M94.6123996,73.4315891 L94.6123996,74.1326671 L94.8118731,74.1326671 L94.8118731,73.8878521 L94.8354299,73.8878521 L95.0333836,74.1326671 L95.2723719,74.1326671 L95.0512413,73.8807289 C95.1203921,73.8691067 95.1732051,73.8447377 95.2093003,73.8076218 C95.2453955,73.7705059 95.263633,73.7240174 95.263633,73.6677812 C95.263633,73.5957988 95.2385564,73.5388128 95.1880231,73.4960733 C95.1374898,73.4533338 95.0633997,73.4315891 94.9657526,73.4315891 L94.6123996,73.4315891 Z M94.6899073,74.3096239 C94.6192367,74.2796312 94.5576848,74.2387663 94.5052518,74.1874039 C94.4528188,74.1356665 94.4117842,74.0753064 94.3821482,74.0059484 C94.3525121,73.9365904 94.3373141,73.8619837 94.3373141,73.7821283 C94.3373141,73.7037725 94.3525121,73.6291658 94.3821482,73.5594329 C94.4117842,73.4893251 94.4528188,73.4289649 94.5052518,73.3779774 C94.5576848,73.32699 94.6192367,73.2864999 94.6899073,73.2565072 C94.7609578,73.2265146 94.8373277,73.2115183 94.9193968,73.2115183 C94.9991861,73.2115183 95.0740362,73.2265146 95.1439469,73.2565072 C95.2142376,73.2864999 95.2754094,73.32699 95.3270826,73.3779774 C95.3791356,73.4289649 95.4194103,73.4893251 95.4494263,73.5594329 C95.4790624,73.6291658 95.4938804,73.7037725 95.4938804,73.7821283 C95.4938804,73.8619837 95.4790624,73.9365904 95.4494263,74.0059484 C95.4194103,74.0753064 95.3791356,74.1356665 95.3270826,74.1874039 C95.2754094,74.2387663 95.2142376,74.2796312 95.1439469,74.3096239 C95.0740362,74.3396165 94.9991861,74.3546128 94.9193968,74.3546128 C94.8373277,74.3546128 94.7609578,74.3396165 94.6899073,74.3096239 L94.6899073,74.3096239 Z M94.5926393,73.0540571 C94.4915727,73.0956719 94.4038044,73.152283 94.3293343,73.2238904 C94.2552441,73.2958727 94.1967319,73.3791023 94.1545575,73.4747039 C94.1123831,73.5706803 94.0911059,73.6726553 94.0911059,73.7821284 C94.0911059,73.8904768 94.1123831,73.9924518 94.1545575,74.0888031 C94.1967319,74.1851545 94.2552441,74.2691339 94.3293343,74.3414911 C94.4038044,74.4134735 94.4915727,74.4704595 94.5926393,74.5120743 C94.6937059,74.5536891 94.8027514,74.5746839 94.9193959,74.5746839 C95.0333808,74.5746839 95.1405265,74.5536891 95.2404533,74.5120743 C95.34038,74.4704595 95.4277684,74.4134735 95.5018585,74.3414911 C95.5763286,74.2691339 95.6348409,74.1851545 95.6777752,74.0888031 C95.7207095,73.9924518 95.7419866,73.8904768 95.7419866,73.7821284 C95.7419866,73.6726553 95.7207095,73.5706803 95.6777752,73.4747039 C95.6348409,73.3791023 95.5763286,73.2958727 95.5018585,73.2238904 C95.4277684,73.152283 95.34038,73.0956719 95.2404533,73.0540571 C95.1405265,73.0124423 95.0333808,72.9914474 94.9193959,72.9914474 C94.8027514,72.9914474 94.6937059,73.0124423 94.5926393,73.0540571 L94.5926393,73.0540571 Z M61.8497319,68.4565599 C62.0682028,68.2379885 62.3277084,68.0681552 62.6286284,67.946685 C62.9295484,67.8252148 63.2551651,67.7644797 63.6054785,67.7644797 C63.9899874,67.7644797 64.3482798,67.8252148 64.6792158,67.946685 C64.9995133,68.0640312 65.2761165,68.227866 65.5113052,68.4359399 L66.3369355,67.0810224 C66.0276566,66.8373322 65.6792429,66.6375062 65.2909345,66.4815445 C64.7742032,66.2734705 64.2118779,66.169621 63.6054785,66.169621 C62.9979393,66.169621 62.435994,66.2734705 61.9188827,66.4815445 C61.4021514,66.6892435 60.9564706,66.9749234 60.5818404,67.3397089 C60.2072102,67.7041195 59.9131293,68.134139 59.6995976,68.6305172 C59.486446,69.1272703 59.3796802,69.6671378 59.3796802,70.2501198 C59.3796802,70.8327269 59.486446,71.3725944 59.6995976,71.8689726 C59.9131293,72.3657257 60.2072102,72.7961201 60.5818404,73.1601558 C60.9564706,73.5245664 61.4021514,73.8109961 61.9188827,74.0183202 C62.435994,74.2260193 62.9979393,74.3298688 63.6054785,74.3298688 C64.2118779,74.3298688 64.7742032,74.2260193 65.2909345,74.0183202 C65.6792429,73.8623585 66.0276566,73.6625325 66.3369355,73.4188423 L65.5113052,72.0639248 C65.2761165,72.2719987 64.9995133,72.4358335 64.6792158,72.5531797 C64.3482798,72.674275 63.9899874,72.735385 63.6054785,72.735385 C63.2551651,72.735385 62.9295484,72.674275 62.6286284,72.5531797 C62.3277084,72.4317095 62.0682028,72.2618762 61.8497319,72.0429299 C61.630501,71.8247335 61.4580039,71.5630477 61.3322407,71.2578725 C61.2064774,70.9530723 61.1437857,70.6167798 61.1437857,70.2501198 C61.1437857,69.8827099 61.2064774,69.5471673 61.3322407,69.2419922 C61.4580039,68.9371919 61.630501,68.6751312 61.8497319,68.4565599 L61.8497319,68.4565599 Z M89.698513,70.2501197 C89.698513,69.8935822 89.6411407,69.564413 89.5263959,69.2622371 C89.4116512,68.9600613 89.2501726,68.6983755 89.0423402,68.4768049 C88.8345078,68.2556091 88.5856409,68.0816518 88.2957394,67.9549329 C88.005458,67.828214 87.6832608,67.7644796 87.3276281,67.7644796 C86.9556575,67.7644796 86.6235816,67.8304634 86.3306406,67.962806 C86.0380795,68.0951485 85.7903524,68.2732298 85.5878393,68.4974248 C85.3857061,68.72087 85.2299268,68.9844303 85.1208813,69.2862312 C85.0110759,69.588782 84.9563632,69.9097033 84.9563632,70.2501197 C84.9563632,70.5901613 85.0110759,70.9110826 85.1208813,71.2132584 C85.2299268,71.5158092 85.3857061,71.7789946 85.5878393,72.0024398 C85.7903524,72.2266348 86.0380795,72.405091 86.3306406,72.5370586 C86.6235816,72.6694011 86.9556575,72.7353849 87.3276281,72.7353849 C87.6832608,72.7353849 88.005458,72.6720255 88.2957394,72.5453066 C88.5856409,72.4182128 88.8345078,72.2442554 89.0423402,72.0226848 C89.2501726,71.8014891 89.4116512,71.5398033 89.5263959,71.2372525 C89.6411407,70.9354516 89.698513,70.6062824 89.698513,70.2501197 L89.698513,70.2501197 Z M91.3068385,63.2198448 L91.3068385,74.1277929 L89.5917463,74.1277929 L89.5917463,73.1968964 C89.3181827,73.5421866 88.9792677,73.8173691 88.5746215,74.0224438 C88.1699752,74.2275184 87.6859195,74.3298683 87.1224544,74.3298683 C86.5700078,74.3298683 86.055936,74.2290181 85.5802392,74.0265677 C85.1041625,73.8241174 84.6884977,73.5421866 84.3328649,73.1804004 C83.9772322,72.8189891 83.6979693,72.3885947 83.4958361,71.8892173 C83.293323,71.3902147 83.1922565,70.8439738 83.1922565,70.2501195 C83.1922565,69.6562653 83.293323,69.1100243 83.4958361,68.6106469 C83.6979693,68.1116443 83.9772322,67.680875 84.3328649,67.3190888 C84.6884977,66.9576775 85.1041625,66.6753718 85.5802392,66.4732964 C86.055936,66.2708461 86.5700078,66.1696209 87.1224544,66.1696209 C87.6859195,66.1696209 88.1699752,66.2734704 88.5746215,66.4815444 C88.9792677,66.6892434 89.3181827,66.9659255 89.5917463,67.3112158 L89.5917463,63.2198448 L91.3068385,63.2198448 Z M81.582786,66.169621 C81.1017699,66.169621 80.6667278,66.2558498 80.2784194,66.4286824 C79.889731,66.601515 79.5644942,67.017288 79.3019491,67.3899466 L79.3019491,66.3720713 L77.745296,66.3720713 L77.745296,74.1277933 L79.318287,74.1277933 L79.318287,69.8613402 C79.318287,69.5325458 79.3646408,69.2378681 79.4577284,68.9788067 C79.5504361,68.7201202 79.679239,68.5015488 79.8433772,68.3230926 C80.0075154,68.1450113 80.2043292,68.0100444 80.4341987,67.9185669 C80.6636882,67.8267144 80.9152147,67.7809756 81.1887784,67.7809756 C81.3969907,67.7809756 81.6211609,67.8049697 81.861669,67.8537078 C81.9843927,67.8780768 82.0991374,67.9088192 82.2062832,67.9448104 L82.7135158,66.3259576 C82.5755941,66.2832181 82.4361526,66.2464771 82.2925317,66.2221081 C82.0820397,66.1872417 81.8453311,66.169621 81.582786,66.169621 L81.582786,66.169621 Z M57.7455157,66.169621 C57.2641196,66.169621 56.8294574,66.2558498 56.4407691,66.4286824 C56.0524607,66.601515 55.7272239,67.017288 55.4646788,67.3899466 L55.4646788,66.3720713 L53.9076457,66.3720713 L53.9076457,74.1277933 L55.4810166,74.1277933 L55.4810166,69.8613402 C55.4810166,69.5325458 55.5277504,69.2378681 55.6204581,68.9788067 C55.7135457,68.7201202 55.8419686,68.5015488 56.0064868,68.3230926 C56.170245,68.1450113 56.3670589,68.0100444 56.5969283,67.9185669 C56.8267978,67.8267144 57.0779444,67.7809756 57.351888,67.7809756 C57.5597204,67.7809756 57.7835106,67.8049697 58.0243986,67.8537078 C58.1471223,67.8780768 58.2618671,67.9088192 58.3690128,67.9448104 L58.8758655,66.3259576 C58.7387037,66.2832181 58.5992622,66.2464771 58.4552614,66.2221081 C58.2443894,66.1872417 58.0080608,66.169621 57.7455157,66.169621 L57.7455157,66.169621 Z M42.2640947,72.5812978 C41.9878714,72.6840226 41.7158275,72.735385 41.4475831,72.735385 C41.2724264,72.735385 41.109808,72.7083916 40.959728,72.6544049 C40.808888,72.6004181 40.6778054,72.5156889 40.5657203,72.3994674 C40.4536352,72.283246 40.364727,72.1336577 40.2989957,71.9503276 C40.2332645,71.7666227 40.2005888,71.545427 40.2005888,71.2859906 L40.2005888,67.909944 L42.9544629,67.909944 L42.9544629,66.3720713 L40.2005888,66.3720713 L40.2005888,64.0243974 L38.4775177,64.0243974 L38.4775177,66.3720713 L36.9106059,66.3720713 L36.9106059,67.909944 L38.4775177,67.909944 L38.4775177,71.3186076 C38.4775177,72.3492298 38.7248649,73.1091683 39.220319,73.5972985 C39.7150133,74.0861786 40.4084212,74.3298688 41.3001627,74.3298688 C41.7978966,74.3298688 42.2447172,74.2545123 42.6413845,74.1034244 C42.9035497,74.0036988 43.1467174,73.8897268 43.3743072,73.7637577 L42.788045,72.3466054 C42.6223871,72.4343339 42.4479902,72.5130646 42.2640947,72.5812978 L42.2640947,72.5812978 Z M73.8553734,70.2501197 C73.8553734,69.8935822 73.798001,69.564413 73.6832563,69.2622371 C73.5681316,68.9600613 73.407033,68.6983755 73.1992006,68.4768049 C72.9909882,68.2556091 72.7425013,68.0816518 72.4522198,67.9549329 C72.1623184,67.828214 71.8401212,67.7644796 71.4841085,67.7644796 C71.1121379,67.7644796 70.7796821,67.8304634 70.4875009,67.962806 C70.1945599,68.0951485 69.9472127,68.2732298 69.7446996,68.4974248 C69.5425665,68.72087 69.3864073,68.9844303 69.2769818,69.2862312 C69.1675563,69.588782 69.1132236,69.9097033 69.1132236,70.2501197 C69.1132236,70.5901613 69.1675563,70.9110826 69.2769818,71.2132584 C69.3864073,71.5158092 69.5425665,71.7789946 69.7446996,72.0024398 C69.9472127,72.2266348 70.1945599,72.405091 70.4875009,72.5370586 C70.7796821,72.6694011 71.1121379,72.7353849 71.4841085,72.7353849 C71.8401212,72.7353849 72.1623184,72.6720255 72.4522198,72.5453066 C72.7425013,72.4182128 72.9909882,72.2442554 73.1992006,72.0226848 C73.407033,71.8014891 73.5681316,71.5398033 73.6832563,71.2372525 C73.798001,70.9354516 73.8553734,70.6062824 73.8553734,70.2501197 L73.8553734,70.2501197 Z M73.7486105,66.3720713 L75.4637027,66.3720713 L75.4637027,74.1277934 L73.7486105,74.1277934 L73.7486105,73.1968968 C73.4750469,73.5421871 73.1361319,73.8173695 72.7311057,74.0224442 C72.3268394,74.2275189 71.8424037,74.3298688 71.2793185,74.3298688 C70.726492,74.3298688 70.2124203,74.2290185 69.7367234,74.0265682 C69.2606467,73.8241179 68.8453619,73.5421871 68.4893491,73.1804008 C68.1340963,72.8189895 67.8548334,72.3885951 67.6527003,71.8892176 C67.4501872,71.3902151 67.3491206,70.8439741 67.3491206,70.2501198 C67.3491206,69.6562655 67.4501872,69.1100245 67.6527003,68.6106471 C67.8548334,68.1116445 68.1340963,67.6808752 68.4893491,67.319089 C68.8453619,66.9576776 69.2606467,66.6753719 69.7367234,66.4732965 C70.2124203,66.2708462 70.726492,66.169621 71.2793185,66.169621 C71.8424037,66.169621 72.3268394,66.2734705 72.7311057,66.4815445 C73.1361319,66.6892435 73.4750469,66.9659256 73.7486105,67.3112159 L73.7486105,66.3720713 Z M50.2487335,69.5861576 C50.1556459,68.9818059 49.9371749,68.5120461 49.5925607,68.1772533 C49.2479465,67.8428354 48.8018858,67.6752515 48.2551385,67.6752515 C47.9488991,67.6752515 47.6768553,67.7213652 47.438627,67.8132176 C47.2007786,67.9050701 46.9959858,68.0355381 46.8234887,68.2057463 C46.6513716,68.3759545 46.5104103,68.5784049 46.4009849,68.8130973 C46.2915594,69.0477897 46.2148096,69.3053515 46.1711154,69.5861576 L50.2487335,69.5861576 Z M51.7297745,68.586278 C51.9129101,69.0852806 52.004478,69.6375201 52.004478,70.2418718 C52.004478,70.3498453 52.0018183,70.4574439 51.996499,70.5654174 C51.9907998,70.6737659 51.9828209,70.7761157 51.9718023,70.8732169 L46.1627543,70.8732169 C46.217467,71.2241308 46.3189135,71.5236823 46.4663339,71.7718714 C46.6141343,72.0200605 46.7919507,72.2240105 46.9997831,72.3829715 C47.2076154,72.5426823 47.4401445,72.6596536 47.6973704,72.735385 C47.9542162,72.8111164 48.2220806,72.8486072 48.5013435,72.8486072 C48.8949712,72.8486072 49.2901187,72.7773747 49.686786,72.6341599 C50.0834533,72.4913199 50.4459251,72.2899943 50.7742015,72.0313078 L51.6271881,73.2370119 C51.146172,73.6419126 50.6355199,73.925343 50.0971314,74.0873033 C49.558363,74.2492636 48.9907185,74.3298688 48.3945777,74.3298688 C47.8041362,74.3298688 47.2623282,74.2331425 46.7702936,74.0385653 C46.277879,73.8447378 45.8538553,73.5691804 45.4982226,73.2130178 C45.1425899,72.8568552 44.8667465,72.4275855 44.6699327,71.9255837 C44.4727389,71.4235819 44.374332,70.8649689 44.374332,70.2501198 C44.374332,69.6453932 44.4700792,69.0924039 44.6615738,68.590402 C44.8530683,68.0884002 45.1209327,67.6580058 45.4655469,67.2992188 C45.8101611,66.940057 46.2216465,66.6622501 46.7003828,66.4650485 C47.1791192,66.2682218 47.7080089,66.169621 48.2881918,66.169621 C48.8349392,66.169621 49.3368525,66.2682218 49.7935518,66.4650485 C50.2502511,66.6622501 50.6412191,66.940057 50.9668359,67.2992188 C51.2920726,67.6580058 51.5462589,68.0869006 51.7297745,68.586278 L51.7297745,68.586278 Z M34.9113109,70.2377478 C34.4299149,69.8680885 33.7596839,69.6213991 32.9009981,69.4969296 L32.089046,69.3758343 C31.90819,69.348466 31.7387325,69.3177236 31.5802936,69.2824822 C31.4214747,69.2476158 31.2846929,69.2003774 31.1699481,69.140767 C31.0552034,69.0811566 30.9636355,69.0058001 30.8952446,68.9139476 C30.8268537,68.8224701 30.7926583,68.708873 30.7926583,68.574281 C30.7926583,68.2990985 30.922601,68.0764031 31.1824864,67.9061949 C31.441992,67.7363616 31.8071234,67.6512575 32.2778809,67.6512575 C32.5237082,67.6512575 32.765736,67.6730021 33.0035844,67.7161165 C33.2418128,67.759231 33.4671228,67.8132177 33.6806544,67.8777019 C33.8938061,67.942561 34.0879603,68.0141684 34.263117,68.0925242 C34.4382738,68.17088 34.5860741,68.2451117 34.7061382,68.3148446 L35.44438,66.9955433 C35.0344145,66.7364819 34.5556782,66.5351563 34.0089308,66.3923163 C33.4618035,66.2494764 32.8793409,66.177494 32.2611631,66.177494 C31.75773,66.177494 31.3067299,66.2359797 30.907403,66.3518263 C30.5080761,66.4680478 30.1676413,66.6322575 29.8860987,66.845955 C29.6041762,67.0589028 29.3883649,67.319089 29.2379049,67.6268884 C29.0874449,67.9346879 29.0122149,68.2799782 29.0122149,68.6631342 C29.0122149,69.2892306 29.2379049,69.7953564 29.6889049,70.1811367 C30.140285,70.5669171 30.8036768,70.8192302 31.6787005,70.9384509 L32.4990115,71.0434252 C32.969389,71.1082842 33.3143831,71.2121338 33.5328541,71.3549737 C33.751705,71.4981886 33.8611305,71.680019 33.8611305,71.9015896 C33.8611305,72.1928931 33.7106705,72.4234616 33.4101304,72.5936698 C33.1092104,72.7635031 32.6631497,72.8486072 32.0723282,72.8486072 C31.7497511,72.8486072 31.4613694,72.8272375 31.2068032,72.7837482 C30.952617,72.7406337 30.7200879,72.682523 30.5095959,72.6101657 C30.2991038,72.5370587 30.1102689,72.4534542 29.9434711,72.3589774 C29.7766733,72.2645006 29.6220338,72.1632754 29.4799327,72.0553019 L28.6839385,73.3262401 C28.9685207,73.5365634 29.2664011,73.7067717 29.5783396,73.8364899 C29.8898982,73.9658331 30.1965175,74.0666834 30.4970575,74.1401653 C30.7979775,74.2128975 31.0825597,74.2612606 31.3508041,74.2856297 C31.6182885,74.3099987 31.8534773,74.3219957 32.0563703,74.3219957 C32.6194555,74.3219957 33.1240284,74.2601359 33.5697092,74.1360414 C34.0157699,74.0119468 34.3904001,73.8376146 34.6939798,73.6134196 C34.9975594,73.3899744 35.2300885,73.122665 35.3911871,72.8122412 C35.5526657,72.5018173 35.633215,72.1602761 35.633215,71.7879925 C35.633215,71.1244053 35.3927069,70.6074071 34.9113109,70.2377478 L34.9113109,70.2377478 Z M25.4209318,70.2501197 C25.4209318,69.8935822 25.3635594,69.564413 25.2488147,69.2622371 C25.13369,68.9600613 24.9722114,68.6983755 24.764759,68.4768049 C24.5565467,68.2556091 24.3076798,68.0816518 24.0181582,67.9549329 C23.7282568,67.828214 23.4052997,67.7644796 23.0496669,67.7644796 C22.6776964,67.7644796 22.3456205,67.8304634 22.0530594,67.962806 C21.7601183,68.0951485 21.5127712,68.2732298 21.3102581,68.4974248 C21.1081249,68.72087 20.9519657,68.9844303 20.8429202,69.2862312 C20.7334947,69.588782 20.678782,69.9097033 20.678782,70.2501197 C20.678782,70.5901613 20.7334947,70.9110826 20.8429202,71.2132584 C20.9519657,71.5158092 21.1081249,71.7789946 21.3102581,72.0024398 C21.5127712,72.2266348 21.7601183,72.405091 22.0530594,72.5370586 C22.3456205,72.6694011 22.6776964,72.7353849 23.0496669,72.7353849 C23.4052997,72.7353849 23.7282568,72.6720255 24.0181582,72.5453066 C24.3076798,72.4182128 24.5565467,72.2442554 24.764759,72.0226848 C24.9722114,71.8014891 25.13369,71.5398033 25.2488147,71.2372525 C25.3635594,70.9354516 25.4209318,70.6062824 25.4209318,70.2501197 L25.4209318,70.2501197 Z M25.3141661,66.3720713 L27.0292583,66.3720713 L27.0292583,74.1277934 L25.3141661,74.1277934 L25.3141661,73.1968968 C25.0406024,73.5421871 24.7016874,73.8173695 24.2970412,74.0224442 C23.892015,74.2275189 23.4079593,74.3298688 22.8448741,74.3298688 C22.2920475,74.3298688 21.7779758,74.2290185 21.302279,74.0265682 C20.8262023,73.8241179 20.4105375,73.5421871 20.0552847,73.1804008 C19.6996519,72.8189895 19.420769,72.3885951 19.2182559,71.8892176 C19.0157428,71.3902151 18.9146762,70.8439741 18.9146762,70.2501198 C18.9146762,69.6562655 19.0157428,69.1100245 19.2182559,68.6106471 C19.420769,68.1116445 19.6996519,67.6808752 20.0552847,67.319089 C20.4105375,66.9576776 20.8262023,66.6753719 21.302279,66.4732965 C21.7779758,66.2708462 22.2920475,66.169621 22.8448741,66.169621 C23.4079593,66.169621 23.892015,66.2734705 24.2970412,66.4815445 C24.7016874,66.6892435 25.0406024,66.9659256 25.3141661,67.3112159 L25.3141661,66.3720713 Z M17.1596895,68.0074201 C17.3105294,68.3853273 17.3861394,68.8007254 17.3861394,69.2539892 L17.3861394,74.1277933 L15.718541,74.1277933 L15.718541,69.812977 C15.718541,69.1595124 15.5635215,68.6578855 15.2538627,68.3069716 C14.9442038,67.9560577 14.5087817,67.7809756 13.9475962,67.7809756 C13.6778321,67.7809756 13.4236459,67.8252148 13.1854175,67.914068 C12.9471892,68.0032961 12.7393568,68.134139 12.5619203,68.3069716 C12.3848639,68.4798041 12.2431427,68.6942515 12.1371368,68.9506886 C12.0311309,69.2067508 11.9783179,69.4999288 11.9783179,69.8290981 L11.9783179,74.1277933 L10.3110994,74.1277933 L10.3110994,69.812977 C10.3110994,69.1595124 10.15608,68.6578855 9.84642112,68.3069716 C9.53676227,67.9560577 9.10134012,67.7809756 8.54015468,67.7809756 C8.27001057,67.7809756 8.01620429,67.8252148 7.77797594,67.914068 C7.53974759,68.0032961 7.3319152,68.134139 7.15447878,68.3069716 C6.97704235,68.4798041 6.83570113,68.6942515 6.72969521,68.9506886 C6.6236893,69.2067508 6.57087632,69.4999288 6.57087632,69.8290981 L6.57087632,74.1277933 L4.90327787,74.1277933 L4.90327787,66.3720713 L6.55491844,66.3720713 L6.55491844,67.3190889 C6.70841804,67.0926445 6.87901538,66.9051905 7.06709039,66.756352 C7.2551654,66.6082634 7.4523592,66.4909172 7.65867179,66.4046883 C7.86536433,66.3180846 8.07281677,66.2573495 8.28216895,66.2221081 C8.49114119,66.1872417 8.69365428,66.169621 8.88932828,66.169621 C9.4717909,66.169621 9.98928214,66.2925908 10.441802,66.5377807 C10.8947018,66.7837203 11.2529942,67.1222622 11.5178191,67.5537814 C11.6819573,67.2789738 11.8753516,67.0506548 12.097622,66.8699492 C12.3198925,66.6892435 12.5539414,66.5475283 12.8001487,66.4448035 C13.046356,66.3424536 13.2978826,66.2708462 13.5547284,66.2303561 C13.8111944,66.1902409 14.0589214,66.169621 14.2971498,66.169621 C14.74701,66.169621 15.161155,66.2453524 15.5395847,66.3960654 C15.9180144,66.5475283 16.245151,66.7593513 16.5202344,67.0319094 C16.7956978,67.3044675 17.0088495,67.6295128 17.1596895,68.0074201 L17.1596895,68.0074201 Z" id="Fill-1" fill="#1D1D1B"></path>
                                <path d="M66.3347294,0.252101094 C59.4061479,0.252101094 53.0398145,2.63124847 48.0000534,6.60429252 C54.834611,11.99275 59.224166,20.3195772 59.224166,29.6712678 C59.224166,39.0233358 54.834611,47.3494083 48.0000534,52.7382431 C53.0398145,56.7116645 59.4061479,59.0908119 66.3347294,59.0908119 C82.6592638,59.0908119 95.8931389,45.9189011 95.8931389,29.6712678 C95.8931389,13.4236345 82.6592638,0.252101094 66.3347294,0.252101094 L66.3347294,0.252101094 Z M95.7414865,45.5841973 L95.7414865,44.8223419 L95.4935362,45.479296 L95.219426,45.479296 L94.9710965,44.8242286 L94.9710965,45.5841973 L94.7129097,45.5841973 L94.7129097,44.4865066 L95.0833187,44.4865066 L95.3574289,45.1894966 L95.6296435,44.4865066 L96.0000525,44.4865066 L96.0000525,45.5841973 L95.7414865,45.5841973 Z M93.8890634,45.5841973 L93.8890634,44.7231007 L93.5391273,44.7231007 L93.5391273,44.4865066 L94.4971862,44.4865066 L94.4971862,44.7231007 L94.1472502,44.7231007 L94.1472502,45.5841973 L93.8890634,45.5841973 Z" id="Fill-9" fill="#F59F00"></path>
                                <path d="M36.6452141,29.8004889 C36.6452141,39.1646387 41.0355056,47.5018453 47.8708307,52.897264 C54.7065351,47.5018453 59.0968266,39.1646387 59.0968266,29.8004889 C59.0968266,20.436717 54.7065351,12.0991326 47.8708307,6.70371389 C41.0355056,12.0991326 36.6452141,20.436717 36.6452141,29.8004889" id="Fill-7" fill="#EA600A"></path>
                                <path d="M36.7511743,29.6712678 C36.7511743,20.3195772 41.1505632,11.99275 48.0000522,6.60429252 C42.9493805,2.63124847 36.5687848,0.252101094 29.6246812,0.252101094 C13.2635751,0.252101094 5.22249138e-05,13.4236345 5.22249138e-05,29.6712678 C5.22249138e-05,45.9192784 13.2635751,59.0908119 29.6246812,59.0908119 C36.5687848,59.0908119 42.9493805,56.7116645 48.0000522,52.7382431 C41.1505632,47.3497856 36.7511743,39.0233358 36.7511743,29.6712678" id="Fill-4" fill="#E30E17"></path>
                            </g>
                        </g>
                    </g>
                </g>
            </g>
        </g>
    </g>
</svg>