<?xml version="1.0" encoding="UTF-8"?>
<svg width="36px" height="32px" viewBox="0 0 36 32" version="1.1" xmlns="http://www.w3.org/2000/svg" xmlns:xlink="http://www.w3.org/1999/xlink">
    <!-- Generator: sketchtool 53.2 (72643) - https://sketchapp.com -->
    <title>3EBB9172-C95C-486F-8F10-D2C16FDAAA67</title>
    <desc>Created with sketchtool.</desc>
    <g id="Comprar-producto-(Mobile-|-320)" stroke="none" stroke-width="1" fill="none" fill-rule="evenodd">
        <g id="[5.3]-Comprar-producto-(Mobile-|-320)" transform="translate(-272.000000, -16.000000)" fill="#FFFFFF" fill-rule="nonzero">
            <g id="Páginas-/-Mobile-/-Checkout-/-Paso-3">
                <g id="Componentes-/-Mobile-/-Navegación-/-Header">
                    <g id="Átomos-/-Íconos-/-Menú" transform="translate(266.000000, 8.000000)">
                        <path d="M40,26 L8,26 C6.896,26 6,25.104 6,24 C6,22.896 6.896,22 8,22 L40,22 C41.104,22 42,22.896 42,24 C42,25.104 41.104,26 40,26 Z M40,12 L8,12 C6.896,12 6,11.104 6,10 C6,8.896 6.896,8 8,8 L40,8 C41.104,8 42,8.896 42,10 C42,11.104 41.104,12 40,12 Z M40,40 L8,40 C6.896,40 6,39.104 6,38 C6,36.896 6.896,36 8,36 L40,36 C41.104,36 42,36.896 42,38 C42,39.104 41.104,40 40,40 Z" id="Combined-Shape"></path>
                    </g>
                </g>
            </g>
        </g>
    </g>
</svg>