<?xml version="1.0" encoding="UTF-8"?>
<svg width="73px" height="37px" viewBox="0 0 73 37" version="1.1" xmlns="http://www.w3.org/2000/svg" xmlns:xlink="http://www.w3.org/1999/xlink">
    <!-- Generator: sketchtool 53.2 (72643) - https://sketchapp.com -->
    <title>AE6E0081-0FE2-4026-8D02-291D9556D127</title>
    <desc>Created with sketchtool.</desc>
    <defs>
        <linearGradient x1="49.9999751%" y1="21.1040264%" x2="49.9999751%" y2="122.837487%" id="linearGradient-1">
            <stop stop-color="#C0CE2E" offset="0%"></stop>
            <stop stop-color="#618E36" offset="100%"></stop>
        </linearGradient>
    </defs>
    <g id="Comprar-producto-(Desktop-|-1280)" stroke="none" stroke-width="1" fill="none" fill-rule="evenodd">
        <g id="[5.3]-Comprar-producto-(Desktop-|-1280)" transform="translate(-557.000000, -314.000000)">
            <g id="Páginas-/-Desktop-/-Inicio">
                <g id="Componentes-/-Desktop-/-Checkout-/-Contenido-/-C" transform="translate(170.000000, 144.000000)">
                    <g id="Moléculas-/-Desktop-/-Ícono-Compuesto-/-Medio-de-pago-/-Pagar-Copy-2" transform="translate(355.000000, 97.000000)">
                        <g id="Icono" style="mix-blend-mode: multiply;" transform="translate(32.000000, 55.000000)">
                            <g id="Group" transform="translate(0.000000, 18.250000)">
                                <path d="M3.62266124,9.33307365 C1.11718458,9.33307365 0,10.4471951 0,12.9458023 L0,12.9458023 L0,28.9930213 C0,29.9581409 0.310664996,30.2679542 1.27843811,30.2679542 L1.27843811,30.2679542 L1.59515011,30.2679542 C2.56317519,30.2679542 2.87384018,29.9581409 2.87384018,28.9930213 L2.87384018,28.9930213 L2.87384018,22.7500211 L8.31060359,22.7500211 C13.1376271,22.7500211 15.385854,20.6177625 15.385854,16.0414218 L15.385854,16.0414218 C15.385854,11.4645785 13.1376271,9.33307365 8.31060359,9.33307365 L8.31060359,9.33307365 L3.62266124,9.33307365 Z M2.87384015,13.3247142 C2.87384015,12.3889929 3.22280285,12.0409869 4.16109677,12.0409869 L4.16109677,12.0409869 L8.31060339,12.0409869 C10.9715384,12.0409869 12.5120135,12.6957909 12.5120135,16.0414219 L12.5120135,16.0414219 C12.5120135,18.6563662 11.8425594,20.0735167 8.31060339,20.0735167 L8.31060339,20.0735167 L2.87384015,20.0735167 L2.87384015,13.3247142 Z M62.0002142,9.33709393 C60.04048,9.33709393 59.3115637,9.65921927 59.3115637,11.4394517 L59.3115637,11.4394517 L59.3115637,15.6054721 C59.3113118,15.6142665 59.3103039,15.6230609 59.3103039,15.6318553 L59.3103039,15.6318553 L59.3103039,16.5449625 C59.3098,16.5766222 59.3080363,16.6062718 59.3080363,16.6386854 L59.3080363,16.6386854 L59.3080363,22.4593044 C59.3080363,23.170141 59.1702149,23.7364987 58.8867615,24.1759661 L58.8867615,24.1759661 C58.3526092,24.9971093 57.2948869,25.370242 55.601977,25.3725034 L55.601977,25.3725034 C53.9098229,25.370242 52.8526045,24.9973606 52.3179483,24.1769711 L52.3179483,24.1769711 C52.0339909,23.7370012 51.8961696,23.1706435 51.8961696,22.4593044 L51.8961696,22.4593044 L51.8961696,16.6386854 C51.8961696,16.6062718 51.8941539,16.5766222 51.89365,16.5449625 L51.89365,16.5449625 L51.89365,15.6318553 C51.89365,15.6230609 51.8928941,15.6142665 51.8926422,15.6054721 L51.8926422,15.6054721 L51.8926422,11.4394517 C51.8926422,9.65921927 51.1637259,9.33709393 49.2039917,9.33709393 L49.2039917,9.33709393 L48.5869451,9.33709393 C46.626959,9.33709393 45.8980427,9.65921927 45.8980427,11.4394517 L45.8980427,11.4394517 L45.8980427,15.6318553 L45.8980427,20.0426105 L45.8980427,22.4593044 C45.8980427,24.2317475 46.2991608,25.7330727 47.0736816,26.942676 L47.0736816,26.942676 C48.5695599,29.2870047 51.467336,30.5358058 55.5868594,30.5358058 L55.5868594,30.5358058 C55.5918986,30.5358058 55.5969378,30.5355545 55.601977,30.5355545 L55.601977,30.5355545 C55.6072681,30.5355545 55.6123073,30.5358058 55.6173464,30.5358058 L55.6173464,30.5358058 C59.7368699,30.5358058 62.634646,29.2870047 64.1305243,26.942676 L64.1305243,26.942676 C64.9050451,25.7330727 65.3059112,24.2317475 65.3059112,22.4593044 L65.3059112,22.4593044 L65.3059112,20.0426105 L65.3059112,15.6318553 L65.3059112,11.4394517 C65.3059112,9.65921927 64.576995,9.33709393 62.6172608,9.33709393 L62.6172608,9.33709393 L62.0002142,9.33709393 Z M17.9601155,14.25541 C17.1780359,14.4247645 16.8509936,14.6388447 16.8509936,15.5255688 L16.8509936,15.5255688 L16.8509936,15.7783442 C16.8509936,16.1258476 16.9026451,16.3665622 17.0132549,16.5359167 L17.0132549,16.5359167 C17.1422577,16.7331619 17.3496197,16.8331665 17.6303016,16.8331665 L17.6303016,16.8331665 C17.7671151,16.8331665 17.9258491,16.8100499 18.11507,16.7630628 L18.11507,16.7630628 C18.5615407,16.6514999 19.9891383,16.4215898 21.5505259,16.4215898 L21.5505259,16.4215898 C24.3548255,16.4215898 25.4984657,17.1962485 25.4984657,19.0953306 L25.4984657,19.0953306 L25.4984657,20.7896295 L21.9622263,20.7896295 C17.4163887,20.7896295 15.2989284,22.3188454 15.2989284,25.6026645 L15.2989284,25.6026645 C15.2989284,28.7879865 17.4854254,30.5418359 21.4555375,30.5418359 L21.4555375,30.5418359 C26.1734629,30.5418359 28.2773175,28.9407574 28.2773175,25.3498891 L28.2773175,25.3498891 L28.2773175,19.0953306 C28.2773175,15.6228095 26.0356415,13.9350436 21.4237908,13.9350436 L21.4237908,13.9350436 C19.5658478,13.9350436 18.401547,14.167215 17.9601155,14.25541 L17.9601155,14.25541 Z M18.077779,25.6026648 C18.077779,23.7696661 19.1758147,23.0553117 21.993972,23.0553117 L21.993972,23.0553117 L25.4984647,23.0553117 L25.4984647,25.2551614 C25.4984647,27.0487111 24.8317821,28.0869497 21.4237897,28.0869497 L21.4237897,28.0869497 C19.1722873,28.0869497 18.077779,27.2740983 18.077779,25.6026648 L18.077779,25.6026648 Z M42.5827717,14.3973764 C41.636919,14.3973764 41.2657839,14.6885958 41.0564063,15.5936625 L41.0564063,15.5936625 L38.4274699,26.4911478 C38.0994198,27.8304053 37.6385874,28.0753914 36.849453,28.0753914 L36.849453,28.0753914 C35.8834436,28.0753914 35.4966871,27.8454813 35.1116943,26.4861224 L35.1116943,26.4861224 L32.1340472,15.5886371 C31.8876316,14.6755298 31.5240553,14.3973764 30.5776987,14.3973764 L30.5776987,14.3973764 L30.3239763,14.3973764 C29.942259,14.3973764 29.5618015,14.4325539 29.3665335,14.6863344 L29.3665335,14.6863344 C29.1710136,14.9408687 29.2372788,15.3205343 29.3378103,15.6936671 L29.3378103,15.6936671 L32.3467003,26.6856291 C32.9110876,28.7892433 33.5823054,30.5305293 36.0892938,30.5305293 L36.0892938,30.5305293 C36.5574329,30.5305293 36.9902979,30.4659534 37.3500948,30.3445911 L37.3500948,30.3445911 C36.5896836,32.729374 35.8161706,33.7814323 33.5351891,34.0148601 L33.5351891,34.0148601 C33.0723411,34.0533041 32.7715025,34.1193875 32.60395,34.3435184 L32.60395,34.3435184 C32.4298466,34.5761924 32.4694041,34.908871 32.5316379,35.2061209 L32.5316379,35.2061209 L32.5943756,35.4882946 C32.7304332,36.1400833 32.9624872,36.5438707 33.6961907,36.5438707 L33.6961907,36.5438707 C33.7730381,36.5438707 33.8561844,36.5398504 33.9451258,36.5323124 L33.9451258,36.5323124 C37.3511026,36.3099404 39.176039,34.4812132 40.2438397,30.2204648 L40.2438397,30.2204648 L43.8876654,15.6858778 C43.9740872,15.312745 44.0262427,14.9333306 43.8264395,14.6828166 L43.8264395,14.6828166 C43.6261324,14.4320513 43.2474385,14.3973764 42.8679888,14.3973764 L42.8679888,14.3973764 L42.5827717,14.3973764 Z" id="Fill-1" fill="url(#linearGradient-1)"></path>
                                <path d="M68.5188993,12.9818593 L68.5204044,8.59635605 C68.5204044,8.12380411 68.1383457,7.74053154 67.667232,7.74028005 L63.3461807,7.7387711 C62.8748161,7.7387711 62.4927574,8.12179218 62.4925066,8.59434412 L62.4910014,12.9798474 C62.4907506,13.4523993 62.8725584,13.8356719 63.343923,13.8356719 L67.6652251,13.8369294 C68.1365897,13.8371809 68.5186484,13.4544113 68.5188993,12.9818593 M68.5188993,2.78238254 L68.5196519,0.570014383 C68.5196519,0.331852209 68.3267411,0.13845547 68.0891773,0.13845547 L65.909461,0.137700997 C65.6716464,0.137700997 65.4789865,0.330594753 65.4787356,0.569259909 L65.477983,2.78137657 C65.477983,3.01979024 65.670643,3.21293549 65.9084576,3.21318698 L68.0881739,3.21394145 C68.3257376,3.21394145 68.5186484,3.0210477 68.5188993,2.78238254 M72.3648232,7.74304646 L69.1553294,7.741789 C68.8053807,7.741789 68.5216589,7.45710097 68.5219097,7.10627075 L68.5229132,3.84895678 C68.523164,3.49787508 68.8068859,3.21343853 69.1570854,3.21343853 L72.3663283,3.21469599 C72.7162771,3.21469599 72.9999989,3.49938402 72.9999989,3.85021424 L72.9987446,7.1077797 C72.9987446,7.45860992 72.7150228,7.74304646 72.3648232,7.74304646" id="Fill-4" fill="#BBCE00" style="mix-blend-mode: multiply;"></path>
                            </g>
                        </g>
                    </g>
                </g>
            </g>
        </g>
    </g>
</svg>