<?xml version="1.0" encoding="UTF-8"?>
<svg width="73px" height="73px" viewBox="0 0 73 73" version="1.1" xmlns="http://www.w3.org/2000/svg" xmlns:xlink="http://www.w3.org/1999/xlink">
    <!-- Generator: sketchtool 53.2 (72643) - https://sketchapp.com -->
    <title>D9FB399D-A684-4E68-950A-D7EF9652EB60</title>
    <desc>Created with sketchtool.</desc>
    <g id="Comprar-producto-(Desktop-|-1280)" stroke="none" stroke-width="1" fill="none" fill-rule="evenodd">
        <g id="[5.3]-Comprar-producto-(Desktop-|-1280)" transform="translate(-408.000000, -296.000000)">
            <g id="Páginas-/-Desktop-/-Inicio">
                <g id="Componentes-/-Desktop-/-Checkout-/-Contenido-/-C" transform="translate(170.000000, 144.000000)">
                    <g id="Moléculas-/-Desktop-/-Ícono-Compuesto-/-Medio-de-pago-/-Pagar-Copy" transform="translate(206.000000, 97.000000)">
                        <g id="Icono" style="mix-blend-mode: multiply;" transform="translate(32.000000, 55.000000)">
                            <g id="Group">
                                <path d="M69.3726544,53.1544358 L67.0440334,67.9671104 C66.9989684,68.2541032 67.2208673,68.5134245 67.5112861,68.5134245 L69.8528204,68.5134245 C70.2410118,68.5134245 70.5712248,68.2314389 70.6313114,67.8482548 L72.9272537,53.30149 C72.9725822,53.0144972 72.7506833,52.7546488 72.4602645,52.7546488 L69.8396435,52.7546488 C69.6069396,52.7546488 69.4087591,52.9243673 69.3726544,53.1544358 M62.3846833,63.2901037 C62.122463,64.842342 60.8901598,65.8841073 59.3189467,65.8841073 C58.5307049,65.8841073 57.9000586,65.6305838 57.4947373,65.1509448 C57.0925785,64.6752589 56.9413077,63.997703 57.0688601,63.2426669 C57.3134232,61.7043961 58.5654919,60.628898 60.11325,60.628898 C60.8846255,60.628898 61.5110551,60.8847933 61.9242825,61.3691759 C62.3404089,61.8567211 62.5040659,62.5390207 62.3846833,63.2901037 M66.1709321,58.0024792 L63.4541197,58.0024792 C63.2214157,58.0024792 63.0232352,58.1716706 62.9871305,58.4017392 L62.8674843,59.1612554 L62.677737,58.8861218 C62.0892568,58.032259 60.7784192,57.747111 59.4688993,57.747111 C56.4679931,57.747111 53.9042962,60.0211796 53.4051554,63.2110425 C53.1455706,64.8022844 53.5139966,66.3231617 54.4163504,67.3844288 C55.2454407,68.3597826 56.4284624,68.765631 57.8375996,68.765631 C60.2568777,68.765631 61.5985492,67.2115479 61.5985492,67.2115479 L61.4773218,67.9665841 C61.4317297,68.2538404 61.6536287,68.5134252 61.944311,68.5134252 L64.3907335,68.5134252 C64.7783977,68.5134252 65.1086107,68.2314397 65.1692245,67.8482555 L66.6376577,58.5490569 C66.6832498,58.2620641 66.4613509,58.0024792 66.1709321,58.0024792 M49.8690038,58.0678367 C49.5588196,60.1041941 48.0036824,60.1041941 46.4994081,60.1041941 L45.6437005,60.1041941 L46.2437763,56.3018691 C46.2804081,56.0720641 46.478325,55.9028727 46.711029,55.9028727 L47.1034369,55.9028727 C48.1272817,55.9028727 49.0947294,55.9028727 49.5930796,56.4863457 C49.8914045,56.8355334 49.981798,57.3528583 49.8690038,58.0678367 M49.2143757,52.7546488 L43.5411952,52.7546488 C43.1532674,52.7546488 42.8230544,53.0371615 42.7627042,53.4203456 L40.4686067,67.9668469 C40.4232782,68.2541032 40.6451771,68.5134245 40.9358594,68.5134245 L43.8466356,68.5134245 C44.1180796,68.5134245 44.3492024,68.3157711 44.391632,68.047753 L45.0420435,63.9236485 C45.1023937,63.5404644 45.4326067,63.2582153 45.820798,63.2582153 L47.6157547,63.2582153 C51.3524587,63.2582153 53.5092529,61.4500818 54.072697,57.8657028 C54.326484,56.2981794 54.082975,55.0664033 53.3490219,54.2038437 C52.5423324,53.2561615 51.1123757,52.7546488 49.2143757,52.7546488" id="Fill-6" fill="#0099E3"></path>
                                <path d="M40.5651676,58.7451031 L31.484442,71.850579 C31.3371243,72.062727 31.0951965,72.1897523 30.8366659,72.1897523 L28.108785,72.1897523 C27.7250738,72.1897523 27.5010666,71.756496 27.7229655,71.443413 L30.5509908,67.4531857 L27.5442868,58.6283558 C27.4399258,58.3215977 27.6678861,58.0027169 27.9920377,58.0027169 L30.6761713,58.0027169 C31.0243048,58.0027169 31.3313265,58.2314677 31.4312074,58.5648432 L33.0271929,63.8954242 L36.7936766,58.348215 C36.9404672,58.132114 37.1847669,58.0027169 37.4459329,58.0027169 L40.1761856,58.0027169 C40.558052,58.0027169 40.7823228,58.431493 40.5651676,58.7451031 M21.9222325,63.2900783 C21.6597487,64.8423166 20.427709,65.8840819 18.8562325,65.8840819 C18.0682541,65.8840819 17.4373444,65.6305584 17.0320231,65.1509195 C16.6301278,64.6752335 16.478857,63.9976776 16.6061459,63.2426415 C16.8509726,61.7043708 18.1027776,60.6288726 19.6505357,60.6288726 C20.4219112,60.6288726 21.0483408,60.8847679 21.4615682,61.3691506 C21.8776946,61.8569592 22.0413516,62.5389953 21.9222325,63.2900783 M25.7082192,58.002717 L22.9916704,58.002717 C22.7587028,58.002717 22.5605223,58.1716448 22.5244176,58.4017134 L22.405035,59.1612297 L22.2150241,58.8860961 C21.6268075,58.0322333 20.3157064,57.7470853 19.00645,57.7470853 C16.0052802,57.7470853 13.4415834,60.0211539 12.9424426,63.2110167 C12.6828577,64.8022586 13.0515473,66.3231359 13.9536375,67.3844031 C14.7827278,68.3597569 15.9657495,68.7656053 17.3751503,68.7656053 C19.7941648,68.7656053 21.1358364,67.2115222 21.1358364,67.2115222 L21.0146089,67.9665583 C20.9692804,68.2538146 21.1909158,68.5133995 21.4815981,68.5133995 L23.9280206,68.5133995 C24.3159484,68.5133995 24.6461614,68.2314139 24.7065116,67.8482298 L26.1749448,58.5490311 C26.2205369,58.2620383 25.998638,58.002717 25.7082192,58.002717 M9.40655434,58.0678109 C9.09637023,60.1041684 7.54096952,60.1041684 6.03669516,60.1041684 L5.18098759,60.1041684 L5.78132693,56.3018434 C5.81743162,56.0720383 6.01561213,55.902847 6.2483161,55.902847 L6.64072404,55.902847 C7.66456879,55.902847 8.63201644,55.902847 9.13063015,56.4863199 C9.42895506,56.8355077 9.51908502,57.3528326 9.40655434,58.0678109 M8.75166279,52.7548867 L3.07848227,52.7548867 C2.69081801,52.7548867 2.36034148,53.0371358 2.2999913,53.4203199 L0.005893819,67.9668222 C-0.039434701,68.2540785 0.182464217,68.5133998 0.473146528,68.5133998 L3.18178913,68.5133998 C3.56971693,68.5133998 3.89992993,68.2314143 3.96054365,67.8482301 L4.57933065,63.9236235 C4.63994437,63.5404394 4.97015737,63.2581903 5.35782163,63.2581903 L7.15304185,63.2581903 C10.8897458,63.2581903 13.0465401,61.4500566 13.6102476,57.8656775 C13.8637711,56.298154 13.6202621,55.0663778 12.8865725,54.2040817 C12.0796195,53.2561358 10.6496628,52.7548867 8.75166279,52.7548867" id="Fill-9" fill="#00288D"></path>
                                <path d="M35.4278567,11.0685922 L48.762756,11.0685922 C55.9211654,11.0685922 58.6167114,14.6616487 58.2006089,19.9493692 C57.5143322,28.6660034 52.1989577,33.4862069 45.1489621,33.4862069 L41.5895473,33.4862069 C40.6234597,33.4862069 39.973321,34.1192319 39.7100303,35.8401725 L38.1829443,45.8334355 C38.0841672,46.4821581 37.7396522,46.863338 37.2223635,46.9097485 L28.861077,46.9097485 C28.0743024,46.9097485 27.7944915,46.3128964 28.0003057,45.0202287 L33.1064243,12.964937 C33.3108618,11.6801182 34.0198538,11.0685922 35.4278567,11.0685922" id="Fill-1" fill="#0099E3"></path>
                                <path d="M27.1448498,0 L40.5064103,0 C44.2696139,0 48.7328844,0.121034625 51.7188485,2.73456196 C53.7132809,4.48033257 54.7599359,7.26173561 54.5180821,10.2475983 C53.698811,20.3727943 47.5959648,26.0436426 39.4122114,26.0436426 L32.8222124,26.0436426 C31.7007964,26.0436426 30.9573199,26.7814751 30.640705,28.7788883 L28.8019961,40.3882971 C28.6827918,41.1418573 28.3537742,41.585309 27.753274,41.6389882 L19.5223212,41.6389882 C18.6089958,41.6389882 18.284457,40.9456034 18.5235546,39.4439535 L24.450006,2.20289856 C24.6877255,0.710480088 25.5100973,0 27.1448498,0" id="Fill-8" fill="#00288D"></path>
                                <path d="M30.8340047,27.6714801 L33.1729652,12.9735887 C33.3780947,11.6830187 34.0894868,11.0685922 35.5022562,11.0685922 L48.8822981,11.0685922 C51.0969376,11.0685922 52.8864685,11.411807 54.2888779,12.0444057 C52.944485,21.0811385 47.0578882,26.1021552 39.3486082,26.1021552 L32.7433673,26.1021552 C31.8738113,26.1021552 31.2242344,26.5434314 30.8340047,27.6714801" id="Fill-10" fill="#001B6C"></path>
                            </g>
                        </g>
                    </g>
                </g>
            </g>
        </g>
    </g>
</svg>