<?xml version="1.0" encoding="UTF-8"?>
<svg width="62px" height="73px" viewBox="0 0 62 73" version="1.1" xmlns="http://www.w3.org/2000/svg" xmlns:xlink="http://www.w3.org/1999/xlink">
    <!-- Generator: sketchtool 53.2 (72643) - https://sketchapp.com -->
    <title>5CBC9832-1212-4002-9A77-F357E37D24B9</title>
    <desc>Created with sketchtool.</desc>
    <g id="Comprar-producto-(Desktop-|-1280)" stroke="none" stroke-width="1" fill="none" fill-rule="evenodd">
        <g id="[5.3]-Comprar-producto-(Desktop-|-1280)" transform="translate(-563.000000, -602.000000)" fill="#008BD2">
            <g id="Páginas-/-Desktop-/-Inicio">
                <g id="Componentes-/-Desktop-/-Checkout-/-Contenido-/-C" transform="translate(170.000000, 144.000000)">
                    <g id="Moléculas-/-Desktop-/-Ícono-Compuesto-/-Medio-de-pago-/-Pagar-Copy-6" transform="translate(355.000000, 403.000000)">
                        <g id="Icono" style="mix-blend-mode: multiply;" transform="translate(32.000000, 55.000000)">
                            <path d="M28.852409,50.8218511 C27.630164,50.8218511 26.5671917,51.0711475 25.3934209,51.528191 L25.3934209,58.1103093 L27.3877924,58.1103093 L27.3877924,52.2206811 C27.7582746,52.1341198 28.3226541,52.019859 28.852409,52.019859 C29.9326936,52.019859 30.320488,52.5807759 30.320488,54.3708628 L30.320488,58.1103093 L32.3425591,58.1103093 L32.3425591,54.3708628 C32.3425591,52.0683333 31.4527094,50.8218511 28.852409,50.8218511 L28.852409,50.8218511 Z M42.8891828,57.0404124 C44.2291511,57.0404124 44.4645978,56.3963966 44.4645978,54.4193373 C44.4645978,52.5807759 43.8621314,52.0198589 42.8891828,52.0198589 C41.6807876,52.0198589 41.2479813,52.4215032 41.2479813,54.402025 C41.2479813,56.4621831 41.5284398,57.0404124 42.8891828,57.0404124 L42.8891828,57.0404124 Z M42.8891822,58.2488075 C40.0153482,58.2488075 39.1635853,57.0577245 39.1635853,54.402025 C39.1635853,51.8536614 40.3858304,50.8218511 42.8891822,50.8218511 C45.1709371,50.8218511 46.5316802,51.9021357 46.5316802,54.4193372 C46.5316802,56.8984518 45.7907158,58.2488075 42.8891822,58.2488075 L42.8891822,58.2488075 Z M22.315302,54.5889972 C22.315302,54.5889972 21.6401241,54.5889972 20.9718712,54.6859458 C20.2966934,54.7586573 19.901974,55.1118272 19.901974,55.8181671 C19.901974,56.3479221 20.078559,56.808428 20.8056736,56.946926 C21.2800293,57.0404121 21.7613099,57.0092501 22.315302,56.946926 L22.315302,54.5889972 Z M24.3339106,58.0306733 C23.1116656,58.2072583 21.8651834,58.3111318 20.5009779,58.2072583 C18.8390016,58.0064362 17.8175787,57.1615982 17.8175787,55.8181674 C17.8175787,54.5889974 18.5516182,53.7199223 20.4663534,53.5191002 C21.2800292,53.425614 22.3153019,53.425614 22.3153019,53.425614 L22.3153019,53.1486179 C22.3153019,52.3868788 22.0486932,52.0544835 21.3908277,52.0544835 C20.6914126,52.0544835 19.8431123,52.2137563 18.7247408,52.4215033 L18.5066064,51.2165705 C19.6838395,50.9984361 20.5182901,50.8218511 21.3908277,50.8218511 C23.4094363,50.8218511 24.3339106,51.774025 24.3339106,53.2282543 L24.3339106,58.0306733 Z M52.0958379,54.4020249 C52.0958379,56.1851869 52.29666,56.9296138 53.802826,57.016175 C54.394905,57.0404122 54.74115,56.9919379 54.74115,56.9919379 L54.74115,52.1341197 C54.3810552,52.0198589 53.8478378,51.9575348 53.349245,52.0198589 C52.3382094,52.1687442 52.0958379,52.7054241 52.0958379,54.4020249 L52.0958379,54.4020249 Z M50.0010573,54.3708628 C50.0010573,52.1756692 50.7627965,50.821851 53.3492471,50.821851 C53.8824645,50.821851 54.3464329,50.8495506 54.7411523,50.9049498 L54.7411523,48.0969024 L56.7562986,48.0969024 L56.7562986,58.0791474 C55.6552393,58.2072581 54.900425,58.2488075 54.1075238,58.2488075 C50.6970099,58.2488075 50.0010573,56.8638273 50.0010573,54.3708628 L50.0010573,54.3708628 Z M59.6889923,53.9207443 L62.5178143,53.9207443 C62.4728024,52.4595902 62.0676957,52.019859 61.0912847,52.019859 C60.1564231,52.019859 59.7686286,52.4872898 59.6889923,53.9207443 L59.6889923,53.9207443 Z M57.5803616,54.5301356 C57.5803616,51.7982621 58.8545434,50.8218511 61.0081877,50.8218511 C63.3488043,50.8218511 64.5537371,51.9021357 64.5537371,54.2773767 L64.5537371,55.094515 L59.688994,55.094515 C59.7686304,56.4621829 60.0283141,57.0404122 61.2020849,57.0404122 C61.8772628,57.0404122 63.3418794,56.8638272 64.0620691,56.7045545 L64.2975157,57.9094872 C63.1791442,58.1345465 62.1681086,58.2626572 61.2020849,58.2626572 C58.1793655,58.2626572 57.5803616,56.6803173 57.5803616,54.5301356 L57.5803616,54.5301356 Z M15.2172782,55.094515 C15.2172782,53.7199222 14.2304797,53.7199222 13.5206774,53.7199222 L11.3047089,53.7199222 L11.3047089,56.7045545 L13.6107011,56.7045545 C14.7048355,56.7045545 15.2172782,56.4137087 15.2172782,55.094515 L15.2172782,55.094515 Z M11.3047089,52.2864675 L13.5206774,52.2864675 C14.5109383,52.2864675 14.8571834,51.8744359 14.8571834,50.7422146 C14.8571834,49.7450289 14.5109383,49.4888075 13.3475548,49.4888075 L11.3047089,49.4888075 L11.3047089,52.2864675 Z M17.2705115,55.0945149 C17.2705115,57.3762698 15.653547,58.1103093 13.6107011,58.1103093 L9.2861002,58.1103093 L9.2861002,48.0969024 L13.3475548,48.0969024 C15.5669857,48.0969024 16.882717,49.0144518 16.882717,50.7422146 C16.882717,51.8190367 16.529547,52.5046019 15.9374679,52.8923964 C16.6576577,53.2559537 17.2705115,53.8757323 17.2705115,55.0945149 L17.2705115,55.0945149 Z M33.2116332,54.5474479 C33.2116332,51.9575348 33.9352853,50.683353 36.9753169,50.821851 C37.5466213,50.8495506 38.3914592,50.998436 39.0493248,51.0953846 L38.8415778,52.2864676 C38.2079493,52.2137562 37.3146371,52.0198589 36.9129928,52.0198589 C35.5280126,51.9575348 35.2717913,52.5219143 35.2717913,54.5474479 C35.2717913,56.5487444 35.5280126,57.1200488 36.9129928,57.0404124 C37.3146371,57.0404124 38.0867636,56.9607761 38.8415778,56.8084282 L39.0839493,57.9752741 C38.4399335,58.1103097 37.6054829,58.2488077 36.9753169,58.2626575 C33.9352853,58.3630686 33.2116332,57.0992741 33.2116332,54.5474479 L33.2116332,54.5474479 Z" id="Fill-4"></path>
                            <path d="M36.9268432,8.10905935 L46.2581474,17.4334389 L36.9268432,26.747431 L32.9623373,22.7863875 L28.9008828,26.8236049 L36.9268432,34.846103 L54.3464319,17.4334389 L36.9268432,-4.86277685e-14 L19.4934047,17.4334389 L23.5479343,21.491431 L36.9268432,8.10905935 Z M54.3464319,26.8236054 L50.3022896,22.772538 L36.9268432,36.1445227 L27.5990014,26.8236054 L36.9268432,17.4888382 L40.898274,21.4775815 L44.9458786,17.4161268 L36.9268432,9.39362845 L19.4934047,26.8236054 L36.9268432,44.243195 L54.3464319,26.8236054 Z M29.3648509,72.1436197 L31.3696097,72.1436197 L31.3696097,64.9901969 L29.3648509,64.9901969 L29.3648509,72.1436197 Z M26.2659585,71.0841109 C24.9017529,71.1325852 24.6386067,70.5959054 24.6386067,68.5807592 C24.6386067,66.572538 24.9017529,66.0012337 26.2659585,66.0427831 C26.6676028,66.0427831 27.5505277,66.2609174 28.2222432,66.3059293 L28.4022906,65.1390835 C27.7582748,65.0109728 26.9168992,64.8759373 26.3421324,64.8413128 C23.2951758,64.7166645 22.5472865,66.0012337 22.5472865,68.5807592 C22.5472865,71.1325852 23.2951758,72.4102294 26.3421324,72.2717314 C26.9480613,72.2717314 27.7894368,72.160933 28.4334527,72.0328223 L28.2222432,70.8417394 C27.4466542,70.9975497 26.6676028,71.077186 26.2659585,71.0841109 L26.2659585,71.0841109 Z M37.1068901,66.1535835 C36.7537201,66.042785 36.2205028,66.0012356 35.7080601,66.042785 C34.6935621,66.1812831 34.4581155,66.7733621 34.4581155,68.4388008 C34.4581155,70.1977257 34.6762499,70.9802395 36.1720285,71.0771881 L36.5113486,71.0771881 C36.6948585,71.0771881 36.9268427,71.0183265 37.1068901,71.0183265 L37.1068901,66.1535835 Z M37.1068902,62.1336741 L39.1012618,62.1336741 L39.1012618,72.098607 C37.9482657,72.2094054 37.2557756,72.2717295 36.4455621,72.2717295 C33.0523605,72.2717295 32.3771826,70.8659746 32.3771826,68.4284094 C32.3771826,66.212441 33.1493091,64.8239983 35.7080601,64.8239983 C36.2205028,64.8239983 36.6948586,64.875935 37.1068902,64.9417216 L37.1068902,62.1336741 Z M65.7378928,67.9471319 C65.6755686,66.4894402 65.2531497,66.0427841 64.2975134,66.0427841 C63.379964,66.0427841 62.9610075,66.4894402 62.8986834,67.9471319 L65.7378928,67.9471319 Z M67.7530397,69.1416763 L62.8986842,69.1416763 C62.9610083,70.4781823 63.2414668,71.0771862 64.4186999,71.0771862 C65.0938778,71.0771862 66.5550319,70.8659767 67.2682967,70.7309412 L67.4968184,71.9289491 C66.3957591,72.1782456 65.3985734,72.2717317 64.4186999,72.2717317 C61.4098305,72.2717317 60.783127,70.7309412 60.783127,68.5807593 C60.783127,65.8419608 62.0676961,64.8413126 64.2248027,64.8413126 C66.5619568,64.8413126 67.7530397,65.9458343 67.7530397,68.3349253 L67.7530397,69.1416763 Z M59.0969157,70.9802348 C58.7506707,70.9144482 58.6952715,70.6166774 58.6952715,69.7891518 L58.6952715,66.2436024 L60.2776113,66.2436024 L60.2776113,65.01097 L58.6952715,65.01097 L58.6952715,63.3109067 L56.6351134,63.3109067 L56.6351134,65.01097 L55.3886312,65.01097 L55.3886312,66.2436024 L56.6351134,66.2436024 L56.6351134,69.7891518 C56.6351134,71.4615154 56.9259592,72.2717288 58.7091213,72.2717288 C58.9965046,72.2717288 59.6405204,72.2717288 60.5095955,72.0986063 L60.2776113,70.9144482 C59.7374691,70.9802348 59.3981489,71.0079344 59.0969157,70.9802348 L59.0969157,70.9802348 Z M51.4656726,64.8240008 C50.2468899,64.8240008 49.18738,65.0975344 48.0205341,65.5545779 L48.0205341,72.1297715 L50.0114433,72.1297715 L50.0114433,66.2747676 C50.3750006,66.1812814 50.9532299,66.0427834 51.4656726,66.0427834 C52.5459572,66.0427834 52.9476015,66.6452498 52.9476015,68.4284118 L52.9476015,72.1297715 L54.9662103,72.1297715 L54.9662103,68.4284118 C54.9662103,66.1051075 54.072898,64.8240008 51.4656726,64.8240008 L51.4656726,64.8240008 Z M45.0220514,67.926354 C44.9701146,66.4755872 44.5857826,66.0427809 43.5851344,66.0427809 C42.6883597,66.0427809 42.2694032,66.489437 42.2105416,67.926354 L45.0220514,67.926354 Z M47.085673,68.3106881 L47.085673,69.1416763 L42.2105425,69.1416763 C42.2694042,70.4781823 42.56025,71.0771862 43.7409457,71.0771862 C44.3918864,71.0771862 45.8495782,70.8659767 46.5801552,70.7136289 L46.7982896,71.9289491 C45.7041552,72.1609333 44.6965821,72.2717317 43.7063212,72.2717317 C40.6974516,72.2717317 40.0811354,70.7136289 40.0811354,68.5807593 C40.0811354,65.8419608 41.3518548,64.8413126 43.5228113,64.8413126 C45.8495782,64.8413126 47.085673,65.9458343 47.085673,68.3106881 L47.085673,68.3106881 Z M29.3648509,63.8925997 L31.3696097,63.8925997 L31.3696097,62.3968211 L29.3648509,62.3968211 L29.3648509,63.8925997 Z M13.4756652,66.974179 C13.4756652,64.2942422 12.4473174,63.4043924 10.8545901,63.4043924 C8.88445581,63.4043924 8.14695386,64.1557442 8.14695386,66.9568667 C8.14695386,69.9103371 8.60053487,70.8486612 10.8545901,70.8486612 C13.0705585,70.8486612 13.4756652,69.7476019 13.4756652,66.974179 L13.4756652,66.974179 Z M15.5323612,66.9741831 C15.5323612,70.447021 14.600962,72.2717324 10.8545904,72.2717324 C7.10821873,72.2717324 6.08333333,70.6963175 6.08333333,66.9568709 C6.08333333,63.4043966 7.57218712,62.0298038 10.8545904,62.0298038 C13.8426853,62.0298038 15.5323612,63.484033 15.5323612,66.9741831 L15.5323612,66.9741831 Z M21.9829063,70.8417394 L22.2252779,72.0328223 C21.5674123,72.160933 20.7468114,72.2717314 20.1166454,72.2717314 C17.0800762,72.4102294 16.3391117,71.1325852 16.3391117,68.5807592 C16.3391117,66.0012337 17.0800762,64.7166645 20.1166454,64.8413128 C20.6914122,64.8759373 21.5293253,65.0109728 22.1837285,65.1390835 L21.9829063,66.3059293 C21.342353,66.2609174 20.4663529,66.0427831 20.0439339,66.0427831 C18.7039655,66.0012337 18.4061948,66.572538 18.4061948,68.5807592 C18.4061948,70.5959054 18.7039655,71.1325852 20.0439339,71.0841109 C20.4663529,71.077186 21.2280921,70.9975497 21.9829063,70.8417394 L21.9829063,70.8417394 Z" id="Fill-1"></path>
                        </g>
                    </g>
                </g>
            </g>
        </g>
    </g>
</svg>