<?xml version="1.0" encoding="UTF-8"?>
<svg width="57px" height="73px" viewBox="0 0 57 73" version="1.1" xmlns="http://www.w3.org/2000/svg" xmlns:xlink="http://www.w3.org/1999/xlink">
    <!-- Generator: sketchtool 53.2 (72643) - https://sketchapp.com -->
    <title>C43F928B-06BA-4250-A7D3-2B3C11E693C9</title>
    <desc>Created with sketchtool.</desc>
    <g id="Comprar-producto-(Desktop-|-1280)" stroke="none" stroke-width="1" fill="none" fill-rule="evenodd">
        <g id="[5.3]-Comprar-producto-(Desktop-|-1280)" transform="translate(-415.000000, -602.000000)" fill="#D21A1D">
            <g id="Páginas-/-Desktop-/-Inicio">
                <g id="Componentes-/-Desktop-/-Checkout-/-Contenido-/-C" transform="translate(170.000000, 144.000000)">
                    <g id="Moléculas-/-Desktop-/-Ícono-Compuesto-/-Medio-de-pago-/-Pagar-Copy-5" transform="translate(206.000000, 403.000000)">
                        <g id="Icono" style="mix-blend-mode: multiply;" transform="translate(32.000000, 55.000000)">
                            <path d="M32.3515151,25.5430476 C31.1070389,26.8153333 28.2113722,26.9752381 24.4779436,26.1861429 C23.4142293,25.9358571 18.5788483,24.5870952 19.0064198,21.7470476 C19.2671341,19.9533333 21.7039436,19.1955238 25.4721341,19.4492857 C26.4489436,19.5118571 28.061896,19.5918095 29.0804198,19.8108095 C27.9332769,19.1711904 26.5532293,18.6636666 25.0271817,18.3403809 C20.2230864,17.339238 15.8917531,18.6219523 15.3529436,21.2290952 C14.8002293,23.8292857 18.0713245,26.6728095 22.8649912,27.6704762 C27.2484674,28.6855238 31.6458484,27.2046667 32.3515151,25.5430476 L32.3515151,25.5430476 Z M50.820516,6.79942838 C55.5759447,12.9974758 51.5261827,22.8142374 41.7650395,28.6889992 C32.0004202,34.5846181 20.3065152,34.4177609 15.5302293,28.2197135 C10.4619435,21.6601422 14.741134,12.1458092 24.4953248,6.26061887 C32.1255631,1.67204757 40.9446586,0.879476167 46.7325159,3.66042847 C42.9330396,6.14590459 38.9319442,10.3034283 36.0432299,17.3392376 C36.0432299,17.3392376 32.9250869,10.9430473 21.1859914,11.9615711 C21.1859914,11.9615711 36.5090394,13.7622377 36.0223727,27.3680468 C36.0223727,27.3680468 40.843849,4.65114272 57.8667543,0.0243333345 C55.3569447,1.00114283 51.0777541,4.05671417 49.5864683,5.49933318 C50.0661826,5.90604745 50.4659445,6.37185696 50.820516,6.79942838 L50.820516,6.79942838 Z" id="Fill-1"></path>
                            <path d="M59.663596,66.5631374 C59.6149294,66.7334707 59.663596,66.8620898 59.7574532,66.9524707 C59.8721675,67.0567564 60.0842151,67.1367088 60.4700722,67.2340422 C60.6334532,67.2827088 60.8767865,67.3313755 61.1548818,67.3696136 C61.3982151,67.4182803 61.6311199,67.4843279 61.8431675,67.5503755 C62.3889294,67.7346136 62.7295961,67.9675184 62.9555485,68.3012327 C63.1536914,68.6210422 63.2232152,69.0590422 63.1119771,69.583947 C63.0702628,69.9246137 62.9242628,70.2374708 62.6878818,70.5781375 C62.4654056,70.8597089 62.1838342,71.1238994 61.8257866,71.3428994 C61.4399294,71.5584232 61.0262627,71.7218042 60.5847865,71.8608518 C60.0981198,71.9790423 59.5732151,72.0207566 58.950977,72.0207566 C58.3878341,72.0207566 57.8733579,71.9790423 57.400596,71.8608518 C56.9174055,71.7218042 56.5385007,71.6105661 56.2499769,71.4576137 L56.6115007,69.5422327 L56.8165959,69.5422327 C56.9000245,69.6534708 57.018215,69.7368994 57.1364055,69.8342327 C57.2580721,69.9246137 57.4318817,70.0080422 57.675215,70.1262327 C57.8733579,70.2374708 58.1201674,70.3174232 58.3565484,70.3904232 C58.6276912,70.4703756 58.9127389,70.4808041 59.242977,70.4808041 C59.5732151,70.4808041 59.8860722,70.4703756 60.1606913,70.3417565 C60.4214056,70.2618041 60.5917389,70.077566 60.6230246,69.875947 C60.6786437,69.7368994 60.6230246,69.583947 60.5535008,69.5005184 C60.4214056,69.4031851 60.2128341,69.3232327 59.8860722,69.2363279 C59.7261675,69.218947 59.517596,69.1702803 59.242977,69.1146613 C58.9683579,69.0590422 58.7597865,68.9929946 58.5477388,68.9512803 C57.984596,68.7496612 57.6056912,68.4854708 57.3519293,68.1517565 C57.1294531,67.814566 57.0703579,67.3696136 57.1676912,66.7821374 C57.2406912,66.4692802 57.3519293,66.1494707 57.5639769,65.8852802 C57.7899293,65.5932802 58.0784531,65.3290897 58.4191198,65.1274707 C58.7667389,64.9084707 59.169977,64.7311849 59.6288341,64.6025659 C60.0981198,64.4669945 60.6230246,64.4009468 61.1965961,64.4009468 C61.7110723,64.4009468 62.197739,64.4669945 62.6322628,64.5538992 C63.0702628,64.6825183 63.4074533,64.7972326 63.6994533,64.9501849 L63.3205485,66.7821374 L63.1328342,66.7821374 C63.0841676,66.7160898 62.9729295,66.5874707 62.8269295,66.5318517 C62.6565961,66.4171374 62.5036437,66.3406612 62.3506913,66.2502802 C62.1838342,66.1494707 61.9544056,66.0868993 61.7458342,66.0173755 C61.5025008,65.9652326 61.2522151,65.9478516 61.0088818,65.9478516 C60.6334532,65.9478516 60.3518818,65.9965183 60.0842151,66.1459945 C59.809596,66.2502802 59.7087865,66.3788993 59.663596,66.5631374 L59.663596,66.5631374 Z M53.1909289,70.0288997 C52.9719289,70.1853283 52.7564051,70.3208997 52.5443575,70.4078045 C52.2766908,70.4981854 52.0750717,70.5607569 51.8734527,70.5607569 C51.5015003,70.5607569 51.2199289,70.4773283 51.0739288,70.3417569 C50.8827384,70.2374711 50.8410241,70.0045664 50.9140241,69.6569473 C50.9348812,69.4309949 51.0426431,69.2363282 51.1886431,69.1146616 C51.3172622,68.9686616 51.5015003,68.8574235 51.7205003,68.8191854 C51.9812146,68.7531377 52.2349765,68.6905663 52.4783099,68.6071377 C52.735548,68.6071377 53.0762146,68.5897568 53.4620718,68.5445663 L53.1909289,70.0288997 Z M52.8676432,64.480899 C52.3427385,64.480899 51.7900242,64.5573752 51.2442623,64.6373276 C50.7263099,64.699899 50.3161194,64.7798514 50.0762622,64.845899 L49.7321194,66.5909466 L49.9233099,66.5909466 C50.3161194,66.434518 50.7263099,66.3128514 51.1052146,66.2189942 C51.5015004,66.1459942 51.8525956,66.0312799 52.1098337,66.0312799 C52.7216432,66.0903752 53.173548,66.1529466 53.4620718,66.3128514 C53.7471194,66.4623276 53.8375004,66.7334704 53.7540718,67.1367085 L53.7471194,67.1853752 C53.0588337,67.237518 52.3983575,67.2861847 51.7900242,67.3696133 C51.1747384,67.4217561 50.6081194,67.5677561 50.1353575,67.7693752 C49.6938813,67.9536132 49.3149765,68.203899 49.0229765,68.5445656 C48.7205479,68.899137 48.5224051,69.3093275 48.4459289,69.8446608 C48.3138336,70.4773275 48.4459289,71.0439465 48.7935479,71.4715179 C49.1620241,71.892137 49.6591194,72.111137 50.3161194,72.111137 C50.6811194,72.111137 51.0113575,72.111137 51.2199289,72.0450894 C51.4285004,71.9825179 51.640548,71.892137 51.8734527,71.8052322 C52.1237385,71.7044227 52.3045004,71.6105656 52.4470242,71.4888989 C52.6069289,71.4089465 52.7703099,71.3046608 52.971929,71.1586608 L52.8189766,71.9095179 L55.1932147,71.9408037 L56.12831,67.018518 C56.3055957,66.2016133 56.12831,65.5341847 55.5964528,65.1518038 C55.0819766,64.699899 54.1746909,64.480899 52.8676432,64.480899 L52.8676432,64.480899 Z M49.040357,61.9780426 L47.1180236,71.909519 L44.7298808,71.909519 L46.631357,61.9641378 L49.040357,61.9780426 Z M45.1296431,61.9641378 L43.193405,71.909519 L40.8191669,71.909519 L42.7415002,61.9641378 L45.1296431,61.9641378 Z M38.2850234,64.7311852 L40.6453567,64.7311852 L39.3035472,71.9095183 L36.9119281,71.9095183 L38.2850234,64.7311852 Z M38.7543082,61.9606608 L41.2397845,61.9606608 L40.9130226,63.6952799 L38.4171178,63.677899 L38.7543082,61.9606608 Z M38.0590719,62.3882331 L32.7474529,71.9129948 L30.0985958,71.9129948 L28.4508815,62.3604236 L31.0684529,62.3638998 L32.0348338,68.8330901 L35.4901671,62.3882331 L38.0590719,62.3882331 Z M24.2516429,62.3882331 L26.8101192,62.3882331 L21.4915476,71.9129948 L18.8600713,71.9129948 L17.2054046,62.3604236 L19.8368809,62.3638998 L20.7789285,68.8330901 L24.2516429,62.3882331 Z M12.0675953,68.2004229 L13.7153097,64.9953751 L14.1602621,68.2178038 L12.0675953,68.2004229 Z M12.8705952,62.3604236 L7.60416667,71.9060424 L10.1417857,71.9060424 L11.1603095,69.9698044 L14.3862142,69.9698044 L14.6434523,71.9060424 L17.212357,71.9060424 L15.6306904,62.3638998 L12.8705952,62.3604236 Z M52.7181659,52.1265182 C52.8154992,51.6746135 52.9302135,51.3130897 53.0762135,51.0280421 C53.1909278,50.7673278 53.3543088,50.5031373 53.5246421,50.3501849 C53.6984517,50.1555183 53.8826898,50.0338516 54.0599755,49.9886611 C54.2233565,49.9226135 54.4632136,49.9226135 54.6544041,49.9226135 C54.8838327,49.9226135 55.0750232,49.9226135 55.2557851,49.9886611 C55.4156898,50.0686135 55.5582137,50.2041849 55.6277375,50.3918992 C55.7424518,50.5448516 55.7876422,50.7777564 55.8224041,51.0523754 C55.8432613,51.3269944 55.801547,51.7163277 55.7424518,52.1265182 C55.6277375,52.561042 55.5582137,52.9608039 55.4261184,53.2145658 C55.3079279,53.4439943 55.1410708,53.6768991 54.981166,53.8611372 C54.8073565,54.0210419 54.6335469,54.1531372 54.4249755,54.2087562 C54.2059755,54.2991372 54.0356422,54.3130419 53.8514041,54.3130419 C53.5802612,54.3130419 53.3821183,54.2991372 53.2152612,54.2087562 C53.0414516,54.1288038 52.919785,54.0001848 52.8154992,53.8298515 C52.7181659,53.6768991 52.6694992,53.4439943 52.6382135,53.1937086 C52.6069278,52.926042 52.6555945,52.5367087 52.7181659,52.1265182 L52.7181659,52.1265182 Z M50.7819299,54.8970418 C51.3415966,55.5644703 52.2558347,55.9120894 53.4968347,55.9120894 C54.741311,55.9120894 55.7702634,55.5992322 56.6149777,54.9109465 C57.4318824,54.2191847 57.9672158,53.2979942 58.1688348,52.1265181 C58.3878349,50.9550419 58.2383587,50.0095182 57.6752158,49.293423 C57.1294539,48.6538039 56.2430253,48.3166135 54.9811681,48.3166135 C53.7158347,48.2783754 52.6903585,48.6503278 51.8699775,49.293423 C51.056549,49.988661 50.528168,50.9063753 50.2709299,52.1091371 C50.0658346,53.2840895 50.2292156,54.2087561 50.7819299,54.8970418 L50.7819299,54.8970418 Z M43.700929,54.9978513 C43.3706909,54.6780418 43.13431,54.3026132 43.0230719,53.8020418 C42.9014052,53.3327561 42.9014052,52.7765656 43.0230719,52.1299942 C43.1621195,51.4451847 43.3845957,50.8611847 43.700929,50.3536609 C44.0311671,49.8774228 44.4205004,49.4915657 44.8758814,49.1856609 C45.3208338,48.893661 45.8005481,48.65728 46.34631,48.5182324 C46.8712147,48.3757086 47.44131,48.3131372 47.9905481,48.3131372 C48.4250719,48.3131372 48.8248338,48.3618038 49.2280719,48.455661 C49.6174052,48.5529943 50.0241195,48.7059467 50.4238814,48.893661 L50.0449767,50.7986133 L49.7460243,50.7986133 C49.6625957,50.7151847 49.5548338,50.62828 49.4435957,50.537899 C49.3288814,50.4266609 49.1967862,50.3293276 49.0368814,50.2424228 C48.8735005,50.1624704 48.68231,50.0720895 48.5050243,50.0129943 C48.2929767,49.9260895 48.0635481,49.9260895 47.8167386,49.9260895 C47.1840719,49.9260895 46.7008814,50.11728 46.27331,50.5066133 C45.8387862,50.9098514 45.5919766,51.4764704 45.452929,52.1543275 C45.3208338,52.8982323 45.4077385,53.4300894 45.6754052,53.7707561 C45.9743576,54.1566132 46.4088814,54.316518 46.9894052,54.316518 C47.2744528,54.316518 47.5560243,54.3026132 47.8167386,54.2122323 C48.0183576,54.1566132 48.2477862,54.0662323 48.4389767,54.0036608 C48.5849767,53.9132799 48.7622624,53.8020418 48.8735005,53.6908037 C49.0229767,53.5969466 49.1272624,53.5169942 49.2280719,53.4474704 L49.5305005,53.4474704 L49.1655005,55.3837084 C49.0229767,55.449756 48.8422148,55.4879941 48.6545005,55.5540417 C48.4911195,55.6166132 48.2616909,55.6965656 48.0635481,55.7452322 C47.8236909,55.7869465 47.6185957,55.8495179 47.3822147,55.8842798 C47.1632147,55.9155655 46.9094528,55.9155655 46.6105005,55.9155655 C45.9743576,55.9155655 45.4077385,55.8495179 44.8897862,55.6965656 C44.4031195,55.5366608 44.0033576,55.321137 43.700929,54.9978513 L43.700929,54.9978513 Z M36.6964035,55.8495183 L34.3117367,55.8495183 L35.702213,48.6086134 L38.0764511,48.6433753 L37.9130702,49.3768515 C38.3962607,49.0674705 38.7994988,48.8276134 39.2062131,48.65728 C39.6094512,48.5043276 40.0300702,48.4069943 40.4958798,48.4069943 C41.2571655,48.4069943 41.8237846,48.65728 42.1262132,49.1022324 C42.4321179,49.5819467 42.4981655,50.2389467 42.3695465,51.1149468 L41.4414036,55.8495183 L39.0602131,55.8321374 L39.7554512,52.2551373 C39.8006417,51.9735658 39.8493083,51.6607087 39.9084036,51.3582801 C39.9327369,51.0871372 39.9084036,50.8611849 39.8910226,50.7708039 C39.8180226,50.5622325 39.7380702,50.4892325 39.5677369,50.3918991 C39.4286893,50.3293277 39.2374988,50.2702325 38.9837369,50.2702325 C38.7994988,50.2702325 38.5804988,50.3293277 38.3962607,50.3779944 C38.1459749,50.4579468 37.9130702,50.5448515 37.673213,50.7082325 L36.6964035,55.8495183 Z M28.5238814,53.5865184 C28.5621195,53.3292802 28.6525004,53.1658993 28.8054528,53.0233755 C28.9340719,52.8947564 29.1113576,52.7765659 29.3477386,52.7313755 C29.6223576,52.6201374 29.8552624,52.5645183 30.1159767,52.5367088 C30.3558338,52.5123754 30.6791196,52.4949945 31.0893101,52.4289469 L30.7903577,53.927185 C30.5991672,54.1288041 30.3801672,54.219185 30.1611672,54.3165184 C29.9039291,54.3964708 29.6918814,54.4451374 29.4728814,54.4451374 C29.1113576,54.4451374 28.8367385,54.3860422 28.6976909,54.2713279 C28.5238814,54.1531374 28.4508814,53.9098041 28.5238814,53.5865184 L28.5238814,53.5865184 Z M29.5319755,55.7208989 C29.7405469,55.6200894 29.9352136,55.5088513 30.0777374,55.4010894 C30.2341659,55.321137 30.3940707,55.1959942 30.5991659,55.0812799 L30.418404,55.849518 L32.8239278,55.849518 L33.7624992,50.9272323 C33.9258801,50.0686133 33.7451182,49.46028 33.248023,49.0361848 C32.7057373,48.6503276 31.805404,48.4208991 30.491404,48.4035181 C29.9421659,48.4035181 29.4207374,48.4591372 28.8541184,48.5217086 C28.336166,48.6503276 27.9503089,48.7024705 27.6895946,48.7615657 L27.3663089,50.5031371 L27.5783565,50.5031371 C27.9503089,50.3501847 28.336166,50.2076609 28.7081184,50.1311847 C29.1113564,50.0095181 29.4728802,49.9886609 29.7231659,49.9886609 C30.3558326,49.9886609 30.7903564,50.0512324 31.0649754,50.2076609 C31.3743564,50.3501847 31.4543088,50.6421847 31.3882611,51.0593276 L31.3882611,51.0871371 C30.6791183,51.1114704 30.0151659,51.1879466 29.4207374,51.2887562 C28.8054517,51.3304704 28.2701184,51.4938514 27.8008327,51.6746133 C27.3245946,51.8623276 26.9630708,52.126518 26.657166,52.4567561 C26.382547,52.800899 26.1878803,53.221518 26.107928,53.7359942 C25.9480232,54.3964704 26.0766422,54.9491846 26.4312137,55.3837084 C26.803166,55.7834703 27.3176422,56.0198513 27.988547,56.0198513 C28.3709279,56.0198513 28.6455469,56.0094227 28.8367374,55.9433751 C29.048785,55.8808037 29.2712612,55.8008513 29.5319755,55.7208989 L29.5319755,55.7208989 Z M19.989833,54.0662324 L20.4382616,51.6780895 L20.8936425,51.6780895 L21.978214,51.6780895 C22.2493569,51.7163276 22.4683569,51.7163276 22.6178331,51.7823752 C22.8333569,51.8762323 23.0036903,52.0083276 23.090595,52.1786609 C23.1844522,52.3489943 23.2192141,52.5645181 23.1462141,52.8634705 C23.1044998,53.11028 23.0210712,53.2979943 22.8646426,53.492661 C22.7047379,53.6768991 22.5378807,53.802042 22.2980236,53.9132801 C22.0060235,54.003661 21.7314045,54.0662324 21.4950235,54.0662324 L20.118452,54.0662324 L19.989833,54.0662324 Z M21.1508809,48.035042 L21.335119,48.035042 L22.3223572,48.035042 C22.5552619,48.035042 22.756881,48.0837087 22.8924524,48.1428039 C23.0766905,48.2227563 23.1566429,48.3583277 23.2365953,48.5043277 C23.267881,48.6572801 23.267881,48.8241373 23.267881,48.9562325 C23.2365953,49.1856611 23.1462143,49.3768516 23.0210715,49.5680421 C22.9445953,49.6897087 22.7846905,49.821804 22.5552619,49.9226135 C22.3397381,49.9886611 22.1589762,50.0129945 21.9782143,50.0129945 C21.8322143,50.0129945 21.4950238,50.0373278 21.0883095,50.0373278 L20.7580714,50.0129945 L21.1508809,48.035042 Z M22.9445949,55.6374704 C23.403452,55.540137 23.8657853,55.3350418 24.3037853,55.0847561 C24.6583568,54.8205656 24.9712139,54.5250894 25.228452,54.1600894 C25.4926425,53.8020418 25.6560234,53.3779466 25.7464044,52.9260418 C25.8889282,52.2690419 25.7915948,51.7754228 25.4926425,51.3443752 C25.1902139,50.9898038 24.7383091,50.7151847 24.1404044,50.6039467 L24.1404044,50.5483276 C24.6235948,50.3953752 25.0198806,50.1311848 25.3362139,49.7557562 C25.6316901,49.3768514 25.8367853,48.9562324 25.9271663,48.5043277 C26.0210234,48.1184705 25.9793091,47.7673753 25.8645948,47.4371372 C25.7464044,47.159042 25.5169758,46.8844229 25.2180234,46.721042 C24.8982139,46.5507086 24.5644996,46.4186134 24.1786425,46.3908039 C23.8205949,46.3178039 23.2678806,46.2865182 22.5378806,46.2865182 L18.9400235,46.2865182 L17.1289283,55.8043275 L21.1508806,55.8460418 C21.8600235,55.8460418 22.4301187,55.7834704 22.9445949,55.6374704 L22.9445949,55.6374704 Z" id="Fill-4"></path>
                        </g>
                    </g>
                </g>
            </g>
        </g>
    </g>
</svg>