<?xml version="1.0" encoding="UTF-8"?>
<svg width="72px" height="73px" viewBox="0 0 72 73" version="1.1" xmlns="http://www.w3.org/2000/svg" xmlns:xlink="http://www.w3.org/1999/xlink">
    <!-- Generator: sketchtool 53.2 (72643) - https://sketchapp.com -->
    <title>FA38D6EE-6BCB-4521-9D95-13E2EA3CD1C0</title>
    <desc>Created with sketchtool.</desc>
    <g id="Comprar-producto-(Desktop-|-1280)" stroke="none" stroke-width="1" fill="none" fill-rule="evenodd">
        <g id="[5.3]-Comprar-producto-(Desktop-|-1280)" transform="translate(-261.000000, -296.000000)" fill="#002C76" fill-rule="nonzero">
            <g id="Páginas-/-Desktop-/-Inicio">
                <g id="Componentes-/-Desktop-/-Checkout-/-Contenido-/-C" transform="translate(170.000000, 144.000000)">
                    <g id="Moléculas-/-Desktop-/-Ícono-Compuesto-/-Medio-de-pago-/-Pagar" transform="translate(58.000000, 97.000000)">
                        <g id="Icono" style="mix-blend-mode: multiply;" transform="translate(32.000000, 55.000000)">
                            <path d="M48.391548,65.8893451 C47.8835896,66.5159284 47.2113813,66.9341575 46.4342355,67.1440325 C46.0905272,67.2337617 45.9414855,67.41322 45.955173,67.7706158 C45.9703813,68.1143242 45.955173,68.4580325 45.955173,68.8169491 C45.955173,69.1302408 45.7924438,69.2944908 45.4943605,69.2944908 C45.1202355,69.3096991 44.7476314,69.3096991 44.3719855,69.2944908 C44.0450064,69.2944908 43.8944439,69.0998241 43.8944439,68.7865325 L43.8944439,68.024595 C43.8944439,67.4725325 43.8640272,67.4421158 43.3271731,67.3523867 C42.6397564,67.24897 41.9675481,67.0831992 41.3394439,66.7851159 C40.846694,66.546345 40.7873815,66.42772 40.937944,65.9045534 C41.0413606,65.5152201 41.1447773,65.1274076 41.2649231,64.7532826 C41.3987564,64.3046368 41.5189023,64.2605326 41.9386523,64.4688868 C42.6397564,64.8278034 43.3712772,65.0361576 44.1484231,65.1274076 C44.641173,65.1867201 45.133923,65.1426159 45.5977772,64.9327409 C46.4631313,64.5586159 46.5984855,63.5579076 45.8669647,62.9602201 C45.6129855,62.751866 45.343798,62.6028243 45.0457147,62.4826785 C44.2837772,62.1541785 43.4914231,61.9001993 42.7887981,61.4667618 C41.6238398,60.7793452 40.8907981,59.8242619 40.9820481,58.4038036 C41.0717773,56.8054078 41.9827564,55.8199078 43.4457981,55.2815328 C44.0450064,55.0579704 44.0586939,55.0731787 44.0586939,54.4450745 L44.0586939,53.8032829 C44.0739022,53.3242204 44.1484231,53.2496996 44.6259647,53.2360121 L45.060923,53.2360121 C46.0768397,53.2360121 46.0768397,53.2360121 46.0768397,54.2519287 C46.0768397,54.9667204 46.0768397,54.9667204 46.7931522,55.0731787 C47.3315271,55.161387 47.853173,55.3119495 48.3611313,55.535512 C48.6455271,55.6556578 48.7489438,55.8488037 48.6607355,56.1484078 C48.5421105,56.5818453 48.4219646,57.0304911 48.272923,57.4471995 C48.1375688,57.8517411 48.0022146,57.9110536 47.6144021,57.7315953 C46.8235688,57.3437828 46.0023188,57.1932203 45.133923,57.2388453 C44.9103605,57.2525328 44.6852772,57.2844703 44.4784439,57.3726786 C43.7317147,57.7011786 43.5963606,58.5391578 44.239673,59.0471161 C44.5666522,59.3010952 44.9255689,59.4942411 45.3149022,59.6584911 C45.9871105,59.9276786 46.6441105,60.196866 47.2859021,60.5557827 C49.2569021,61.6462202 49.8120063,64.1708034 48.391548,65.8893451 L48.391548,65.8893451 Z M45.0152994,49.5145292 C38.5319867,49.5145292 33.2729449,54.7735708 33.2729449,61.2568833 C33.2729449,67.7417165 38.5319867,73.0007582 45.0152994,73.0007582 C51.498612,73.0007582 56.7576538,67.7417165 56.7576538,61.2568833 C56.7576538,54.7735708 51.498612,49.5145292 45.0152994,49.5145292 L45.0152994,49.5145292 Z M23.6065269,33.4697391 L66.4225475,33.4697391 L66.4225475,28.6745514 L23.6065269,28.6745514 L23.6065269,33.4697391 Z M67.6483382,22.8771358 L22.3670475,22.8771358 C19.8424642,22.8771358 17.7954225,24.9241775 17.7954225,27.4487609 L17.7954225,59.4349283 C17.7954225,61.9595117 19.8424642,64.0065534 22.3670475,64.0065534 L28.447339,64.0065534 C28.2982973,63.1107825 28.2237765,62.1982825 28.2237765,61.272095 C28.2237765,60.2257616 28.3271932,59.209845 28.5066515,58.2091366 L23.6065266,58.2091366 L23.6065266,42.8973862 L66.4225466,42.8973862 L66.4225466,58.1939283 L61.5087342,58.1939283 C61.6881925,59.1961575 61.79313,60.2120741 61.79313,61.2568867 C61.79313,62.1830742 61.7186092,63.0955742 61.5680467,63.9913451 L67.6483382,63.9913451 C70.1729215,63.9913451 72.2199631,61.9443034 72.2199631,59.41972 L72.2199631,27.4487609 C72.2199631,24.9241775 70.1729215,22.8771358 67.6483382,22.8771358 L67.6483382,22.8771358 Z M57.8769828,18.8134682 C58.9400453,18.8134682 59.2381286,17.3808433 58.2815245,16.9458849 L20.9481095,0.394656239 C18.6759846,-0.621260399 16.0023598,0.394656239 14.9864431,2.67894784 L1.91488124,31.9899678 C0.898964617,34.2620928 1.91488124,36.9357177 4.20069363,37.9516343 L11.7303391,41.2077384 C12.6717349,41.6274884 13.746964,40.9400717 13.746964,39.9089468 L13.746964,27.463968 C13.746964,22.6991973 17.6159639,18.8286765 22.3822553,18.8286765 L57.8769828,18.8286765 L57.8769828,18.8134682 Z" id="Forma"></path>
                        </g>
                    </g>
                </g>
            </g>
        </g>
    </g>
</svg>