<?xml version="1.0" encoding="UTF-8"?>
<svg width="54px" height="72px" viewBox="0 0 54 72" version="1.1" xmlns="http://www.w3.org/2000/svg" xmlns:xlink="http://www.w3.org/1999/xlink">
    <!-- Generator: sketchtool 53.2 (72643) - https://sketchapp.com -->
    <title>D6E8F96E-CCB4-4FE8-BD81-D23C50A335E6</title>
    <desc>Created with sketchtool.</desc>
    <g id="Comprar-producto-(Desktop-|-1280)" stroke="none" stroke-width="1" fill="none" fill-rule="evenodd">
        <g id="[5.3]-Comprar-producto-(Desktop-|-1280)" transform="translate(-269.000000, -602.000000)">
            <g id="Páginas-/-Desktop-/-Inicio">
                <g id="Componentes-/-Desktop-/-Checkout-/-Contenido-/-C" transform="translate(170.000000, 144.000000)">
                    <g id="Moléculas-/-Desktop-/-Ícono-Compuesto-/-Medio-de-pago-/-Pagar-Copy-4" transform="translate(58.000000, 403.000000)">
                        <g id="Icono" style="mix-blend-mode: multiply;" transform="translate(32.000000, 55.000000)">
                            <path d="M58.0063407,51.3308952 C58.0414888,51.2119322 58.0847481,49.8546729 59.317637,49.8546729 C60.5505259,49.8546729 60.5505259,51.19571 60.5991925,51.3308952 L58.0063407,51.3308952 Z M59.290599,48.6515247 C58.8742286,48.6515247 58.4984138,48.7164136 58.1009693,48.8570062 C56.7112655,49.3004136 55.9353026,50.5089692 55.9082655,52.2717841 C55.8541914,53.8291175 56.7112655,55.1566361 58.0550063,55.559488 C59.2230064,55.9704509 60.9641916,55.559488 62.0673027,54.9511546 L62.1484139,54.910599 L61.8158583,53.9724138 L61.2021175,54.1373398 C60.3153027,54.3752657 59.1608212,54.8484139 58.4173026,53.9940435 C58.0333767,53.5371175 57.9901174,52.8098212 57.957673,52.2717841 L61.626599,52.3745249 L62.1619324,52.3745249 L62.1619324,52.2717841 C62.2051916,52.0987471 62.2051916,51.9311174 62.2051916,51.8121545 C62.2051916,48.6190803 59.4284879,48.6515247 59.290599,48.6515247 L59.290599,48.6515247 Z M52.9477103,54.2644138 C52.0906362,54.4996361 51.1632658,54.6753768 50.5468214,53.9318583 C50.203451,53.5073768 50.1169325,52.8801175 50.1169325,52.2258212 C50.1169325,52.1474138 50.1520806,52.0663027 50.1520806,52.0041175 C50.1520806,51.2930434 50.3467473,50.849636 50.6955251,50.438673 C51.2903399,49.7924878 52.2690806,49.8790063 52.9936732,50.2331915 C52.9936732,50.2331915 52.9477103,54.1211175 52.9477103,54.2644138 L52.9477103,54.2644138 Z M54.8132661,45.7288211 L54.7186364,45.7288211 L54.513155,45.7693766 L52.0149328,46.08571 L52.0149328,46.9319693 L52.9477106,46.9319693 L52.9477106,49.0949323 C52.2123032,48.8570064 51.1794884,48.6380063 50.2304884,48.9597471 C48.9273032,49.3950434 48.1973032,50.5657471 48.1567477,52.2717842 C48.0945625,53.8047843 48.9273032,55.0538954 50.1818217,55.4973028 C51.128118,55.7893028 52.3312661,55.4324139 53.026118,55.1350065 C53.026118,55.267488 53.0585624,55.6703399 53.0585624,55.6703399 L55.5567846,55.3323769 L55.5567846,54.4996361 L54.7348587,54.4996361 C54.7348587,54.3347102 54.8132661,45.7288211 54.8132661,45.7288211 L54.8132661,45.7288211 Z M22.3255626,54.3347098 C21.96597,54.3752654 21.7226367,54.3752654 21.4171181,54.3752654 C20.2437107,54.3752654 19.6137478,53.6479691 19.6137478,52.2880062 C19.6137478,50.8577469 20.3383404,50.0520432 21.5955626,50.0520432 C21.8253774,50.0520432 22.0011181,50.0520432 22.3255626,50.1061173 L22.3255626,54.3347098 Z M24.150563,48.9921914 L22.325563,48.9921914 L22.325563,49.2841915 C21.8740445,49.0246359 21.3846741,48.9056729 20.8790815,48.9056729 C19.0270444,48.9056729 17.7184518,50.3981174 17.7184518,52.4772656 C17.7184518,54.499636 18.7728963,55.7271175 20.4194519,55.7271175 C20.8358222,55.7271175 21.3981926,55.5594879 22.252563,55.0538953 L22.252563,55.6703398 L22.2823037,55.6703398 L24.9103038,55.4188953 L24.9103038,54.3022656 L24.150563,54.3022656 L24.150563,48.9921914 Z M42.4194875,54.5483026 C41.8057467,54.5483026 41.000043,54.3022656 41.000043,52.2258211 C41.000043,50.1845249 41.7273393,49.9249693 42.4194875,49.9249693 C43.0332282,49.9249693 43.8443393,50.1683026 43.8443393,52.2258211 C43.8443393,54.2644137 43.1251541,54.5483026 42.4194875,54.5483026 L42.4194875,54.5483026 Z M42.4194887,48.6515247 C40.3349331,48.6515247 39.0236367,50.0520432 39.0236367,52.2258209 C39.0236367,54.4374504 40.3051923,55.7893022 42.4194887,55.7893022 C44.5229703,55.7893022 45.7937111,54.3752652 45.7937111,52.2258209 C45.7937111,50.0033765 44.552711,48.6515247 42.4194887,48.6515247 L42.4194887,48.6515247 Z M30.1230443,48.6515247 C30.8665628,48.6515247 31.4181183,48.9218951 31.7614887,49.3950432 C32.0994517,49.797895 32.1481183,50.1547839 32.1481183,51.1821913 L32.1481183,55.6378949 L30.2663406,55.6378949 L30.2663406,51.2768209 C30.2663406,50.8577469 30.2663406,50.5089691 30.0770813,50.2953765 C29.9851554,50.2331913 29.7634517,50.1547839 29.4768591,50.1547839 C28.8982665,50.1547839 28.273711,50.3359321 28.0276739,50.4386728 C28.0276739,50.7063395 28.0060443,55.6378949 28.0060443,55.6378949 L26.1242666,55.6378949 L26.1242666,50.0520432 L25.1130814,50.0520432 L25.1130814,49.0543765 L27.9276369,48.7164136 C27.9276369,48.7164136 27.9600814,49.086821 27.9763036,49.2382284 C28.8279702,48.8732284 29.541748,48.6515247 30.1230443,48.6515247 L30.1230443,48.6515247 Z M14.4604885,54.0589323 C14.0170811,54.3725619 13.3681922,54.3725619 12.5327478,54.3725619 L12.229933,54.3725619 L12.229933,51.2903397 L12.2380441,51.3092656 L12.8923404,51.3092656 C13.6088218,51.3092656 14.1765996,51.3308953 14.5415996,51.6228953 C14.8552292,51.8932656 15.0066366,52.2880064 15.0066366,52.7854878 C15.0066366,53.3045989 14.8065626,53.8074878 14.4604885,54.0589323 L14.4604885,54.0589323 Z M12.229933,47.3888952 L12.6111553,47.3888952 L12.7544516,47.3888952 C13.4790442,47.3888952 14.0333034,47.3888952 14.3631553,47.6863026 C14.6362293,47.8863767 14.7714145,48.2270434 14.7714145,48.6353026 C14.7714145,49.5924138 14.4604886,49.9574138 13.3681923,50.0493397 L12.5624886,50.1520805 L12.229933,50.7847471 L12.229933,47.3888952 Z M15.4554518,50.5981916 C16.3179333,50.2629323 16.7343037,49.6167471 16.7343037,48.5704137 C16.7343037,47.5781544 16.2638593,46.8048952 15.4067852,46.4561174 C14.8227851,46.2263026 14.2685259,46.1884507 12.6192666,46.1884507 L9.12608126,46.1884507 L9.12608126,47.1834137 C9.12608126,47.1834137 9.96963684,47.2915618 10.2318961,47.3375248 L10.2318961,55.6405991 L13.0194147,55.6405991 C14.3631555,55.6405991 14.9471555,55.559488 15.5690074,55.267488 C16.5234148,54.8240805 17.0668593,53.9724139 17.0668593,52.9179694 C17.0668593,51.7040064 16.5044889,50.9415619 15.4554518,50.5981916 L15.4554518,50.5981916 Z M38.4937107,54.0913763 L38.7694885,55.0538948 L38.5964515,55.1350059 C37.5068589,55.5919318 36.7471181,55.7893022 35.9738589,55.7893022 C34.1542663,55.7893022 32.9213774,54.3752652 32.9213774,52.288006 C32.9213774,50.089895 34.2029329,48.6515247 36.1631181,48.6515247 C37.0850811,48.6515247 37.9637848,49.0246358 38.3125626,49.159821 L38.4396367,49.1922654 L38.4234144,50.5089691 L37.4500811,50.089895 C37.4500811,50.089895 37.0931922,49.9574135 36.5578589,49.9574135 C35.4439329,49.9574135 34.8815626,50.7874505 34.8815626,52.2717838 C34.8815626,53.2694504 35.1654515,54.4536726 36.5254144,54.4536726 C36.9931552,54.4536726 37.5906737,54.3509319 38.2801181,54.1535615 L38.4937107,54.0913763 Z M51.9987111,61.2967472 L51.7472666,60.4369694 L54.6861926,59.2338212 L54.8916741,59.1554138 L55.3431926,60.5937842 L51.9987111,61.2967472 Z M54.345526,67.6207102 C54.007563,67.6828954 53.7858593,67.7072287 53.469526,67.7072287 C52.3123408,67.7072287 51.6904889,66.9637102 51.6904889,65.5902287 C51.6904889,64.2059324 52.3961556,63.3353398 53.6452667,63.3353398 C53.8831926,63.3353398 54.053526,63.3677843 54.345526,63.424562 L54.345526,67.6207102 Z M56.189452,62.2944133 L54.3455261,62.2944133 L54.3455261,62.5783022 C53.9426742,62.3079318 53.4235631,62.1835614 52.931489,62.1835614 C51.0821556,62.1835614 49.7843778,63.684117 49.7843778,65.7794875 C49.7843778,67.7721172 50.8036742,69.042858 52.4718594,69.042858 C52.9152668,69.042858 53.4451927,68.8535988 54.3157853,68.3561173 L54.3157853,68.9806728 L56.9464891,68.7265247 L56.9464891,67.5882654 L56.189452,67.5882654 L56.189452,62.2944133 Z M35.2790067,67.5558214 C34.9140067,67.6180066 34.692303,67.6666732 34.3921918,67.6666732 C33.2566363,67.6666732 32.6374881,66.9177473 32.6374881,65.5658954 C32.6374881,64.1599695 33.3188215,63.3353398 34.5490067,63.3353398 C34.8031548,63.3353398 34.9734881,63.3677843 35.2790067,63.397525 L35.2790067,67.5558214 Z M35.3141554,62.5323391 C34.8842665,62.2944132 34.3624517,62.1646354 33.8460443,62.1646354 C31.9723776,62.1646354 30.636748,63.6354502 30.636748,65.7524502 C30.636748,67.7721168 31.6884887,69.0131168 33.3945258,69.0131168 C33.8460443,69.0131168 34.2488961,68.902265 35.2790073,68.5075242 L35.2790073,69.0428575 C35.2790073,70.2189686 34.8274887,70.5569316 33.3810073,70.5569316 C32.6996739,70.5569316 31.8128591,70.4487835 31.1125999,70.3000798 L31.1125999,71.411302 C32.534748,71.7060057 33.0971184,71.8114501 33.8460443,71.8114501 C34.7409702,71.8114501 35.5169332,71.6600427 36.0522665,71.3491168 C36.887711,70.9381538 37.1905258,70.3000798 37.1905258,69.1077464 L37.1905258,62.259265 L35.3141554,62.259265 L35.3141554,62.5323391 Z M26.5920074,67.8478209 C25.9890815,67.8478209 25.1914889,67.6180061 25.1914889,65.5253394 C25.1914889,63.4894505 25.902563,63.2407098 26.6109334,63.2407098 C27.2138593,63.2407098 28.0276741,63.4732283 28.0276741,65.5118209 C28.0276741,67.5558209 27.3247112,67.8478209 26.5920074,67.8478209 L26.5920074,67.8478209 Z M26.610933,61.9915993 C24.529081,61.9915993 23.2177847,63.3353401 23.2177847,65.5253401 C23.2177847,67.745081 24.4966366,69.0725995 26.610933,69.0725995 C28.7008961,69.0725995 30.006785,67.7072291 30.006785,65.5118216 C30.006785,63.3218216 28.7063035,61.9915993 26.610933,61.9915993 L26.610933,61.9915993 Z M49.5329346,68.537265 L49.3436753,68.6156724 C48.5866383,68.8995613 47.9161197,69.0590798 47.3213049,69.0590798 C46.6751197,69.0590798 46.2181938,68.8995613 45.9316012,68.537265 C45.6314901,68.1884872 45.5666012,67.7450798 45.5666012,67.0015613 L45.5666012,60.5532282 L47.1942308,60.436969 L47.4646012,60.3801912 L47.4646012,62.1808578 L49.3274531,62.1808578 L49.3274531,63.3677837 L47.4646012,63.3677837 L47.4646012,67.0421169 C47.4646012,67.5558206 47.4646012,67.6207095 47.4781197,67.6828947 C47.5511197,67.7694132 47.621416,67.8343021 47.9161197,67.8343021 L49.2166012,67.6504502 L49.5329346,68.537265 Z M41.3461195,67.8478209 C40.7215639,67.8478209 39.926675,67.6180061 39.926675,65.5253394 C39.926675,63.4894505 40.6674898,63.2407098 41.3650454,63.2407098 C41.9625639,63.2407098 42.7682676,63.4732283 42.7682676,65.5118209 C42.7682676,67.5558209 42.043675,67.8478209 41.3461195,67.8478209 L41.3461195,67.8478209 Z M41.3650455,61.9915993 C39.2588603,61.9915993 37.9637863,63.3353401 37.9637863,65.5253401 C37.9637863,67.745081 39.2399344,69.0725995 41.3650455,69.0725995 C43.4468973,69.0725995 44.7284529,67.7072291 44.7284529,65.5118216 C44.7284529,63.3218216 43.4982677,61.9915993 41.3650455,61.9915993 L41.3650455,61.9915993 Z M19.7164885,67.3584506 C19.26497,67.6828951 18.6025626,67.7072284 17.8022663,67.7072284 L17.4318589,67.7072284 L17.4318589,64.6006728 L17.4805256,64.6331173 L18.1267108,64.6331173 C18.8377849,64.6331173 19.4082663,64.6331173 19.7543404,64.9007839 C20.0868959,65.200895 20.2464145,65.5875247 20.2464145,66.1012284 C20.2464145,66.6230432 20.0544515,67.0826728 19.7164885,67.3584506 L19.7164885,67.3584506 Z M17.4318592,60.6884143 L17.8293036,60.6884143 L17.9861185,60.6884143 C18.6971925,60.6884143 19.2730814,60.6884143 19.6299703,60.9966365 C19.8489703,61.1696736 20.0084889,61.5346736 20.0084889,61.9131921 C20.0084889,62.8865254 19.7164888,63.2407106 18.6025629,63.3677847 L17.8022666,63.4218588 L17.4318592,64.0545255 L17.4318592,60.6884143 Z M20.6817106,63.9274506 C21.5414884,63.548932 21.9686736,62.9108579 21.9686736,61.8807468 C21.9686736,60.8560431 21.4955254,60.0881912 20.6573773,59.7718579 C20.0787847,59.5177097 19.5191181,59.4798579 17.8752663,59.4798579 L14.3496368,59.4798579 L14.3496368,60.4748208 C14.3496368,60.4748208 15.2256367,60.5937838 15.4554515,60.6424505 L15.4554515,68.9320062 L18.2537848,68.9320062 C19.6137477,68.9320062 20.1977477,68.8508951 20.8385254,68.5670062 C21.755081,68.1263025 22.3174513,67.2719321 22.3174513,66.2445247 C22.3174513,64.9873024 21.755081,64.251895 20.6817106,63.9274506 L20.6817106,63.9274506 Z" id="Fill-1" fill="#16457E"></path>
                            <path d="M45.4884631,26.9672819 C42.971315,28.7057634 39.4429818,29.7737263 36.074167,29.6790967 C27.6196856,29.3546523 21.0361672,22.5007633 21.3416857,14.3923558 C21.6390931,6.84361491 29.4419819,0.32498519 35.6388707,0.111392594 C35.9579077,0.0573185193 36.0525374,0.000540740747 35.736204,0.000540740747 C25.1376857,0.111392594 16.412834,7.53305937 16.001871,17.6503188 C15.6395747,27.73243 23.501945,36.2139487 33.6165004,36.6573561 C42.8550558,37.0196524 47.7730927,31.5122079 45.4884631,26.9672819" id="Fill-4" fill="#002C76" fill-rule="nonzero"></path>
                            <path d="M50.475985,16.264671 C45.1253556,18.5493006 45.3930222,24.3811896 46.1852074,29.0369674 C46.160874,28.8152637 46.160874,28.6422267 46.1203185,28.420523 C46.3258,29.9373008 46.2149481,31.3756711 45.4254667,32.9086712 C43.8843556,35.5420786 41.4050594,37.5238934 36.5600225,38.8108564 C48.9240591,39.3813379 62.891392,27.471523 50.475985,16.264671" id="Fill-6" fill="#002C76" fill-rule="nonzero"></path>
                            <path d="M36.5246026,0.00135185187 C36.3218248,0.00135185187 36.2569359,0.0581296291 36.5435285,0.0797592586 C44.2247509,0.934129621 49.6997511,5.93598143 38.8038249,11.3731295 C41.9482324,10.9243147 45.1683435,11.2947221 48.6642325,12.4897591 C54.2311586,5.37631477 45.2981213,0.0581296291 36.5246026,0.00135185187" id="Fill-8" fill="#002C76" fill-rule="nonzero"></path>
                            <path d="M46.1378923,28.5632787 C45.4727812,22.8341303 44.2831515,15.0015004 54.8140778,14.4175004 C42.2175218,8.37201873 33.9171512,14.3309819 27.6905214,15.5395375 C33.225003,16.2262783 44.7941515,22.3501674 46.1378923,28.5632787" id="Fill-10" fill="#002C76" fill-rule="nonzero"></path>
                        </g>
                    </g>
                </g>
            </g>
        </g>
    </g>
</svg>