<?xml version="1.0" encoding="UTF-8"?>
<svg width="59px" height="73px" viewBox="0 0 59 73" version="1.1" xmlns="http://www.w3.org/2000/svg" xmlns:xlink="http://www.w3.org/1999/xlink">
    <!-- Generator: sketchtool 53.2 (72643) - https://sketchapp.com -->
    <title>333DEF30-5156-40EB-86D6-B74167B74B5A</title>
    <desc>Created with sketchtool.</desc>
    <g id="Comprar-producto-(Desktop-|-1280)" stroke="none" stroke-width="1" fill="none" fill-rule="evenodd">
        <g id="[5.3]-Comprar-producto-(Desktop-|-1280)" transform="translate(-712.000000, -602.000000)" fill="#009A48">
            <g id="Páginas-/-Desktop-/-Inicio">
                <g id="Componentes-/-Desktop-/-Checkout-/-Contenido-/-C" transform="translate(170.000000, 144.000000)">
                    <g id="Moléculas-/-Desktop-/-Ícono-Compuesto-/-Medio-de-pago-/-Pagar-Copy-7" transform="translate(503.000000, 403.000000)">
                        <g id="Icono" style="mix-blend-mode: multiply;" transform="translate(32.000000, 55.000000)">
                            <path d="M33.0005012,0.000729999982 L32.9676512,0.0846799974 C32.9092512,0.303679991 32.8472012,0.559179983 32.8070512,0.789129976 C32.4931512,2.26372993 32.1683012,3.75657989 31.8471012,5.20562984 C34.4605012,3.59232989 37.0520011,2.77107992 39.654451,2.77107992 C42.6657009,2.77107992 45.1696008,3.73102989 47.1077508,5.62902983 C49.0678007,7.53797977 50.0569507,9.9871297 50.0569507,12.9399796 L50.0569507,13.2538796 C50.0350507,13.7210796 49.6445007,14.1262296 49.1846007,14.1262296 L45.3484508,14.1262296 C44.8885508,14.1262296 44.5162508,13.7429796 44.4724508,13.3013296 C44.3374009,11.7756296 43.7023009,10.5565297 42.5963509,9.58927971 C41.5086509,8.68407973 40.143551,8.22417975 38.464551,8.22417975 C36.0190511,8.22417975 33.8473012,9.22792972 31.9858012,11.2171797 C31.2521513,11.9544796 30.7156013,12.7793796 30.3068013,13.6042796 C30.1717513,13.9218296 29.8505513,14.1262296 29.5147513,14.1262296 L25.5727514,14.1262296 C25.0325514,14.1262296 24.6055015,13.5823796 24.7259514,13.0421796 C25.5910014,8.95417973 26.4524014,4.89172985 27.3174514,0.789129976 C27.3612514,0.559179983 27.4452014,0.303679991 27.4890014,0.0846799974 L27.4890014,0.000729999982 L25.2990014,0.000729999982 C23.9120015,0.000729999982 22.7257515,0.99352997 22.4337515,2.32942993 C20.6562016,10.7353797 18.8750016,19.0792794 17.1084017,27.4706292 C16.7142017,29.2956291 18.0902516,31.0147791 19.9627016,31.0147791 L20.9117016,31.0147791 C20.9628016,30.8140291 20.9956516,30.5913791 21.0650016,30.3650791 C21.8351515,26.6384292 22.6418015,22.9263793 23.4192515,19.1924294 C23.4959015,18.8055294 23.8609015,18.5098794 24.2697015,18.5098794 L28.9709013,18.5098794 C29.3432013,18.5098794 29.6936013,18.7398294 29.8177013,19.1121294 C30.1279513,20.0100294 30.6316513,20.8093794 31.4054512,21.4955793 C32.4676012,22.4007793 33.8071512,22.8752793 35.4241011,22.8752793 C37.942601,22.8752793 40.143551,21.8751793 42.0050509,19.8749794 C42.3189509,19.5610794 42.6328509,19.2143294 42.8737509,18.8675794 C43.0416509,18.6339794 43.2971509,18.5098794 43.6001009,18.5098794 L47.4326008,18.5098794 C48.0750007,18.5098794 48.5166507,19.2325794 48.1772007,19.8275294 C47.3997508,21.1378794 46.3814008,22.4007793 45.1258008,23.5943293 C41.8992009,26.7442792 38.311251,28.3283791 34.2926012,28.3283791 C31.7120512,28.3283791 29.4089013,27.5253792 27.3612514,25.9631792 C27.0656014,27.4377792 26.7444014,28.9050791 26.4195514,30.3650791 C26.3867014,30.5913791 26.3356014,30.8140291 26.2845014,31.0147791 L47.9655007,31.0147791 C49.3488507,31.0147791 50.5497007,30.0511791 50.8599507,28.7043291 C52.6156006,20.3312294 54.4041005,11.9544796 56.1853005,3.55217989 C56.5868005,1.70162995 55.1888505,0.000729999982 53.3091006,0.000729999982 L33.0005012,0.000729999982 M52.3528023,47.0054301 C51.8600523,47.5419801 51.6228023,48.0931301 51.6228023,48.7537801 C51.6228023,49.2939801 51.8126023,49.7538801 52.1630023,50.0677801 C52.4915023,50.3488301 52.8857023,50.4729301 53.3346523,50.4729301 C54.0792523,50.4729301 54.7326023,50.1663301 55.3129523,49.5567801 C55.8276023,49.0348301 56.0831024,48.3960801 56.0831024,47.7536801 C56.0831024,47.2098301 55.8969523,46.8192801 55.5246523,46.4871301 C55.2180523,46.2279801 54.8092523,46.0892801 54.3384023,46.0892801 C53.5719023,46.0892801 52.9222023,46.4031801 52.3528023,47.0054301 M52.9441006,52.6118311 C51.8965506,52.6118311 51.0278506,52.3088811 50.3672006,51.6226811 C49.7029006,50.9948811 49.3488506,50.1663311 49.3488506,49.1224311 C49.3488506,47.7865311 49.9073006,46.5747311 51.0059506,45.5052811 C52.0973006,44.4650311 53.3346507,43.9540311 54.7326007,43.9540311 C55.7582507,43.9540311 56.5904507,44.2861811 57.2511007,44.9322311 C57.9446007,45.5819311 58.2694507,46.4031811 58.2694507,47.3959811 C58.2694507,48.7355311 57.7183007,49.9400311 56.6014007,51.0131311 C55.5246507,52.0825811 54.2873007,52.6118311 52.9441006,52.6118311 M43.9067021,52.6118311 C45.2280021,52.6118311 46.4142521,52.1227311 47.4581521,51.1189811 C47.8925021,50.6882811 48.1261021,50.3816811 48.1261021,50.1882311 C48.1261021,50.0203311 48.0202521,49.8925811 47.7903021,49.7903811 C47.5530521,49.6808811 47.2793021,49.5275811 47.0165021,49.3925311 C46.9179521,49.3669811 46.8048021,49.3012811 46.7391021,49.3012811 C46.5310521,49.3012811 46.3996521,49.3852311 46.2646021,49.5421811 C45.7025021,50.1699811 45.0601021,50.4765811 44.3228021,50.4765811 C43.8410021,50.4765811 43.4504521,50.3488311 43.1256021,50.0714311 C42.7642522,49.7538811 42.5854022,49.3012811 42.5854022,48.7537811 C42.5854022,48.0931311 42.8409021,47.5456311 43.3227021,47.0054311 C43.8884521,46.4031811 44.5710021,46.0965811 45.3484521,46.0965811 C45.9251521,46.0965811 46.3996521,46.2754311 46.7646521,46.6148811 C46.9179521,46.7827811 47.0603021,46.8484811 47.2282021,46.8484811 C47.3231021,46.8484811 47.4289521,46.8338811 47.5749521,46.7499311 C47.8925021,46.5564811 48.1808521,46.3739811 48.4655521,46.1622811 C48.6882021,46.0235811 48.7721521,45.9031311 48.7721521,45.6987311 C48.7721521,45.5819311 48.6882021,45.4213311 48.4655521,45.1585311 C47.7647521,44.3701311 46.8230521,43.9540311 45.6550521,43.9540311 C44.2790021,43.9540311 43.0599021,44.4613811 41.9722022,45.5052811 C40.8808522,46.5747311 40.3297022,47.7865311 40.3297022,49.1297311 C40.3297022,50.1699811 40.6326522,50.9948811 41.3480522,51.6190311 C42.0087022,52.3052311 42.8701021,52.6118311 43.9067021,52.6118311 M31.2229523,52.0168808 C31.2229523,52.3307808 31.4054523,52.4694808 31.7741023,52.4694808 L32.7778523,52.4694808 C33.1355524,52.4840808 33.3363024,52.3307808 33.4056524,51.9913308 C33.7341524,50.5751308 34.0371024,49.1260809 34.3181524,47.7208309 C34.4459024,47.187931 34.6722024,46.775481 35.0372024,46.487131 C35.3730024,46.227981 35.7708524,46.089281 36.2599524,46.089281 C36.6979524,46.089281 37.0337524,46.227981 37.2746524,46.512681 C37.4425524,46.768181 37.5484024,47.020031 37.5484024,47.326631 C37.5484024,47.4653309 37.5484024,47.5383309 37.5119024,47.6332309 C37.1980024,49.0348309 36.8914024,50.4510308 36.5957524,51.8380308 C36.5775024,51.9073808 36.5775024,51.9402308 36.5775024,51.9402308 C36.5775024,52.3307808 36.7527024,52.4694808 37.1213524,52.4694808 L38.1579524,52.4694808 C38.5010524,52.4840808 38.7018025,52.3307808 38.7784525,51.9913308 C39.0887025,50.5167308 39.3953025,49.0348309 39.6982525,47.5821309 C39.7676025,47.297431 39.7895025,47.001781 39.7895025,46.735331 C39.7895025,45.768081 39.4281525,45.001581 38.6543525,44.4832811 C38.1433524,44.1401811 37.4754024,43.9540311 36.6797024,43.9540311 C35.9533524,43.9540311 35.3438024,44.0927311 34.8839024,44.3847311 C34.8656524,44.1401811 34.6977524,44.0233811 34.3692524,44.0233811 L33.3363024,44.0233811 C33.0516023,43.9868811 32.9056023,44.1219311 32.8034023,44.4577311 C32.2887523,46.925131 31.7631523,49.3815809 31.2302523,51.8380308 C31.2229523,51.9073808 31.2229523,51.9475308 31.2229523,51.9475308 M25.1165013,47.0054301 C24.6237513,47.5419801 24.3646013,48.0931301 24.3646013,48.7537801 C24.3646013,49.3304801 24.5471013,49.7684801 24.8975013,50.0677801 C25.2442513,50.3488301 25.6457513,50.4729301 26.0801013,50.4729301 C26.8721513,50.4729301 27.5510513,50.1663301 28.1022013,49.5567801 C28.6424013,49.0348301 28.8833013,48.4033801 28.8833013,47.7536801 C28.8833013,47.2280801 28.6862013,46.8192801 28.3540513,46.4871301 C28.0146013,46.2279801 27.6058013,46.0892801 27.1276513,46.0892801 C26.3757513,46.0892801 25.6932013,46.4031801 25.1165013,47.0054301 M25.7625525,52.6118311 C24.7077024,52.6118311 23.8463024,52.3088811 23.1820024,51.6080811 C22.5213524,50.9547311 22.1855523,50.1261811 22.1855523,49.1224311 C22.1855523,47.8011311 22.7257524,46.5820311 23.8390024,45.5162311 C24.8975024,44.4650311 26.1239025,43.9540311 27.5072525,43.9540311 C28.4234025,43.9540311 29.1716526,44.1949311 29.6717026,44.6694311 C29.6936026,44.6329311 29.6936026,44.5307311 29.7118526,44.4650311 C29.7848526,44.1255811 29.9600526,43.9905311 30.2447526,44.0233811 L31.2521526,44.0233811 C31.6281026,44.0233811 31.7887026,44.1365311 31.7887026,44.4650311 C31.7887026,44.4650311 31.7887026,44.5307311 31.7668026,44.6329311 C31.2485026,47.0893811 30.7265526,49.5239311 30.2155526,51.9876811 C30.1389026,52.3271311 29.9454526,52.4840811 29.5950526,52.4694811 L28.6679525,52.4694811 C28.2993025,52.4694811 28.1022025,52.3271311 28.1022025,51.9475311 C28.1022025,51.9475311 28.1022025,51.9219811 28.1460025,51.8380311 L28.2044025,51.7686811 C27.4926525,52.3271311 26.6750525,52.6118311 25.7625525,52.6118311 M15.5681018,47.0054301 C15.0425018,47.5419801 14.8052518,48.0931301 14.8052518,48.7537801 C14.8052518,49.3304801 14.9950518,49.7538801 15.3783018,50.0677801 C15.6958518,50.3488301 16.0937018,50.4729301 16.5937518,50.4729301 C17.3456518,50.4729301 18.0209018,50.1663301 18.6195018,49.5567801 C19.1524018,49.0348301 19.4115518,48.4216301 19.4115518,47.7536801 C19.4115518,47.2280801 19.2144518,46.8192801 18.8129518,46.4871301 C18.5027018,46.2279801 18.0939018,46.0892801 17.5975018,46.0892801 C16.8383018,46.0892801 16.1630518,46.4031801 15.5681018,47.0054301 M12.440052,52.4694804 C12.089652,52.4694804 11.907152,52.3271304 11.907152,51.9475304 C11.907152,51.9475304 11.907152,51.9073804 11.940002,51.8380304 C12.702852,48.3121304 13.440152,44.7935304 14.181102,41.2311304 C14.265052,40.8953304 14.425652,40.7383804 14.714002,40.7821804 L15.845502,40.7821804 C16.195902,40.7821804 16.363802,40.9318304 16.363802,41.2311304 C16.363802,41.2311304 16.349202,41.3187304 16.330952,41.4245804 C16.093702,42.4757804 15.845502,43.5671304 15.600952,44.6329304 C16.272552,44.1949304 17.079202,43.9540304 17.9771019,43.9540304 C19.0283019,43.9540304 19.8970019,44.2861804 20.5649519,44.9468304 C21.2475019,45.5819304 21.5906019,46.4214304 21.5906019,47.3959804 C21.5906019,48.7537804 21.0321519,49.9400304 19.9262019,51.0131304 C18.8129519,52.0825804 17.579252,52.6118304 16.232402,52.6118304 C15.305302,52.6118304 14.568002,52.3271304 14.027802,51.8051804 L14.027802,51.9475304 C13.958452,52.3161804 13.772302,52.4840804 13.414602,52.4694804 L12.440052,52.4694804 M14.9914019,66.6679798 C15.4805019,66.1277797 15.7433019,65.5255297 15.7433019,64.8794797 C15.7433019,64.3210297 15.5425519,63.9158797 15.1848519,63.5654796 C14.8417519,63.3172796 14.4512019,63.2004796 13.9548019,63.2004796 C13.213852,63.2004796 12.549552,63.4705796 11.976502,64.0764797 C11.472802,64.6166797 11.210002,65.2079797 11.210002,65.8795797 C11.210002,66.4380298 11.414402,66.8468298 11.768452,67.1753298 C12.093302,67.4381298 12.465602,67.5804798 12.958352,67.5804798 C13.735802,67.5804798 14.3782019,67.2592798 14.9914019,66.6679798 M14.330752,61.0615815 C15.3819521,61.0615815 16.2470021,61.3791315 16.8894021,62.0251815 C17.5792521,62.6931314 17.9406021,63.5326314 17.9406021,64.4816314 C17.9406021,65.8430814 17.3602521,67.0402813 16.2506521,68.1097313 C15.170252,69.1609313 13.943852,69.7120813 12.556852,69.7120813 C11.669902,69.7120813 10.939902,69.4419813 10.454452,68.9017813 C10.2099019,70.0515312 9.97995194,71.2158812 9.76095194,72.3838812 C9.66970194,72.7233312 9.49085193,72.8766312 9.16235193,72.8766312 L8.08925191,72.8766312 C7.7498019,72.8766312 7.6038019,72.7233312 7.6038019,72.3510312 C7.6038019,72.3510312 7.6147519,72.2816812 7.6330019,72.2780312 C8.35935191,68.6572313 9.12220193,65.1240314 9.85220194,61.5579815 C9.91425194,61.2185315 10.1077019,61.0615815 10.377802,61.1163315 L11.439952,61.1163315 C11.804952,61.1163315 11.987452,61.2696315 11.987452,61.5579815 C11.987452,61.5579815 11.987452,61.6236815 11.976502,61.7076315 C12.666352,61.2696315 13.451102,61.0615815 14.330752,61.0615815 M24.5398025,66.6351304 C25.0690525,66.1277804 25.3026525,65.4999804 25.3026525,64.8137805 C25.3026525,64.3064305 25.1128525,63.9158805 24.7442025,63.5654805 C24.4376025,63.3209305 24.0288025,63.1968305 23.5397025,63.1968305 C22.8097025,63.1968305 22.1417525,63.4742305 21.5796525,64.1020305 C21.0905525,64.6166805 20.8314025,65.2116304 20.8314025,65.8795804 C20.8314025,66.4051804 21.0175525,66.8431804 21.3898525,67.1607304 C21.7074025,67.4381304 22.0833525,67.5950804 22.5505525,67.5950804 C23.2842025,67.5950804 23.9704025,67.2629304 24.5398025,66.6351304 M26.488902,62.0069315 C27.149552,62.6785315 27.489002,63.4742315 27.489002,64.4816316 C27.489002,65.8467316 26.948802,67.0402816 25.820952,68.1097316 C24.744202,69.1609317 23.5251021,69.7157317 22.1673021,69.7157317 C21.1234021,69.7157317 20.2510521,69.3835817 19.6086521,68.7229317 C18.9115021,68.0622816 18.5830021,67.2483316 18.5830021,66.2190316 C18.5830021,64.8794816 19.1232021,63.6603816 20.2510521,62.6091815 C21.3132021,61.5579815 22.5505521,61.0615815 23.9704021,61.0615815 C24.981452,61.0615815 25.820952,61.3791315 26.488902,62.0069315 M34.2196014,66.6679798 C34.7306014,66.1277797 34.9715014,65.5255297 34.9715014,64.8794797 C34.9715014,64.3210297 34.7926514,63.9158797 34.4094014,63.5654796 C34.0955014,63.3172796 33.6976514,63.2004796 33.2085514,63.2004796 C32.4603014,63.2004796 31.7850513,63.4705796 31.2193013,64.0764797 C30.6973513,64.6166797 30.4564513,65.2079797 30.4564513,65.8795797 C30.4564513,66.4380298 30.6389513,66.8468298 31.0185513,67.1753298 C31.3251513,67.4381298 31.7303013,67.5804798 32.2230513,67.5804798 C32.9530514,67.5804798 33.6173514,67.2592798 34.2196014,66.6679798 M33.5626022,61.0615815 C34.6138022,61.0615815 35.4934522,61.3791315 36.1395022,62.0251815 C36.8330022,62.6931314 37.1834022,63.5326314 37.1834022,64.4816314 C37.1834022,65.8430814 36.6322522,67.0402813 35.4934522,68.1097313 C34.4094022,69.1609313 33.1757022,69.7120813 31.8142521,69.7120813 C30.9017521,69.7120813 30.1973021,69.4419813 29.6936021,68.9017813 C29.4600021,70.0515312 29.2191021,71.2158812 28.9709021,72.3838812 C28.9198021,72.7233312 28.6935021,72.8766312 28.3796021,72.8766312 L27.346652,72.8766312 C27.014502,72.8766312 26.868502,72.7233312 26.868502,72.4167312 L26.868502,72.2780312 C27.609452,68.6572313 28.3540521,65.1240314 29.0950021,61.5579815 C29.1570521,61.2185315 29.3359021,61.0615815 29.6279021,61.1163315 L30.6900521,61.1163315 C31.0331521,61.1163315 31.2302521,61.2696315 31.2302521,61.5579815 C31.2302521,61.5579815 31.2193021,61.6236815 31.2193021,61.7076315 C31.9091521,61.2696315 32.6975521,61.0615815 33.5626022,61.0615815 M46.3376013,61.5579786 C46.3376013,61.3134286 46.1660513,61.1856786 45.7864513,61.1856786 L44.6659013,61.1856786 C44.3775513,61.1345786 44.2023513,61.2842286 44.1585513,61.6236786 C43.8373513,63.0727286 43.5161513,64.5400287 43.1913013,65.9890787 C43.0891013,66.5073787 42.8737513,66.8796787 42.5817513,67.1278787 C42.1948513,67.4235287 41.7678013,67.5804787 41.2823513,67.5804787 C40.9392513,67.5804787 40.6582013,67.4709787 40.4136513,67.2592787 C40.1727513,67.0439287 40.0231013,66.7081287 40.0231013,66.2628287 C40.0231013,66.1496787 40.0231013,66.0584287 40.0523013,65.9817787 C40.3516013,64.5509787 40.6582013,63.1420786 40.9502013,61.7258786 C40.9757513,61.6601786 40.9757513,61.6236786 40.9757513,61.5579786 C40.9757513,61.3134286 40.8042013,61.1856786 40.4319013,61.1856786 L39.3405513,61.1856786 C39.0303013,61.1345786 38.8514513,61.2842286 38.7894013,61.6236786 C38.4755014,63.0909786 38.1579514,64.5509787 37.8331014,66.0328787 C37.7893014,66.2847287 37.7637514,66.5949787 37.7637514,66.8468287 C37.7637514,67.8615287 38.1579514,68.6207288 38.9171513,69.1645788 C39.4500513,69.5295788 40.0888013,69.7157288 40.8735513,69.7157288 C41.6181513,69.7157288 42.2350013,69.5113288 42.6584013,69.1353788 C42.6584013,69.4419788 42.8737513,69.5806788 43.1913013,69.5806788 L44.1403013,69.5806788 C44.4834013,69.5806788 44.7024013,69.4054788 44.7608013,69.0842788 C45.2608513,66.6351287 45.7864513,64.2224786 46.3120513,61.8025286 C46.3120513,61.6930286 46.3376013,61.6236786 46.3376013,61.5579786 M50.213902,58.2766278 C50.213902,58.0138279 50.020452,57.8824279 49.706552,57.8824279 L48.578702,57.8824279 C48.297652,57.8349779 48.096902,57.9992279 48.053102,58.3240778 C47.297552,61.8718777 46.534702,65.4050776 45.782802,68.9309775 L45.782802,69.0879275 C45.782802,69.4091275 45.954352,69.5770275 46.312052,69.5770275 L47.348652,69.5770275 C47.706352,69.5770275 47.888852,69.4091275 47.961852,69.0879275 C48.713752,65.5510776 49.451052,62.0324777 50.181052,58.5503778 C50.206602,58.4372278 50.213902,58.3386778 50.213902,58.3386778 M55.4553019,66.6679798 C55.9699519,66.1277797 56.2181519,65.4963297 56.2181519,64.8466297 C56.2181519,64.3210297 56.0320019,63.9158797 55.6670019,63.5654796 C55.3531019,63.3172796 54.9260519,63.2004796 54.4479019,63.2004796 C53.6923519,63.2004796 53.0134518,63.4705796 52.4513518,64.0764797 C51.9586018,64.6166797 51.7250018,65.2079797 51.7250018,65.8795797 C51.7250018,66.4051798 51.8856018,66.8468298 52.2506018,67.1753298 C52.5754518,67.4381298 52.9623518,67.5804798 53.4441519,67.5804798 C54.1924019,67.5804798 54.8713019,67.2592798 55.4553019,66.6679798 M59.1162506,61.5579815 C59.1162506,61.5579815 59.0980006,61.6236815 59.0980006,61.7404815 C58.5760506,64.1823316 58.0468006,66.6168817 57.5394506,69.0806318 C57.4737506,69.4054818 57.2693506,69.5806818 56.9299006,69.5806818 L55.9882006,69.5806818 C55.6232006,69.5806818 55.4443506,69.4054818 55.4443506,69.0806318 C55.4443506,69.0806318 55.4553006,69.0149318 55.4881506,68.9127318 C55.4881506,68.9127318 55.5210006,68.9017818 55.5392506,68.8652818 C54.8275007,69.4419818 54.0135507,69.7120818 53.0828007,69.7120818 C52.0462007,69.7120818 51.1957507,69.3835818 50.5241507,68.7192818 C49.8489007,68.0695817 49.4985008,67.2191317 49.4985008,66.2190317 C49.4985008,64.8977316 50.0606007,63.6932316 51.1738507,62.6237815 C52.2506007,61.5798815 53.4551007,61.0615815 54.8384507,61.0615815 C55.7765006,61.0615815 56.4882506,61.2842315 57.0211506,61.7076315 C57.0211506,61.7076315 57.0211506,61.6236815 57.0503506,61.5579815 C57.1160506,61.2185315 57.2949006,61.0615815 57.5723006,61.1163315 L58.5760506,61.1163315 C58.9301006,61.1163315 59.1162506,61.2696315 59.1162506,61.5141815 M64.5365041,60.9812827 C64.8832541,60.9812827 65.0767041,61.1126827 65.0767041,61.4192827 C65.0694041,61.4448327 65.0694041,61.5178327 65.0511541,61.5835327 C64.9781541,61.9375827 64.8978541,62.2989327 64.8321541,62.6529827 C64.7664541,62.9778327 64.5584041,63.1165327 64.2299042,63.1165327 L63.8247542,63.1165327 C62.6129542,63.1566827 61.9158043,63.6530826 61.6639543,64.7006326 C61.3573543,66.1569826 61.0690043,67.6169826 60.7478043,69.0842826 C60.6784544,69.4091326 60.4594544,69.5770326 60.1236544,69.5770326 L59.0980044,69.5770326 C58.7330045,69.5770326 58.5322545,69.4091326 58.5322545,69.0660326 C58.5322545,69.0660326 58.5541545,69.0185826 58.5797045,68.9309826 C59.0834044,66.4708826 59.6163044,64.0509326 60.1492044,61.5543327 C60.2185544,61.2148827 60.3864544,61.0615827 60.6784544,61.0944327 L61.7150543,61.0944327 C62.0837043,61.0944327 62.2735043,61.2331327 62.2771543,61.4630827 C62.6604042,61.1637827 63.2736042,60.9995327 64.1350042,60.9812827 L64.5365041,60.9812827" id="Fill-1"></path>
                        </g>
                    </g>
                </g>
            </g>
        </g>
    </g>
</svg>