<?xml version="1.0" encoding="UTF-8"?>
<svg width="26px" height="32px" viewBox="0 0 26 32" version="1.1" xmlns="http://www.w3.org/2000/svg" xmlns:xlink="http://www.w3.org/1999/xlink">
    <!-- Generator: sketchtool 53.2 (72643) - https://sketchapp.com -->
    <title>284A3BDF-97CD-402F-B36B-9EEA13057C16</title>
    <desc>Created with sketchtool.</desc>
    <g id="Comprar-producto-(Desktop-|-1280)" stroke="none" stroke-width="1" fill="none" fill-rule="evenodd">
        <g id="[5.4]-Comprar-producto-(Desktop-|-1280)" transform="translate(-911.000000, -96.000000)" fill="#B47015" fill-rule="nonzero">
            <g id="Páginas-/-Desktop-/-Inicio">
                <g id="Componentes-/-Desktop-/-Navegación-/-Paso-a-paso-/-3-de-3" transform="translate(170.000000, 88.000000)">
                    <g id="Atoms/Images/Default/M/Normal-Copy-6" style="mix-blend-mode: multiply;" transform="translate(738.000000, 8.000000)">
                        <path d="M24.520733,28.5460676 C24.272733,28.8460676 23.946733,29.0554009 23.5673997,29.1600676 C23.4040664,29.2054009 23.3260664,29.2900676 23.3393997,29.4600676 C23.3453997,29.6300676 23.3393997,29.7994009 23.3393997,29.9694009 C23.3393997,30.1194009 23.260733,30.1980676 23.110733,30.2040676 C22.9273997,30.2107342 22.7447331,30.2107342 22.5687331,30.2040676 C22.4120664,30.2040676 22.3333997,30.1134009 22.3333997,29.9560676 C22.3333997,29.8327342 22.3333997,29.7080676 22.3267331,29.5840676 C22.3267331,29.3100676 22.3133997,29.3034009 22.0527331,29.2574009 C21.7200664,29.2054009 21.3867331,29.1267342 21.0800664,28.9767342 C20.8387331,28.8594009 20.8127331,28.8007342 20.8840665,28.5460676 C20.9360664,28.3567342 20.9880664,28.1674009 21.0473998,27.9840676 C21.1127331,27.7687342 21.1713998,27.7427342 21.3733998,27.8474009 C21.7133998,28.0240676 22.0720664,28.1214009 22.4513997,28.1674009 C22.6927331,28.1994009 22.9340664,28.1734009 23.1560664,28.0760676 C23.5740664,27.8934009 23.6393997,27.4034009 23.286733,27.1160676 C23.162733,27.0180676 23.032733,26.9467343 22.8820664,26.8807343 C22.5160664,26.7180676 22.1313997,26.5934009 21.7787331,26.3847343 C21.2173998,26.0454009 20.8580665,25.5820676 20.8967331,24.8960676 C20.9427331,24.1187343 21.3800664,23.6360676 22.0913997,23.3747343 C22.3860664,23.2700676 22.3860664,23.2700676 22.3860664,22.9634009 L22.3860664,22.6500676 C22.3927331,22.4214009 22.4313997,22.3754009 22.6600664,22.3687343 L22.8753997,22.3687343 C23.3653997,22.3687343 23.3653997,22.3687343 23.3713997,22.8594009 C23.3713997,23.2047343 23.3713997,23.2047343 23.7180664,23.2634009 C23.9853997,23.3034009 24.2333997,23.3814009 24.4813997,23.4920676 C24.618733,23.5514009 24.664733,23.6487343 24.6253997,23.7860676 C24.5660663,23.9954009 24.5073997,24.2107343 24.4360663,24.4200676 C24.370733,24.6154009 24.3053997,24.6480676 24.1160663,24.5567343 C23.730733,24.3734009 23.332733,24.2954009 22.9080664,24.3147343 C22.7973997,24.3214009 22.6860664,24.3347343 22.5887331,24.3800676 C22.2227331,24.5434009 22.1640664,24.9420676 22.4773997,25.1900676 C22.6340664,25.3140676 22.8167331,25.4054009 22.9993997,25.4834009 C23.3260664,25.6207343 23.6520664,25.7447343 23.9593997,25.9147343 C24.9453996,26.4767343 25.2060663,27.7034009 24.520733,28.5460676 L24.520733,28.5460676 Z M22.8753997,20.5734004 C19.7220664,20.5734004 17.1627331,23.1334003 17.1627331,26.2867335 C17.1627331,29.4407334 19.7220664,32.0000667 22.8753997,32.0000667 C26.0293997,32.0000667 28.588733,29.4407334 28.588733,26.2867335 C28.588733,23.1334003 26.0293997,20.5734004 22.8753997,20.5734004 L22.8753997,20.5734004 Z M13.9893999,2.74206661 C14.7987333,2.74206661 15.4580666,3.40206661 15.4580666,4.21139994 C15.4580666,5.02073327 14.7987333,5.68073327 13.9893999,5.68073327 C13.1793999,5.68073327 12.5200666,5.02073327 12.5200666,4.21139994 C12.5200666,3.39539994 13.1793999,2.74206661 13.9893999,2.74206661 L13.9893999,2.74206661 Z M15.1320669,24.8434004 L7.62273346,24.8434004 C7.27073346,24.8434004 6.97673346,24.5567337 6.97673346,24.198067 L6.97673346,8.58606679 C6.97673346,8.23340012 7.26406679,7.93940012 7.62273346,7.93940012 L20.4140669,7.93940012 C20.7667336,7.93940012 21.0607336,8.22673346 21.0607336,8.58606679 L21.0607336,18.6214003 C21.6414003,18.4840669 22.2554003,18.4060669 22.8754003,18.4060669 C23.5087336,18.4060669 24.116067,18.4840669 24.7034003,18.6214003 L24.7034003,5.38673341 C24.7034003,4.02873339 23.600067,2.92473338 22.2420669,2.92473338 L17.9914002,2.92473338 C17.4500669,1.22740002 15.8627335,6.6666665e-05 13.9894002,6.6666665e-05 C12.1154002,6.6666665e-05 10.5287335,1.22740002 9.98673349,2.92473338 L5.79473345,2.92473338 C4.43673343,2.92473338 3.33340009,4.02873339 3.33340009,5.38673341 L3.33340009,26.2740671 C3.33340009,27.6320671 4.43673343,28.7354004 5.79473345,28.7354004 L15.3860669,28.7354004 C15.1320669,27.9647337 14.9947335,27.1487337 14.9947335,26.2934004 C14.9947335,25.7974004 15.0467335,25.314067 15.1320669,24.8434004 L15.1320669,24.8434004 Z M8.89606667,20.5807337 L14.0147333,20.5807337 L14.0147333,18.8374003 L8.89606667,18.8374003 L8.89606667,20.5807337 Z M8.89606667,17.5767333 L19.1467336,17.5767333 L19.1467336,15.8334 L8.89606667,15.8334 L8.89606667,17.5767333 Z M8.89606667,14.5734006 L19.1467336,14.5734006 L19.1467336,12.8300672 L8.89606667,12.8300672 L8.89606667,14.5734006 Z M8.89606667,11.5767333 L19.1467336,11.5767333 L19.1467336,9.8334 L8.89606667,9.8334 L8.89606667,11.5767333 Z" id="Forma"></path>
                    </g>
                </g>
            </g>
        </g>
    </g>
</svg>