<?xml version="1.0" encoding="UTF-8"?>
<svg width="32px" height="24px" viewBox="0 0 32 24" version="1.1" xmlns="http://www.w3.org/2000/svg" xmlns:xlink="http://www.w3.org/1999/xlink">
    <!-- Generator: sketchtool 53.2 (72643) - https://sketchapp.com -->
    <title>B4A61EAD-FB38-4444-87D0-9846B039D11F</title>
    <desc>Created with sketchtool.</desc>
    <g id="Comprar-producto-(Desktop-|-1280)" stroke="none" stroke-width="1" fill="none" fill-rule="evenodd">
        <g id="[5.4]-Comprar-producto-(Desktop-|-1280)" transform="translate(-268.000000, -100.000000)" fill="#B47015" fill-rule="nonzero">
            <g id="Páginas-/-Desktop-/-Inicio">
                <g id="Componentes-/-Desktop-/-Navegación-/-Paso-a-paso-/-3-de-3" transform="translate(170.000000, 88.000000)">
                    <g id="Atoms/Images/Default/M/Normal-Copy-3" style="mix-blend-mode: multiply;" transform="translate(98.000000, 8.000000)">
                        <path d="M20.1273333,14.3680665 L28.2980001,6.20406675 L29.7173335,6.20406675 L29.7173335,6.59673341 L21.488,14.8260665 L20.1273333,14.8260665 L20.1273333,14.3680665 Z M20.1273333,10.2727332 L24.1966667,6.20406675 L26.0080001,6.20406675 L20.1273333,12.0853998 L20.1273333,10.2727332 Z M20.1273333,7.47340003 L20.1273333,7.45340003 L20.134,6.19806671 L21.9133333,6.19806671 L20.1273333,7.98340003 L20.1273333,7.47340003 Z M29.717333,10.6980668 L25.5893331,14.8260667 L23.7779999,14.8260667 L29.7239997,8.88006687 L29.717333,10.6980668 Z M29.7106668,14.8260668 L27.8653336,14.8260668 L29.7106668,12.9814002 L29.7106668,14.8260668 Z M20.0300005,17.0300668 L29.8220002,17.0300668 C30.9860002,17.0300668 31.9280001,16.0427335 31.9280001,14.8320668 L31.9280001,6.19806677 C31.9280001,4.98806676 30.9860002,4.00006676 29.8220002,4.00006676 L20.0300005,4.00006676 C18.8646672,4.00006676 17.9226672,4.98806676 17.9226672,6.19806677 L17.9226672,7.06806677 L17.9226672,7.46006677 L17.9226672,14.8387335 C17.9226672,16.0427335 18.8646672,17.0300668 20.0300005,17.0300668 L20.0300005,17.0300668 Z M24.5426669,25.9267337 C23.4180002,25.9267337 22.5413335,25.004067 22.5413335,23.9247336 C22.5413335,22.8454003 23.4240002,21.9234002 24.5426669,21.9234002 C25.6220003,21.9234002 26.5446669,22.8454003 26.5446669,23.9247336 C26.5513336,25.004067 25.6680003,25.9267337 24.5426669,25.9267337 L24.5426669,25.9267337 Z M7.17600014,25.9267337 C6.09666679,25.9267337 5.1740001,25.004067 5.1740001,23.9247336 C5.1740001,22.8454003 6.05733345,21.9234002 7.17600014,21.9234002 C8.25466683,21.9234002 9.17733351,22.8454003 9.17733351,23.9247336 C9.17733351,25.004067 8.29400016,25.9267337 7.17600014,25.9267337 L7.17600014,25.9267337 Z M30.8746667,19.2800667 L30.8746667,19.2540667 L19.4273333,19.2540667 C17.302,19.2540667 15.5813333,17.5340667 15.5813333,15.4080667 L15.5813333,8.47406669 C15.5813333,7.99673335 15.1953333,7.61073335 14.718,7.61073335 L11.0546667,7.61073335 C10.1713333,7.61073335 9.41266667,8.04873335 8.92866667,8.69006669 C8.89,8.72940002 8.85,8.80806669 8.81133333,8.84740002 L5.724,13.4980667 L3.92466667,13.7794 C2.47933333,13.7794 1.32133333,14.9434 1.32133333,16.3827334 L1.32133333,20.1894 C0.602,20.2687334 0,20.9094 0,21.6747334 L0,23.5580667 C0,24.3627334 0.641333333,25.0434001 1.48466667,25.0434001 L3.32933333,25.0434001 C3.80733333,26.6914001 5.33133333,27.9347334 7.176,27.9347334 C9.02066667,27.9347334 10.5446667,26.7307334 11.022,25.0494001 L15.8493333,25.0494001 L20.6966667,25.0494001 C21.1806667,26.6914001 22.698,27.9347334 24.5426667,27.9347334 C26.388,27.9347334 27.912,26.7307334 28.3893333,25.0494001 L30.5153333,25.0494001 C31.3193333,25.0494001 32,24.4094001 32,23.5654 L32,20.7260667 C32,20.0460667 31.516,19.4440667 30.8746667,19.2800667 L30.8746667,19.2800667 Z" id="Forma"></path>
                    </g>
                </g>
            </g>
        </g>
    </g>
</svg>