<?xml version="1.0" encoding="UTF-8"?>
<svg width="32px" height="32px" viewBox="0 0 32 32" version="1.1" xmlns="http://www.w3.org/2000/svg" xmlns:xlink="http://www.w3.org/1999/xlink">
    <!-- Generator: sketchtool 53.2 (72643) - https://sketchapp.com -->
    <title>FDF89176-2728-4A35-BADF-9C4EFF22F1AE</title>
    <desc>Created with sketchtool.</desc>
    <g id="Comprar-producto-(Desktop-|-1280)" stroke="none" stroke-width="1" fill="none" fill-rule="evenodd">
        <g id="[5.4]-Comprar-producto-(Desktop-|-1280)" transform="translate(-588.000000, -96.000000)" fill="#B47015" fill-rule="nonzero">
            <g id="Páginas-/-Desktop-/-Inicio">
                <g id="Componentes-/-Desktop-/-Navegación-/-Paso-a-paso-/-3-de-3" transform="translate(170.000000, 88.000000)">
                    <g id="Atoms/Images/Default/M/Normal-Copy-4" style="mix-blend-mode: multiply;" transform="translate(418.000000, 8.000000)">
                        <path d="M21.2127334,28.8830006 C20.9900667,29.1576672 20.6954,29.3410006 20.3547334,29.4330006 C20.2040667,29.4723339 20.1387334,29.5510006 20.1447334,29.7076672 C20.1514,29.8583339 20.1447334,30.0090005 20.1447334,30.1663339 C20.1447334,30.3036672 20.0734,30.3756672 19.9427334,30.3756672 C19.7787334,30.3823339 19.6154001,30.3823339 19.4507334,30.3756672 C19.3074001,30.3756672 19.2414001,30.2903339 19.2414001,30.1530005 L19.2414001,29.8190005 C19.2414001,29.5770006 19.2280667,29.5636672 18.9927334,29.5243339 C18.6914001,29.4790006 18.3967334,29.4063339 18.1214001,29.2756672 C17.9054001,29.1710006 17.8794001,29.1190006 17.9454001,28.8896672 C17.9907334,28.7190006 18.0360668,28.5490006 18.0887334,28.3850006 C18.1474001,28.1883339 18.2000668,28.1690006 18.3840667,28.2603339 C18.6914001,28.4176673 19.0120667,28.5090006 19.3527334,28.5490006 C19.5687334,28.5750006 19.7847334,28.5556672 19.9880667,28.4636673 C20.3674,28.2996673 20.4267334,27.8610006 20.1060667,27.5990006 C19.9947334,27.5076673 19.8767334,27.4423339 19.7460667,27.3896673 C19.4120667,27.2456673 19.0647334,27.134334 18.7567334,26.944334 C18.2460667,26.6430006 17.9247334,26.224334 17.9647334,25.6016673 C18.0040668,24.9010007 18.4034001,24.4690007 19.0447334,24.2330007 C19.3074001,24.1350007 19.3134001,24.1416674 19.3134001,23.866334 L19.3134001,23.5850007 C19.3200667,23.3750007 19.3527334,23.3423341 19.5620667,23.3363341 L19.7527334,23.3363341 C20.1980667,23.3363341 20.1980667,23.3363341 20.1980667,23.7816674 C20.1980667,24.0950007 20.1980667,24.0950007 20.5120667,24.1416674 C20.7480667,24.180334 20.9767334,24.246334 21.1994,24.344334 C21.3240667,24.3970007 21.3694,24.4816674 21.3307333,24.6130007 C21.2787333,24.8030007 21.2260667,24.9996673 21.1607334,25.182334 C21.1014,25.3596673 21.0420667,25.3856673 20.8720667,25.3070007 C20.5254,25.1370007 20.1654,25.0710007 19.7847334,25.0910007 C19.6867334,25.0970007 19.5880667,25.1110007 19.4974001,25.1496673 C19.1700667,25.2936673 19.1107334,25.6610007 19.3927334,25.8836673 C19.5360667,25.9950007 19.6934001,26.0796673 19.8640667,26.1516673 C20.1587334,26.2696673 20.4467334,26.3876673 20.7280667,26.5450006 C21.5920667,27.0230006 21.8354,28.1296673 21.2127334,28.8830006 L21.2127334,28.8830006 Z M19.732734,21.7049991 C16.8907339,21.7049991 14.5854005,24.0103324 14.5854005,26.8523324 C14.5854005,29.694999 16.8907339,32.0003323 19.732734,32.0003323 C22.574734,32.0003323 24.8800674,29.694999 24.8800674,26.8523324 C24.8800674,24.0103324 22.574734,21.7049991 19.732734,21.7049991 L19.732734,21.7049991 Z M10.3480666,14.6716665 L29.1167332,14.6716665 L29.1167332,12.5696664 L10.3480666,12.5696664 L10.3480666,14.6716665 Z M29.6540661,10.0283335 L9.80473313,10.0283335 C8.69806648,10.0283335 7.80073317,10.9256668 7.80073317,12.0323335 L7.80073317,26.0536672 C7.80073317,27.1603339 8.69806648,28.0576672 9.80473313,28.0576672 L12.4700664,28.0576672 C12.4047331,27.6650006 12.3720664,27.2650006 12.3720664,26.8590005 C12.3720664,26.4003339 12.4173997,25.9550005 12.4960664,25.5163339 L10.3480665,25.5163339 L10.3480665,18.8043337 L29.1167328,18.8043337 L29.1167328,25.5096672 L26.9627328,25.5096672 C27.0413995,25.9490005 27.0873995,26.3943339 27.0873995,26.8523339 C27.0873995,27.2583339 27.0547328,27.6583339 26.9887328,28.0510006 L29.6540661,28.0510006 C30.7607327,28.0510006 31.658066,27.1536672 31.658066,26.0470005 L31.658066,12.0323335 C31.658066,10.9256668 30.7607327,10.0283335 29.6540661,10.0283335 L29.6540661,10.0283335 Z M25.3707322,8.24699976 C25.8367322,8.24699976 25.9673988,7.61899978 25.5480655,7.42833312 L9.18273295,0.172999995 C8.18673299,-0.272333326 7.01473304,0.172999995 6.56939973,1.1743333 L0.839399994,14.0229996 C0.394066681,15.0189996 0.839399994,16.1909995 1.84139995,16.6363329 L5.14206646,18.0636661 C5.55473311,18.2476661 6.02606642,17.9463328 6.02606642,17.4943328 L6.02606642,12.0389997 C6.02606642,9.95033305 7.72206635,8.25366643 9.81139958,8.25366643 L25.3707322,8.25366643 L25.3707322,8.24699976 Z" id="Forma"></path>
                    </g>
                </g>
            </g>
        </g>
    </g>
</svg>